<svg xmlns="http://www.w3.org/2000/svg" xmlns:xlink="http://www.w3.org/1999/xlink" width="100" height="100"><defs><linearGradient id="a" x1="21.723" x2="78.209" y1="49.935" y2="49.935" gradientUnits="userSpaceOnUse"><stop offset="0" stop-color="#fea" style="stop-color:#d8b127;stop-opacity:1"/><stop offset="1" stop-color="#ffd121" style="stop-color:#ffe379;stop-opacity:1"/></linearGradient><linearGradient id="b" x1="21.723" x2="78.209" y1="49.935" y2="49.935" gradientUnits="userSpaceOnUse" spreadMethod="pad"><stop offset="0" stop-color="#fea"/><stop offset="1" stop-color="#ffd121"/></linearGradient><linearGradient xlink:href="#a" id="d" x1="16.923" x2="83.009" y1="49.935" y2="49.935" gradientUnits="userSpaceOnUse"/><filter id="e" width="1.17" height="1.17" x="-.085" y="-.085" style="color-interpolation-filters:sRGB"><feGaussianBlur result="blur" stdDeviation="2 2"/></filter><filter id="c" width="2.648" height="2.644" x="-.824" y="-.822" style="color-interpolation-filters:sRGB"><feGaussianBlur result="blur" stdDeviation="2 2"/></filter></defs><circle cx="49.966" cy="49.935" r="28.243" fill="url(#b)"/><g fill="#ffdb4a" stroke="#fea" stroke-linecap="round" stroke-width="4.157"><path d="m97.922 49.984-11.819.012m-2.228-33.895-8.349 8.366M49.984 2.076l.012 11.819m-33.895 2.227 8.366 8.349M2.075 50.014l11.82-.012m2.227 33.894 8.349-8.366m25.542 22.392-.012-11.819m33.895-2.228-8.366-8.349"/><path d="m16.122 83.896 8.349-8.366" style="opacity:.723473;fill:#61552c;fill-opacity:1;stroke:#ffa604;stroke-width:4.157;stroke-dasharray:none;stroke-opacity:1;filter:url(#c)" transform="translate(5.43 21.327)scale(.73246)"/><path d="m16.122 83.896 8.349-8.366" style="opacity:.723473;fill:#61552c;fill-opacity:1;stroke:#ffa604;stroke-width:4.157;stroke-dasharray:none;stroke-opacity:1;filter:url(#c)" transform="rotate(45 21.544 45.896)scale(.73246)"/><path d="m16.122 83.896 8.349-8.366" style="opacity:.723473;fill:#61552c;fill-opacity:1;stroke:#ffa604;stroke-width:4.157;stroke-dasharray:none;stroke-opacity:1;filter:url(#c)" transform="rotate(90 36.624 42.056)scale(.73246)"/><path d="m16.122 83.896 8.349-8.366" style="opacity:.723473;fill:#61552c;fill-opacity:1;stroke:#ffa604;stroke-width:4.157;stroke-dasharray:none;stroke-opacity:1;filter:url(#c)" transform="rotate(135 42.87 40.466)scale(.73246)"/><path d="m16.122 83.896 8.349-8.366" style="opacity:.723473;fill:#61552c;fill-opacity:1;stroke:#ffa604;stroke-width:4.157;stroke-dasharray:none;stroke-opacity:1;filter:url(#c)" transform="rotate(180 47.288 39.341)scale(.73246)"/><path d="m16.122 83.896 8.349-8.366" style="opacity:.723473;fill:#61552c;fill-opacity:1;stroke:#ffa604;stroke-width:4.157;stroke-dasharray:none;stroke-opacity:1;filter:url(#c)" transform="rotate(-135 51.705 38.216)scale(.73246)"/><path d="m16.122 83.896 8.349-8.366" style="opacity:.723473;fill:#61552c;fill-opacity:1;stroke:#ffa604;stroke-width:4.157;stroke-dasharray:none;stroke-opacity:1;filter:url(#c)" transform="rotate(-90 57.95 36.625)scale(.73246)"/><path d="m16.122 83.896 8.349-8.366" style="opacity:.723473;fill:#61552c;fill-opacity:1;stroke:#ffa604;stroke-width:4.157;stroke-dasharray:none;stroke-opacity:1;filter:url(#c)" transform="rotate(-45 73.031 32.786)scale(.73246)"/></g><circle cx="49.966" cy="49.935" r="28.243" fill="url(#b)" style="fill:url(#d);filter:url(#e)" transform="translate(1.116 1.115)scale(.97767)"/></svg>