<svg xmlns="http://www.w3.org/2000/svg" width="100" height="100"><defs><linearGradient id="a" x1="34.884" x2="57.422" y1="26.565" y2="73.305" gradientUnits="userSpaceOnUse"><stop offset="0" stop-color="#fea"/><stop offset="1" stop-color="#ffd121"/></linearGradient><linearGradient id="d" x1="67.942" x2="65.749" y1="87.164" y2="58.391" gradientUnits="userSpaceOnUse"><stop offset="0" stop-color="#dedede"/><stop offset="1" stop-color="#fbfbfb"/></linearGradient><filter id="b" width="1.145" height="1.324" x="-.073" y="-.162" color-interpolation-filters="sRGB"><feGaussianBlur result="blur" stdDeviation="2 2"/></filter></defs><circle cx="49.966" cy="49.935" r="28.243" fill="url(#a)"/><path fill-opacity=".266" d="M35.777 86.546h59.955s7.51-8.82.18-18.937c-7.775-10.731-20.555-1.827-20.555-1.827s-6.229-11.42-17.13-8.305c-10.9 3.114-11.42 12.718-11.42 12.718s-11.393-.367-13.21 6.51c-1.816 6.879 2.18 9.841 2.18 9.841" filter="url(#b)"/><path fill="#ffdb4a" stroke="#fea" stroke-linecap="round" stroke-width="4.157" d="m97.922 49.984-11.819.012m-2.228-33.895-8.349 8.366M49.984 2.076l.012 11.819m-33.895 2.227 8.366 8.349M2.075 50.014l11.82-.012m2.227 33.894 8.349-8.366m59.425 8.345-8.366-8.349"/><path fill="url(#d)" d="M35.777 86.546h59.955s7.51-8.82.18-18.937c-7.775-10.731-20.555-1.827-20.555-1.827s-6.229-11.42-17.13-8.305c-10.9 3.114-11.42 12.718-11.42 12.718s-11.393-.367-13.21 6.51c-1.816 6.879 2.18 9.841 2.18 9.841"/></svg>