<svg xmlns="http://www.w3.org/2000/svg" width="100" height="100"><defs><linearGradient id="a" x1="37.221" x2="48.689" y1="9.345" y2="69.861" gradientUnits="userSpaceOnUse"><stop offset="0" stop-color="#fea"/><stop offset="1" stop-color="#ffd121"/></linearGradient><linearGradient id="d" x1="67.025" x2="67.258" y1="58.238" y2="86.609" gradientTransform="translate(-30.359 -22.393)scale(1.2702)" gradientUnits="userSpaceOnUse"><stop offset="0" stop-color="#fefefe"/><stop offset="1" stop-color="#bebebe"/></linearGradient><filter id="c" width="1.115" height="1.255" x="-.057" y="-.128" color-interpolation-filters="sRGB"><feGaussianBlur result="blur" stdDeviation="2 2"/></filter></defs><circle cx="49.966" cy="49.935" r="28.243" fill="url(#a)"/><path fill-opacity=".331" d="M15.577 87.046h76.155s9.54-11.204.23-24.054c-9.877-13.63-26.11-2.32-26.11-2.32s-7.912-14.506-21.759-10.55c-13.846 3.956-14.506 16.154-14.506 16.154s-14.472-.466-16.78 8.27c-2.308 8.737 2.769 12.5 2.769 12.5z" filter="url(#c)"/><g fill="#ffdb4a" stroke="#fea" stroke-linecap="round" stroke-width="4.157"><path d="m97.922 49.984-11.819.012M83.875 16.101l-8.349 8.366M49.984 2.076l.012 11.819M16.101 16.122l8.366 8.349M2.075 50.014l11.82-.012"/></g><path fill="url(#d)" d="M15.085 87.538H91.24s9.54-11.204.23-24.054c-9.877-13.63-26.11-2.32-26.11-2.32s-7.912-14.506-21.759-10.55C29.755 54.57 29.095 66.768 29.095 66.768s-14.472-.466-16.78 8.27c-2.308 8.737 2.769 12.5 2.769 12.5z"/></svg>