<svg xmlns="http://www.w3.org/2000/svg" width="100" height="100"><defs><linearGradient id="b" x1="35.408" x2="95.839" y1="71.743" y2="71.743" gradientTransform="translate(-49.58 -47.389)scale(1.4956)" gradientUnits="userSpaceOnUse"><stop offset="0" stop-color="#f1f1f1"/><stop offset="1" stop-color="#9d9d9d"/></linearGradient><linearGradient id="a" x1="65.522" x2="64.498" y1="57.265" y2="86.874" gradientTransform="translate(-47.105 -61.559)scale(1.4956)" gradientUnits="userSpaceOnUse"><stop offset="0" stop-color="#d2d2d2"/><stop offset="1" stop-color="#565656"/></linearGradient></defs><path fill="url(#a)" d="M6.402 67.876h89.667s10.206-13.457-3.62-26.023C78.876 29.517 64.89 39.121 64.89 39.121S56.281 19.744 39.978 24.4c-16.303 4.659-17.61 18.137-17.61 18.137S5.86 42.873 3.142 53.16s3.26 14.717 3.26 14.717z"/><path fill="url(#b)" d="M3.927 82.046h89.667s11.232-13.192.27-28.321c-11.63-16.049-30.742-2.732-30.742-2.732s-9.316-17.08-25.619-12.421-17.079 19.02-17.079 19.02S3.384 57.043.667 67.33s3.26 14.717 3.26 14.717z"/></svg>