<svg xmlns="http://www.w3.org/2000/svg" xmlns:xlink="http://www.w3.org/1999/xlink" width="100" height="100"><defs><linearGradient id="a"><stop offset="0" stop-color="#4d84ce"/><stop offset="1" stop-color="#94b7e9" stop-opacity=".996"/></linearGradient><linearGradient xlink:href="#a" id="d" x1="83.557" x2="88.242" y1="65.179" y2="65.179" gradientTransform="translate(-74.734 1.992)" gradientUnits="userSpaceOnUse"/><linearGradient id="c" x1="47.158" x2="47.224" y1="14.736" y2="58.223" gradientUnits="userSpaceOnUse"><stop offset="0" stop-color="#d6d8d9"/><stop offset="1" stop-color="#737b8e"/></linearGradient><linearGradient id="b" x1="51.401" x2="50.552" y1=".076" y2="44.271" gradientUnits="userSpaceOnUse"><stop offset="0" stop-color="#ebeced"/><stop offset="1" stop-color="#2f3133"/></linearGradient><linearGradient xlink:href="#a" id="e" x1="83.557" x2="88.242" y1="65.179" y2="65.179" gradientTransform="translate(-39.149 1.992)" gradientUnits="userSpaceOnUse"/><linearGradient xlink:href="#a" id="i" x1="83.557" x2="88.242" y1="65.179" y2="65.179" gradientTransform="translate(-3.564 1.992)" gradientUnits="userSpaceOnUse"/><linearGradient xlink:href="#a" id="j" x1="83.557" x2="88.242" y1="65.179" y2="65.179" gradientTransform="translate(-23.548 11.098)" gradientUnits="userSpaceOnUse"/><linearGradient xlink:href="#a" id="k" x1="83.557" x2="88.242" y1="65.179" y2="65.179" gradientTransform="translate(-58.868 11.098)" gradientUnits="userSpaceOnUse"/><linearGradient xlink:href="#a" id="f" x1="83.557" x2="88.242" y1="65.179" y2="65.179" gradientTransform="translate(-42.458 18.129)" gradientUnits="userSpaceOnUse"/><linearGradient xlink:href="#a" id="g" x1="83.557" x2="88.242" y1="65.179" y2="65.179" gradientTransform="translate(-72.655 18.129)" gradientUnits="userSpaceOnUse"/><linearGradient xlink:href="#a" id="h" x1="83.557" x2="88.242" y1="65.179" y2="65.179" gradientTransform="translate(-7.813 18.129)" gradientUnits="userSpaceOnUse"/></defs><path fill="url(#b)" d="M6.402 44.626h89.667s10.206-13.457-3.62-26.023C78.876 6.267 64.89 15.871 64.89 15.871S56.281-3.506 39.978 1.15c-16.303 4.659-17.61 18.137-17.61 18.137S5.86 19.623 3.142 29.91s3.26 14.717 3.26 14.717z"/><path fill="url(#c)" d="M3.927 58.796h89.667s11.232-13.192.27-28.321c-11.63-16.049-30.742-2.732-30.742-2.732s-9.316-17.08-25.619-12.421-17.079 19.02-17.079 19.02S3.384 33.793.667 44.08s3.26 14.717 3.26 14.717z"/><g fill="none" stroke-linecap="round" stroke-linejoin="round" stroke-width="2.5"><path stroke="url(#d)" d="m10.819 67.105 2.69-3.991" style="paint-order:stroke fill markers"/><path stroke="url(#e)" d="m46.403 67.105 2.69-3.991" style="paint-order:stroke fill markers"/><path stroke="url(#f)" d="m43.095 83.242 2.69-3.991" style="paint-order:stroke fill markers"/><path stroke="url(#g)" d="m12.898 83.242 2.69-3.991" style="paint-order:stroke fill markers"/><path stroke="url(#h)" d="m77.74 83.242 2.69-3.991" style="paint-order:stroke fill markers"/><path stroke="url(#i)" d="m81.988 67.105 2.69-3.991" style="paint-order:stroke fill markers"/><path stroke="url(#j)" d="m62.004 76.211 2.69-3.991" style="paint-order:stroke fill markers"/><path stroke="url(#k)" d="m26.685 76.211 2.69-3.991" style="paint-order:stroke fill markers"/></g></svg>