<svg xmlns="http://www.w3.org/2000/svg" xmlns:xlink="http://www.w3.org/1999/xlink" width="100" height="100"><defs><linearGradient id="a"><stop offset="0" stop-color="#4d84ce"/><stop offset="1" stop-color="#94b7e9" stop-opacity=".996"/></linearGradient><linearGradient xlink:href="#a" id="d" x1="83.557" x2="88.242" y1="65.179" y2="65.179" gradientTransform="translate(-74.734 1.992)" gradientUnits="userSpaceOnUse"/><linearGradient id="c" x1="47.158" x2="47.224" y1="14.736" y2="58.223" gradientUnits="userSpaceOnUse"><stop offset="0" stop-color="#d6d8d9"/><stop offset="1" stop-color="#737b8e"/></linearGradient><linearGradient id="b" x1="51.401" x2="50.552" y1=".076" y2="44.271" gradientUnits="userSpaceOnUse"><stop offset="0" stop-color="#ebeced"/><stop offset="1" stop-color="#2f3133"/></linearGradient><linearGradient xlink:href="#a" id="e" x1="83.557" x2="88.242" y1="65.179" y2="65.179" gradientTransform="translate(-56.942 1.992)" gradientUnits="userSpaceOnUse"/><linearGradient xlink:href="#a" id="f" x1="83.557" x2="88.242" y1="65.179" y2="65.179" gradientTransform="translate(-39.149 1.992)" gradientUnits="userSpaceOnUse"/><linearGradient xlink:href="#a" id="g" x1="83.557" x2="88.242" y1="65.179" y2="65.179" gradientTransform="translate(-21.357 1.992)" gradientUnits="userSpaceOnUse"/><linearGradient xlink:href="#a" id="h" x1="83.557" x2="88.242" y1="65.179" y2="65.179" gradientTransform="translate(-3.564 1.992)" gradientUnits="userSpaceOnUse"/><linearGradient xlink:href="#a" id="i" x1="83.557" x2="88.242" y1="65.179" y2="65.179" gradientTransform="translate(-17.165 10.566)" gradientUnits="userSpaceOnUse"/><linearGradient xlink:href="#a" id="j" x1="83.557" x2="88.242" y1="65.179" y2="65.179" gradientTransform="translate(-33.282 10.566)" gradientUnits="userSpaceOnUse"/><linearGradient xlink:href="#a" id="k" x1="83.557" x2="88.242" y1="65.179" y2="65.179" gradientTransform="translate(-49.399 10.566)" gradientUnits="userSpaceOnUse"/><linearGradient xlink:href="#a" id="l" x1="83.557" x2="88.242" y1="65.179" y2="65.179" gradientTransform="translate(-65.516 10.566)" gradientUnits="userSpaceOnUse"/><linearGradient xlink:href="#a" id="m" x1="83.557" x2="88.242" y1="65.179" y2="65.179" gradientTransform="translate(-60.316 20.424)" gradientUnits="userSpaceOnUse"/><linearGradient xlink:href="#a" id="n" x1="83.557" x2="88.242" y1="65.179" y2="65.179" gradientTransform="translate(-44.138 20.424)" gradientUnits="userSpaceOnUse"/><linearGradient xlink:href="#a" id="o" x1="83.557" x2="88.242" y1="65.179" y2="65.179" gradientTransform="translate(-27.96 20.424)" gradientUnits="userSpaceOnUse"/><linearGradient xlink:href="#a" id="p" x1="83.557" x2="88.242" y1="65.179" y2="65.179" gradientTransform="translate(-11.782 20.424)" gradientUnits="userSpaceOnUse"/><linearGradient xlink:href="#a" id="r" x1="83.557" x2="88.242" y1="65.179" y2="65.179" gradientTransform="translate(-76.495 20.424)" gradientUnits="userSpaceOnUse"/></defs><path fill="url(#b)" d="M6.402 44.626h89.667s10.206-13.457-3.62-26.023C78.876 6.267 64.89 15.871 64.89 15.871S56.281-3.506 39.978 1.15c-16.303 4.659-17.61 18.137-17.61 18.137S5.86 19.623 3.142 29.91s3.26 14.717 3.26 14.717z"/><path fill="url(#c)" d="M3.927 58.796h89.667s11.232-13.192.27-28.321c-11.63-16.049-30.742-2.732-30.742-2.732s-9.316-17.08-25.619-12.421-17.079 19.02-17.079 19.02S3.384 33.793.667 44.08s3.26 14.717 3.26 14.717z"/><g fill="none" stroke-linecap="round" stroke-linejoin="round" stroke-width="2.5"><path stroke="url(#d)" d="m10.819 67.105 2.69-3.991" style="paint-order:stroke fill markers"/><path stroke="url(#e)" d="m28.611 67.105 2.69-3.991" style="paint-order:stroke fill markers"/><path stroke="url(#f)" d="m46.403 67.105 2.69-3.991" style="paint-order:stroke fill markers"/><path stroke="url(#g)" d="m64.196 67.105 2.69-3.991" style="paint-order:stroke fill markers"/><path stroke="url(#h)" d="m81.988 67.105 2.69-3.991" style="paint-order:stroke fill markers"/><path stroke="url(#i)" d="m68.387 75.679 2.69-3.991" style="paint-order:stroke fill markers"/><path stroke="url(#j)" d="m52.27 75.679 2.69-3.991" style="paint-order:stroke fill markers"/><path stroke="url(#k)" d="m36.153 75.679 2.69-3.991" style="paint-order:stroke fill markers"/><path stroke="url(#l)" d="m20.036 75.679 2.69-3.991" style="paint-order:stroke fill markers"/><path stroke="url(#m)" d="m25.236 85.537 2.69-3.991" style="paint-order:stroke fill markers"/><path stroke="url(#n)" d="m41.415 85.537 2.69-3.991" style="paint-order:stroke fill markers"/><path stroke="url(#o)" d="m57.593 85.537 2.69-3.991" style="paint-order:stroke fill markers"/><path stroke="url(#p)" d="m73.771 85.537 2.69-3.991" style="paint-order:stroke fill markers"/><path stroke="url(#r)" d="m9.058 85.537 2.69-3.991" style="paint-order:stroke fill markers"/></g><path fill="#fff" stroke="#ff5f5f" stroke-linecap="round" stroke-linejoin="round" stroke-width="4.155" d="M61.52 67.336h26.621a2.5 2.5 0 0 0 2.2-3.684L77.032 38.934c-.944-1.752-3.457-1.752-4.402 0L59.321 63.652a2.5 2.5 0 0 0 2.2 3.684z"/><path fill="#2893ea" d="M80.798 55.587h-3.57l2.575-2.526a.995.995 0 0 0-1.402-1.403l-2.576 2.527v-3.571a.995.995 0 0 0-1.99 0v3.57l-2.526-2.526a.995.995 0 0 0-1.402 1.403l2.526 2.526h-3.57a.995.995 0 0 0 0 1.99h3.57l-2.526 2.526a.995.995 0 0 0 0 1.402 1 1 0 0 0 .706.288 1 1 0 0 0 .696-.288l2.527-2.526v3.57a.995.995 0 0 0 1.989 0v-3.57l2.526 2.576a1 1 0 0 0 .696.288 1 1 0 0 0 .756-.288.995.995 0 0 0 0-1.403l-2.576-2.576h3.571a.995.995 0 0 0 0-1.989" class="cls-1"/></svg>