<svg xmlns="http://www.w3.org/2000/svg" xmlns:xlink="http://www.w3.org/1999/xlink" width="100" height="100"><defs><radialGradient xlink:href="#a" id="d" cx="30.952" cy="66.944" r="15.845" gradientTransform="matrix(.25239 0 0 .29583 6.874 49.022)" gradientUnits="userSpaceOnUse"/><radialGradient xlink:href="#a" id="e" cx="30.952" cy="66.944" r="15.845" gradientTransform="matrix(.25239 0 0 .29583 73.264 49.022)" gradientUnits="userSpaceOnUse"/><radialGradient xlink:href="#a" id="f" cx="30.952" cy="66.944" r="15.845" gradientTransform="matrix(.25239 0 0 .29583 40.069 49.022)" gradientUnits="userSpaceOnUse"/><radialGradient xlink:href="#a" id="g" cx="30.952" cy="66.944" r="15.845" gradientTransform="matrix(.25239 0 0 .29583 23.213 63.402)" gradientUnits="userSpaceOnUse"/><radialGradient xlink:href="#a" id="h" cx="30.952" cy="66.944" r="15.845" gradientTransform="matrix(.25239 0 0 .29583 54.864 63.402)" gradientUnits="userSpaceOnUse"/><linearGradient id="a"><stop offset="0" stop-color="#85b2ee"/><stop offset="1" stop-color="#dceef9"/></linearGradient><linearGradient id="c" x1="47.158" x2="47.224" y1="14.736" y2="58.223" gradientUnits="userSpaceOnUse"><stop offset="0" stop-color="#eeefef"/><stop offset="1" stop-color="#9ca2af"/></linearGradient><linearGradient id="b" x1="51.401" x2="50.552" y1=".076" y2="44.271" gradientUnits="userSpaceOnUse"><stop offset="0" stop-color="#f2f2f3"/><stop offset="1" stop-color="#6f7478"/></linearGradient></defs><path fill="url(#b)" d="M6.402 44.626h89.667s10.206-13.457-3.62-26.023C78.876 6.267 64.89 15.871 64.89 15.871S56.281-3.506 39.978 1.15c-16.303 4.659-17.61 18.137-17.61 18.137S5.86 19.623 3.142 29.91s3.26 14.717 3.26 14.717z"/><path fill="url(#c)" d="M3.927 58.796h89.667s11.232-13.192.27-28.321c-11.63-16.049-30.742-2.732-30.742-2.732s-9.316-17.08-25.619-12.421-17.079 19.02-17.079 19.02S3.384 33.793.667 44.08s3.26 14.717 3.26 14.717z"/><g stroke-width=".505"><path fill="url(#d)" stroke="url(#d)" d="m18.222 70.545-.587-.363a1.547 1.655 0 0 1 .361-.296.38.407 0 0 0-.367-.711 2.308 2.47 0 0 0-.666.593l-1.522-.942 1.522-.94a2.305 2.466 0 0 0 .665.594.38.407 0 1 0 .368-.712 1.55 1.658 0 0 1-.362-.296l.588-.363a.38.407 0 1 0-.38-.704l-.587.363a1.55 1.658 0 0 1-.06-.483.38.407 0 0 0-.372-.415h-.007a.38.407 0 0 0-.38.399 2.308 2.47 0 0 0 .147.913l-1.522.94v-1.88a2.306 2.467 0 0 0 .813-.32.38.407 0 0 0-.392-.696 1.547 1.655 0 0 1-.421.187v-.615a.38.407 0 0 0-.76 0v.615a1.547 1.655 0 0 1-.421-.187.38.407 0 1 0-.392.696 2.306 2.467 0 0 0 .813.32v1.88l-1.522-.94a2.308 2.47 0 0 0 .147-.914.38.407 0 0 0-.38-.399h-.007a.38.407 0 0 0-.373.414 1.55 1.658 0 0 1-.06.484l-.586-.362a.38.407 0 1 0-.38.705l.587.362a1.55 1.658 0 0 1-.362.296.38.407 0 1 0 .368.712 2.308 2.47 0 0 0 .666-.593l1.522.94-1.522.94a2.308 2.47 0 0 0-.666-.594.38.407 0 1 0-.368.712 1.55 1.658 0 0 1 .362.295l-.587.365a.38.407 0 1 0 .38.704l.587-.363a1.55 1.658 0 0 1 .059.484.38.407 0 0 0 .373.413h.007a.38.407 0 0 0 .38-.399 2.308 2.47 0 0 0-.147-.913l1.522-.94v1.88a2.306 2.467 0 0 0-.813.32.38.407 0 1 0 .392.696 1.547 1.655 0 0 1 .42-.187v.615a.38.407 0 0 0 .76 0v-.615a1.547 1.655 0 0 1 .422.187.38.407 0 0 0 .392-.697 2.306 2.467 0 0 0-.813-.32v-1.88l1.522.941a2.308 2.47 0 0 0-.148.914.38.407 0 0 0 .38.399h.008a.38.407 0 0 0 .373-.415 1.55 1.658 0 0 1 .059-.484l.587.363a.38.407 0 1 0 .38-.703z"/><path fill="url(#e)" stroke="url(#e)" d="m84.611 70.545-.587-.363a1.547 1.655 0 0 1 .361-.296.38.407 0 0 0-.367-.711 2.308 2.47 0 0 0-.666.593l-1.522-.942 1.522-.94a2.305 2.466 0 0 0 .665.594.38.407 0 1 0 .368-.712 1.55 1.658 0 0 1-.362-.296l.588-.363a.38.407 0 1 0-.38-.704l-.587.363a1.55 1.658 0 0 1-.06-.483.38.407 0 0 0-.372-.415h-.007a.38.407 0 0 0-.38.399 2.308 2.47 0 0 0 .147.913l-1.522.94v-1.88a2.306 2.467 0 0 0 .813-.32.38.407 0 0 0-.392-.696 1.547 1.655 0 0 1-.421.187v-.615a.38.407 0 0 0-.76 0v.615a1.547 1.655 0 0 1-.421-.187.38.407 0 1 0-.392.696 2.306 2.467 0 0 0 .813.32v1.88l-1.522-.94a2.308 2.47 0 0 0 .147-.914.38.407 0 0 0-.38-.399h-.007a.38.407 0 0 0-.373.414 1.55 1.658 0 0 1-.06.484l-.586-.362a.38.407 0 1 0-.38.705l.587.362a1.55 1.658 0 0 1-.362.296.38.407 0 1 0 .368.712 2.308 2.47 0 0 0 .666-.593l1.522.94-1.522.94a2.308 2.47 0 0 0-.666-.594.38.407 0 1 0-.368.712 1.55 1.658 0 0 1 .362.295l-.587.365a.38.407 0 1 0 .38.704l.587-.363a1.55 1.658 0 0 1 .059.484.38.407 0 0 0 .373.413h.007a.38.407 0 0 0 .38-.399 2.308 2.47 0 0 0-.147-.913l1.522-.94v1.88a2.306 2.467 0 0 0-.813.32.38.407 0 1 0 .392.696 1.547 1.655 0 0 1 .42-.187v.615a.38.407 0 0 0 .76 0v-.615a1.547 1.655 0 0 1 .422.187.38.407 0 0 0 .392-.697 2.306 2.467 0 0 0-.813-.32v-1.88l1.522.941a2.308 2.47 0 0 0-.148.914.38.407 0 0 0 .38.399h.008a.38.407 0 0 0 .373-.415 1.55 1.658 0 0 1 .059-.484l.587.363a.38.407 0 1 0 .38-.703z"/><path fill="url(#f)" stroke="url(#f)" d="m51.417 70.545-.587-.363a1.547 1.655 0 0 1 .361-.296.38.407 0 0 0-.367-.711 2.308 2.47 0 0 0-.666.593l-1.522-.942 1.522-.94a2.305 2.466 0 0 0 .665.594.38.407 0 1 0 .368-.712 1.55 1.658 0 0 1-.362-.296l.588-.363a.38.407 0 1 0-.38-.704l-.587.363a1.55 1.658 0 0 1-.06-.483.38.407 0 0 0-.372-.415h-.007a.38.407 0 0 0-.38.399 2.308 2.47 0 0 0 .147.913l-1.522.94v-1.88a2.306 2.467 0 0 0 .813-.32.38.407 0 0 0-.392-.696 1.547 1.655 0 0 1-.421.187v-.615a.38.407 0 0 0-.76 0v.615a1.547 1.655 0 0 1-.421-.187.38.407 0 1 0-.392.696 2.306 2.467 0 0 0 .813.32v1.88l-1.522-.94a2.308 2.47 0 0 0 .147-.914.38.407 0 0 0-.38-.399h-.007a.38.407 0 0 0-.373.414 1.55 1.658 0 0 1-.06.484l-.586-.362a.38.407 0 1 0-.38.705l.587.362a1.55 1.658 0 0 1-.362.296.38.407 0 1 0 .368.712 2.308 2.47 0 0 0 .666-.593l1.522.94-1.522.94a2.308 2.47 0 0 0-.666-.594.38.407 0 1 0-.368.712 1.55 1.658 0 0 1 .362.295l-.587.365a.38.407 0 1 0 .38.704l.587-.363a1.55 1.658 0 0 1 .059.484.38.407 0 0 0 .373.413h.007a.38.407 0 0 0 .38-.399 2.308 2.47 0 0 0-.147-.913l1.522-.94v1.88a2.306 2.467 0 0 0-.813.32.38.407 0 1 0 .392.696 1.547 1.655 0 0 1 .42-.187v.615a.38.407 0 0 0 .76 0v-.615a1.547 1.655 0 0 1 .422.187.38.407 0 0 0 .392-.697 2.306 2.467 0 0 0-.813-.32v-1.88l1.522.941a2.308 2.47 0 0 0-.148.914.38.407 0 0 0 .38.399h.008a.38.407 0 0 0 .373-.415 1.55 1.658 0 0 1 .059-.484l.587.363a.38.407 0 1 0 .38-.703z"/><path fill="url(#g)" stroke="url(#g)" d="m34.56 84.925-.587-.363a1.547 1.655 0 0 1 .361-.296.38.407 0 0 0-.367-.711 2.308 2.47 0 0 0-.666.593l-1.522-.942 1.522-.94a2.305 2.466 0 0 0 .665.594.38.407 0 1 0 .368-.712 1.55 1.658 0 0 1-.362-.296l.588-.363a.38.407 0 1 0-.38-.704l-.587.363a1.55 1.658 0 0 1-.06-.483.38.407 0 0 0-.372-.415h-.007a.38.407 0 0 0-.38.399 2.308 2.47 0 0 0 .147.913l-1.522.94v-1.88a2.306 2.467 0 0 0 .813-.32.38.407 0 0 0-.392-.696 1.547 1.655 0 0 1-.421.187v-.615a.38.407 0 0 0-.76 0v.615a1.547 1.655 0 0 1-.421-.187.38.407 0 1 0-.392.696 2.306 2.467 0 0 0 .813.32v1.88l-1.522-.94a2.308 2.47 0 0 0 .147-.914.38.407 0 0 0-.38-.399h-.007a.38.407 0 0 0-.373.414 1.55 1.658 0 0 1-.06.484l-.586-.362a.38.407 0 1 0-.38.705l.587.362a1.55 1.658 0 0 1-.362.296.38.407 0 1 0 .368.712 2.308 2.47 0 0 0 .666-.593l1.522.94-1.522.94a2.308 2.47 0 0 0-.666-.594.38.407 0 1 0-.368.712 1.55 1.658 0 0 1 .362.295l-.587.365a.38.407 0 1 0 .38.704l.587-.363a1.55 1.658 0 0 1 .059.484.38.407 0 0 0 .373.413h.007a.38.407 0 0 0 .38-.399 2.308 2.47 0 0 0-.147-.913l1.522-.94v1.88a2.306 2.467 0 0 0-.813.32.38.407 0 1 0 .392.696 1.547 1.655 0 0 1 .42-.187v.615a.38.407 0 0 0 .76 0v-.615a1.547 1.655 0 0 1 .422.187.38.407 0 0 0 .392-.697 2.306 2.467 0 0 0-.813-.32v-1.88l1.522.941a2.308 2.47 0 0 0-.148.914.38.407 0 0 0 .38.399h.008a.38.407 0 0 0 .373-.415 1.55 1.658 0 0 1 .059-.484l.587.363a.38.407 0 1 0 .38-.703z"/><path fill="url(#h)" stroke="url(#h)" d="m66.211 84.925-.587-.363a1.547 1.655 0 0 1 .361-.296.38.407 0 0 0-.367-.711 2.308 2.47 0 0 0-.666.593l-1.522-.942 1.522-.94a2.305 2.466 0 0 0 .665.594.38.407 0 1 0 .368-.712 1.55 1.658 0 0 1-.362-.296l.588-.363a.38.407 0 1 0-.38-.704l-.587.363a1.55 1.658 0 0 1-.06-.483.38.407 0 0 0-.372-.415h-.007a.38.407 0 0 0-.38.399 2.308 2.47 0 0 0 .147.913l-1.522.94v-1.88a2.306 2.467 0 0 0 .813-.32.38.407 0 0 0-.392-.696 1.547 1.655 0 0 1-.421.187v-.615a.38.407 0 0 0-.76 0v.615a1.547 1.655 0 0 1-.421-.187.38.407 0 1 0-.392.696 2.306 2.467 0 0 0 .813.32v1.88l-1.522-.94a2.308 2.47 0 0 0 .147-.914.38.407 0 0 0-.38-.399h-.007a.38.407 0 0 0-.373.414 1.55 1.658 0 0 1-.059.484l-.587-.362a.38.407 0 1 0-.38.705l.587.362a1.55 1.658 0 0 1-.362.296.38.407 0 1 0 .368.712 2.308 2.47 0 0 0 .666-.593l1.522.94-1.522.94a2.308 2.47 0 0 0-.666-.594.38.407 0 1 0-.367.712 1.55 1.658 0 0 1 .361.295l-.587.365a.38.407 0 1 0 .38.704l.587-.363a1.55 1.658 0 0 1 .059.484.38.407 0 0 0 .373.413h.007a.38.407 0 0 0 .38-.399 2.308 2.47 0 0 0-.147-.913l1.522-.94v1.88a2.306 2.467 0 0 0-.813.32.38.407 0 1 0 .392.696 1.547 1.655 0 0 1 .42-.187v.615a.38.407 0 0 0 .76 0v-.615a1.547 1.655 0 0 1 .422.187.38.407 0 0 0 .392-.697 2.306 2.467 0 0 0-.813-.32v-1.88l1.522.941a2.308 2.47 0 0 0-.148.914.38.407 0 0 0 .38.399h.008a.38.407 0 0 0 .373-.415 1.55 1.658 0 0 1 .059-.484l.587.363a.38.407 0 1 0 .38-.703z"/></g></svg>