<svg xmlns="http://www.w3.org/2000/svg" xmlns:xlink="http://www.w3.org/1999/xlink" width="100" height="100"><defs><radialGradient xlink:href="#a" id="d" cx="30.952" cy="66.944" r="15.845" gradientTransform="matrix(.25239 0 0 .29583 8.658 48.321)" gradientUnits="userSpaceOnUse"/><radialGradient xlink:href="#a" id="e" cx="30.952" cy="66.944" r="15.845" gradientTransform="matrix(.25239 0 0 .29583 78.432 48.321)" gradientUnits="userSpaceOnUse"/><radialGradient xlink:href="#a" id="i" cx="30.952" cy="66.944" r="15.845" gradientTransform="matrix(.25239 0 0 .29583 42.714 62.812)" gradientUnits="userSpaceOnUse"/><radialGradient xlink:href="#a" id="n" cx="30.952" cy="66.944" r="15.845" gradientTransform="matrix(.324 0 0 .37976 60.998 57.193)" gradientUnits="userSpaceOnUse"/><radialGradient xlink:href="#a" id="f" cx="30.952" cy="66.944" r="15.845" gradientTransform="matrix(.25239 0 0 .29583 55.174 48.321)" gradientUnits="userSpaceOnUse"/><radialGradient xlink:href="#a" id="g" cx="30.952" cy="66.944" r="15.845" gradientTransform="matrix(.324 0 0 .37976 29.64 42.702)" gradientUnits="userSpaceOnUse"/><radialGradient xlink:href="#a" id="m" cx="30.952" cy="66.944" r="15.845" gradientTransform="matrix(.25637 0 0 .3005 2.013 62.499)" gradientUnits="userSpaceOnUse"/><radialGradient xlink:href="#a" id="h" cx="30.952" cy="66.944" r="15.845" gradientTransform="matrix(.25239 0 0 .29583 22.427 62.812)" gradientUnits="userSpaceOnUse"/><radialGradient xlink:href="#a" id="j" cx="30.952" cy="66.944" r="15.845" gradientTransform="matrix(.14083 0 0 .16507 46.543 61.299)" gradientUnits="userSpaceOnUse"/><radialGradient xlink:href="#a" id="k" cx="30.952" cy="66.944" r="15.845" gradientTransform="matrix(.14083 0 0 .16507 70.548 61.299)" gradientUnits="userSpaceOnUse"/><radialGradient xlink:href="#a" id="l" cx="30.952" cy="66.944" r="15.845" gradientTransform="matrix(.14083 0 0 .16507 22.537 61.299)" gradientUnits="userSpaceOnUse"/><linearGradient id="a"><stop offset="0" stop-color="#85b2ee"/><stop offset="1" stop-color="#dceef9"/></linearGradient><linearGradient id="c" x1="47.158" x2="47.224" y1="14.736" y2="58.223" gradientUnits="userSpaceOnUse"><stop offset="0" stop-color="#eeefef"/><stop offset="1" stop-color="#717a8d"/></linearGradient><linearGradient id="b" x1="51.401" x2="50.552" y1=".076" y2="44.271" gradientUnits="userSpaceOnUse"><stop offset="0" stop-color="#f2f2f3"/><stop offset="1" stop-color="#6f7478"/></linearGradient></defs><path fill="url(#b)" d="M6.402 44.626h89.667s10.206-13.457-3.62-26.023C78.876 6.267 64.89 15.871 64.89 15.871S56.281-3.506 39.978 1.15c-16.303 4.659-17.61 18.137-17.61 18.137S5.86 19.623 3.142 29.91s3.26 14.717 3.26 14.717z"/><path fill="url(#c)" d="M3.927 58.796h89.667s11.232-13.192.27-28.321c-11.63-16.049-30.742-2.732-30.742-2.732s-9.316-17.08-25.619-12.421-17.079 19.02-17.079 19.02S3.384 33.793.667 44.08s3.26 14.717 3.26 14.717z"/><g stroke-width=".505"><path fill="url(#d)" stroke="url(#d)" d="m20.006 69.844-.587-.363a1.547 1.655 0 0 1 .361-.296.38.407 0 0 0-.367-.711 2.308 2.47 0 0 0-.666.593l-1.522-.942 1.522-.94a2.305 2.466 0 0 0 .665.594.38.407 0 1 0 .368-.712 1.55 1.658 0 0 1-.362-.296l.588-.363a.38.407 0 1 0-.38-.704l-.587.363a1.55 1.658 0 0 1-.06-.483.38.407 0 0 0-.372-.415H18.6a.38.407 0 0 0-.38.399 2.308 2.47 0 0 0 .147.913l-1.522.94v-1.88a2.306 2.467 0 0 0 .813-.32.38.407 0 0 0-.392-.696 1.547 1.655 0 0 1-.421.187v-.615a.38.407 0 0 0-.76 0v.615a1.547 1.655 0 0 1-.421-.187.38.407 0 1 0-.392.696 2.306 2.467 0 0 0 .813.32v1.88l-1.522-.94a2.308 2.47 0 0 0 .147-.914.38.407 0 0 0-.38-.399h-.007a.38.407 0 0 0-.373.414 1.55 1.658 0 0 1-.06.484l-.586-.362a.38.407 0 1 0-.38.705l.587.362a1.55 1.658 0 0 1-.362.296.38.407 0 1 0 .368.712 2.308 2.47 0 0 0 .666-.593l1.522.94-1.522.94a2.308 2.47 0 0 0-.666-.594.38.407 0 1 0-.368.712 1.55 1.658 0 0 1 .362.295l-.587.365a.38.407 0 1 0 .38.704l.587-.363a1.55 1.658 0 0 1 .059.484.38.407 0 0 0 .373.413h.007a.38.407 0 0 0 .38-.399 2.308 2.47 0 0 0-.147-.913l1.522-.94v1.88a2.306 2.467 0 0 0-.813.32.38.407 0 1 0 .392.696 1.547 1.655 0 0 1 .42-.187v.615a.38.407 0 0 0 .76 0v-.615a1.547 1.655 0 0 1 .422.187.38.407 0 0 0 .392-.697 2.306 2.467 0 0 0-.813-.32v-1.88l1.522.941a2.308 2.47 0 0 0-.148.914.38.407 0 0 0 .38.399h.008a.38.407 0 0 0 .373-.415 1.55 1.658 0 0 1 .059-.484l.587.363a.38.407 0 1 0 .38-.703z"/><path fill="url(#e)" stroke="url(#e)" d="m89.78 69.843-.587-.363a1.547 1.655 0 0 1 .361-.296.38.407 0 0 0-.367-.711 2.308 2.47 0 0 0-.666.593l-1.522-.942 1.522-.94a2.305 2.466 0 0 0 .665.594.38.407 0 1 0 .368-.712 1.55 1.658 0 0 1-.362-.296l.588-.363a.38.407 0 1 0-.38-.704l-.587.363a1.55 1.658 0 0 1-.06-.483.38.407 0 0 0-.372-.415h-.007a.38.407 0 0 0-.38.399 2.308 2.47 0 0 0 .147.913l-1.522.94v-1.88a2.306 2.467 0 0 0 .813-.32.38.407 0 0 0-.392-.696 1.547 1.655 0 0 1-.421.187v-.615a.38.407 0 0 0-.76 0v.615a1.547 1.655 0 0 1-.421-.187.38.407 0 1 0-.392.696 2.306 2.467 0 0 0 .813.32v1.88l-1.522-.94a2.308 2.47 0 0 0 .147-.914.38.407 0 0 0-.38-.399h-.007a.38.407 0 0 0-.373.414 1.55 1.658 0 0 1-.06.484l-.586-.362a.38.407 0 1 0-.38.705l.587.362a1.55 1.658 0 0 1-.362.296.38.407 0 1 0 .368.712 2.308 2.47 0 0 0 .666-.593l1.522.94-1.522.94a2.308 2.47 0 0 0-.666-.594.38.407 0 1 0-.368.712 1.55 1.658 0 0 1 .362.295l-.587.365a.38.407 0 1 0 .38.704l.587-.363a1.55 1.658 0 0 1 .059.484.38.407 0 0 0 .373.413h.007a.38.407 0 0 0 .38-.399 2.308 2.47 0 0 0-.147-.913l1.522-.94v1.88a2.306 2.467 0 0 0-.813.32.38.407 0 1 0 .392.696 1.547 1.655 0 0 1 .42-.187v.615a.38.407 0 0 0 .76 0v-.615a1.547 1.655 0 0 1 .422.187.38.407 0 0 0 .392-.697 2.306 2.467 0 0 0-.813-.32v-1.88l1.522.941a2.308 2.47 0 0 0-.148.914.38.407 0 0 0 .38.399h.008a.38.407 0 0 0 .373-.415 1.55 1.658 0 0 1 .059-.484l.587.363a.38.407 0 1 0 .38-.703z"/><path fill="url(#f)" stroke="url(#f)" d="m66.522 69.843-.587-.363a1.547 1.655 0 0 1 .361-.296.38.407 0 0 0-.367-.711 2.308 2.47 0 0 0-.666.593l-1.522-.942 1.522-.94a2.305 2.466 0 0 0 .665.594.38.407 0 1 0 .368-.712 1.55 1.658 0 0 1-.362-.296l.588-.363a.38.407 0 1 0-.38-.704l-.587.363a1.55 1.658 0 0 1-.06-.483.38.407 0 0 0-.372-.415h-.007a.38.407 0 0 0-.38.399 2.308 2.47 0 0 0 .147.913l-1.522.94v-1.88a2.306 2.467 0 0 0 .813-.32.38.407 0 0 0-.392-.696 1.547 1.655 0 0 1-.421.187v-.615a.38.407 0 0 0-.76 0v.615a1.547 1.655 0 0 1-.421-.187.38.407 0 1 0-.392.696 2.306 2.467 0 0 0 .813.32v1.88l-1.522-.94a2.308 2.47 0 0 0 .147-.914.38.407 0 0 0-.38-.399h-.007a.38.407 0 0 0-.373.414 1.55 1.658 0 0 1-.06.484l-.586-.362a.38.407 0 1 0-.38.705l.587.362a1.55 1.658 0 0 1-.362.296.38.407 0 1 0 .368.712 2.308 2.47 0 0 0 .666-.593l1.522.94-1.522.94a2.308 2.47 0 0 0-.666-.594.38.407 0 1 0-.368.712 1.55 1.658 0 0 1 .362.295l-.587.365a.38.407 0 1 0 .38.704l.587-.363a1.55 1.658 0 0 1 .059.484.38.407 0 0 0 .373.413h.007a.38.407 0 0 0 .38-.399 2.308 2.47 0 0 0-.147-.913l1.522-.94v1.88a2.306 2.467 0 0 0-.813.32.38.407 0 1 0 .392.696 1.547 1.655 0 0 1 .42-.187v.615a.38.407 0 0 0 .76 0v-.615a1.547 1.655 0 0 1 .422.187.38.407 0 0 0 .392-.697 2.306 2.467 0 0 0-.813-.32v-1.88l1.522.941a2.308 2.47 0 0 0-.148.914.38.407 0 0 0 .38.399h.008a.38.407 0 0 0 .373-.415 1.55 1.658 0 0 1 .059-.484l.587.363a.38.407 0 1 0 .38-.703z"/></g><path fill="url(#g)" stroke="url(#g)" stroke-width=".648" d="m44.207 70.331-.754-.466a1.985 2.124 0 0 1 .464-.38.488.522 0 0 0-.471-.913 2.963 3.17 0 0 0-.855.761l-1.954-1.208 1.953-1.207a2.96 3.166 0 0 0 .855.762.488.522 0 1 0 .472-.914 1.99 2.129 0 0 1-.464-.38l.754-.465a.488.522 0 1 0-.488-.904l-.754.466a1.99 2.129 0 0 1-.076-.62.488.522 0 0 0-.478-.534h-.01a.488.522 0 0 0-.487.512 2.963 3.17 0 0 0 .188 1.172l-1.953 1.208v-2.413a2.96 3.167 0 0 0 1.044-.411.488.522 0 0 0-.504-.894 1.986 2.125 0 0 1-.54.24v-.79a.488.522 0 0 0-.976 0v.79a1.986 2.125 0 0 1-.54-.24.488.522 0 1 0-.503.894 2.96 3.167 0 0 0 1.043.41v2.414l-1.953-1.208a2.963 3.17 0 0 0 .189-1.172.488.522 0 0 0-.488-.512h-.01a.488.522 0 0 0-.478.531 1.99 2.129 0 0 1-.076.622l-.754-.465a.488.522 0 1 0-.488.904l.754.466a1.99 2.129 0 0 1-.464.38.488.522 0 1 0 .472.913 2.963 3.17 0 0 0 .855-.762l1.953 1.207-1.953 1.206a2.963 3.17 0 0 0-.855-.761.488.522 0 1 0-.472.913 1.99 2.129 0 0 1 .465.38l-.755.468a.488.522 0 1 0 .488.904l.754-.466a1.99 2.129 0 0 1 .076.62.488.522 0 0 0 .478.531h.01a.488.522 0 0 0 .487-.512 2.963 3.17 0 0 0-.188-1.172l1.953-1.207v2.413a2.96 3.167 0 0 0-1.044.41.488.522 0 1 0 .504.895 1.986 2.125 0 0 1 .54-.24v.79a.488.522 0 0 0 .976 0v-.79a1.986 2.125 0 0 1 .54.24.488.522 0 0 0 .504-.894 2.96 3.167 0 0 0-1.044-.411v-2.413l1.953 1.207a2.963 3.17 0 0 0-.189 1.173.488.522 0 0 0 .488.512h.01a.488.522 0 0 0 .478-.532 1.99 2.129 0 0 1 .076-.621l.754.466a.488.522 0 1 0 .488-.903z"/><path fill="url(#h)" stroke="url(#h)" stroke-width=".505" d="m33.775 84.334-.587-.363a1.547 1.655 0 0 1 .361-.296.38.407 0 0 0-.367-.711 2.308 2.47 0 0 0-.666.593l-1.522-.942 1.522-.94a2.305 2.466 0 0 0 .665.594.38.407 0 1 0 .368-.712 1.55 1.658 0 0 1-.362-.296l.588-.363a.38.407 0 1 0-.38-.704l-.587.363a1.55 1.658 0 0 1-.06-.483.38.407 0 0 0-.372-.415h-.007a.38.407 0 0 0-.38.399 2.308 2.47 0 0 0 .147.913l-1.522.94v-1.88a2.306 2.467 0 0 0 .813-.32.38.407 0 0 0-.392-.696 1.547 1.655 0 0 1-.421.187v-.615a.38.407 0 0 0-.76 0v.615a1.547 1.655 0 0 1-.421-.187.38.407 0 1 0-.392.696 2.306 2.467 0 0 0 .813.32v1.88l-1.522-.94a2.308 2.47 0 0 0 .147-.914.38.407 0 0 0-.38-.399h-.007a.38.407 0 0 0-.373.414 1.55 1.658 0 0 1-.06.484l-.586-.362a.38.407 0 1 0-.38.705l.587.362a1.55 1.658 0 0 1-.362.296.38.407 0 1 0 .368.712 2.308 2.47 0 0 0 .666-.593l1.522.94-1.522.94a2.308 2.47 0 0 0-.666-.594.38.407 0 1 0-.368.712 1.55 1.658 0 0 1 .362.295l-.587.365a.38.407 0 1 0 .38.704l.587-.363a1.55 1.658 0 0 1 .059.484.38.407 0 0 0 .373.413h.007a.38.407 0 0 0 .38-.399 2.308 2.47 0 0 0-.147-.913l1.522-.94v1.88a2.306 2.467 0 0 0-.813.32.38.407 0 1 0 .392.696 1.547 1.655 0 0 1 .42-.187v.615a.38.407 0 0 0 .76 0v-.615a1.547 1.655 0 0 1 .422.187.38.407 0 0 0 .392-.697 2.306 2.467 0 0 0-.813-.32v-1.88l1.522.941a2.308 2.47 0 0 0-.148.914.38.407 0 0 0 .38.399h.008a.38.407 0 0 0 .373-.415 1.55 1.658 0 0 1 .059-.484l.587.363a.38.407 0 1 0 .38-.703z"/><path fill="url(#i)" stroke="url(#i)" stroke-width=".505" d="m54.062 84.334-.587-.363a1.547 1.655 0 0 1 .361-.296.38.407 0 0 0-.367-.711 2.308 2.47 0 0 0-.666.593l-1.522-.942 1.522-.94a2.305 2.466 0 0 0 .665.594.38.407 0 1 0 .368-.712 1.55 1.658 0 0 1-.362-.296l.588-.363a.38.407 0 1 0-.38-.704l-.587.363a1.55 1.658 0 0 1-.06-.483.38.407 0 0 0-.372-.415h-.007a.38.407 0 0 0-.38.399 2.308 2.47 0 0 0 .147.913l-1.522.94v-1.88a2.306 2.467 0 0 0 .813-.32.38.407 0 0 0-.392-.696 1.547 1.655 0 0 1-.421.187v-.615a.38.407 0 0 0-.76 0v.615a1.547 1.655 0 0 1-.421-.187.38.407 0 1 0-.392.696 2.306 2.467 0 0 0 .813.32v1.88l-1.522-.94a2.308 2.47 0 0 0 .147-.914.38.407 0 0 0-.38-.399h-.007a.38.407 0 0 0-.373.414 1.55 1.658 0 0 1-.06.484l-.586-.362a.38.407 0 1 0-.38.705l.587.362a1.55 1.658 0 0 1-.362.296.38.407 0 1 0 .368.712 2.308 2.47 0 0 0 .666-.593l1.522.94-1.522.94a2.308 2.47 0 0 0-.666-.594.38.407 0 1 0-.368.712 1.55 1.658 0 0 1 .362.295l-.587.365a.38.407 0 1 0 .38.704l.587-.363a1.55 1.658 0 0 1 .059.484.38.407 0 0 0 .373.413h.007a.38.407 0 0 0 .38-.399 2.308 2.47 0 0 0-.147-.913l1.522-.94v1.88a2.306 2.467 0 0 0-.813.32.38.407 0 1 0 .392.696 1.547 1.655 0 0 1 .42-.187v.615a.38.407 0 0 0 .76 0v-.615a1.547 1.655 0 0 1 .422.187.38.407 0 0 0 .392-.697 2.306 2.467 0 0 0-.813-.32v-1.88l1.522.941a2.308 2.47 0 0 0-.148.914.38.407 0 0 0 .38.399h.008a.38.407 0 0 0 .373-.415 1.55 1.658 0 0 1 .059-.484l.587.363a.38.407 0 1 0 .38-.703z"/><g stroke-width=".282"><path fill="url(#j)" stroke="url(#j)" d="m52.874 73.308-.328-.203a.863.923 0 0 1 .202-.164.212.227 0 0 0-.205-.398 1.288 1.378 0 0 0-.372.331l-.849-.525.85-.524a1.286 1.376 0 0 0 .37.33.212.227 0 1 0 .206-.396.865.925 0 0 1-.202-.165l.328-.203a.212.227 0 1 0-.212-.393l-.328.203a.865.925 0 0 1-.033-.27.212.227 0 0 0-.208-.232h-.004a.212.227 0 0 0-.212.223 1.288 1.378 0 0 0 .082.51l-.849.524v-1.049a1.287 1.377 0 0 0 .454-.178.212.227 0 0 0-.22-.389.863.923 0 0 1-.234.104v-.343a.212.227 0 0 0-.424 0v.343a.863.923 0 0 1-.235-.104.212.227 0 1 0-.219.389 1.287 1.377 0 0 0 .454.178v1.05l-.849-.526a1.288 1.378 0 0 0 .082-.51.212.227 0 0 0-.212-.222h-.004a.212.227 0 0 0-.208.231.865.925 0 0 1-.033.27l-.328-.202a.212.227 0 1 0-.212.393l.328.203a.865.925 0 0 1-.202.165.212.227 0 1 0 .205.397 1.288 1.378 0 0 0 .372-.331l.849.524-.849.524a1.288 1.378 0 0 0-.372-.33.212.227 0 1 0-.205.397.865.925 0 0 1 .202.165l-.328.203a.212.227 0 1 0 .212.393l.328-.203a.865.925 0 0 1 .033.27.212.227 0 0 0 .208.23h.004a.212.227 0 0 0 .212-.222 1.288 1.378 0 0 0-.082-.51l.85-.524v1.049a1.287 1.377 0 0 0-.455.178.212.227 0 1 0 .22.39.863.923 0 0 1 .234-.105v.343a.212.227 0 0 0 .424 0v-.343a.863.923 0 0 1 .235.104.212.227 0 0 0 .219-.389 1.287 1.377 0 0 0-.454-.178v-1.049l.85.525a1.288 1.378 0 0 0-.083.51.212.227 0 0 0 .212.222h.004a.212.227 0 0 0 .208-.231.865.925 0 0 1 .033-.27l.328.202a.212.227 0 1 0 .212-.392z"/><path fill="url(#k)" stroke="url(#k)" d="m76.88 73.308-.328-.203a.863.923 0 0 1 .202-.164.212.227 0 0 0-.205-.398 1.288 1.378 0 0 0-.372.331l-.849-.525.85-.524a1.286 1.376 0 0 0 .37.33.212.227 0 1 0 .206-.396.865.925 0 0 1-.202-.165l.328-.203a.212.227 0 1 0-.212-.393l-.328.203a.865.925 0 0 1-.033-.27.212.227 0 0 0-.208-.232h-.004a.212.227 0 0 0-.212.223 1.288 1.378 0 0 0 .082.51l-.849.524v-1.049a1.287 1.377 0 0 0 .454-.178.212.227 0 0 0-.22-.389.863.923 0 0 1-.234.104v-.343a.212.227 0 0 0-.424 0v.343a.863.923 0 0 1-.235-.104.212.227 0 1 0-.219.389 1.287 1.377 0 0 0 .454.178v1.05l-.849-.526a1.288 1.378 0 0 0 .082-.51.212.227 0 0 0-.212-.222h-.004a.212.227 0 0 0-.208.231.865.925 0 0 1-.033.27l-.328-.202a.212.227 0 1 0-.212.393l.328.203a.865.925 0 0 1-.202.165.212.227 0 1 0 .205.397 1.288 1.378 0 0 0 .372-.331l.849.524-.849.524a1.288 1.378 0 0 0-.372-.33.212.227 0 1 0-.205.397.865.925 0 0 1 .202.165l-.328.203a.212.227 0 1 0 .212.393l.328-.203a.865.925 0 0 1 .033.27.212.227 0 0 0 .208.23h.004a.212.227 0 0 0 .212-.222 1.288 1.378 0 0 0-.082-.51l.85-.524v1.049a1.287 1.377 0 0 0-.455.178.212.227 0 1 0 .22.39.863.923 0 0 1 .234-.105v.343a.212.227 0 0 0 .424 0v-.343a.863.923 0 0 1 .235.104.212.227 0 0 0 .219-.389 1.287 1.377 0 0 0-.454-.178v-1.049l.85.525a1.288 1.378 0 0 0-.083.51.212.227 0 0 0 .212.222h.004a.212.227 0 0 0 .208-.231.865.925 0 0 1 .033-.27l.328.202a.212.227 0 1 0 .212-.392z"/><path fill="url(#l)" stroke="url(#l)" d="m28.869 73.308-.328-.203a.863.923 0 0 1 .202-.164.212.227 0 0 0-.205-.398 1.288 1.378 0 0 0-.372.331l-.849-.525.85-.524a1.286 1.376 0 0 0 .37.33.212.227 0 1 0 .206-.396.865.925 0 0 1-.202-.165l.328-.203a.212.227 0 1 0-.212-.393l-.328.203a.865.925 0 0 1-.033-.27.212.227 0 0 0-.208-.232h-.004a.212.227 0 0 0-.212.223 1.288 1.378 0 0 0 .082.51l-.849.524v-1.049a1.287 1.377 0 0 0 .454-.178.212.227 0 0 0-.22-.389.863.923 0 0 1-.234.104v-.343a.212.227 0 0 0-.424 0v.343a.863.923 0 0 1-.235-.104.212.227 0 1 0-.219.389 1.287 1.377 0 0 0 .454.178v1.05l-.849-.526a1.288 1.378 0 0 0 .082-.51.212.227 0 0 0-.212-.222h-.004a.212.227 0 0 0-.208.231.865.925 0 0 1-.033.27l-.328-.202a.212.227 0 1 0-.212.393l.328.203a.865.925 0 0 1-.202.165.212.227 0 1 0 .205.397 1.288 1.378 0 0 0 .372-.331l.849.524-.849.524a1.288 1.378 0 0 0-.372-.33.212.227 0 1 0-.205.397.865.925 0 0 1 .202.165l-.328.203a.212.227 0 1 0 .212.393l.328-.203a.865.925 0 0 1 .033.27.212.227 0 0 0 .208.23h.004a.212.227 0 0 0 .212-.222 1.288 1.378 0 0 0-.082-.51l.85-.524v1.049a1.287 1.377 0 0 0-.455.178.212.227 0 1 0 .22.39.863.923 0 0 1 .234-.105v.343a.212.227 0 0 0 .424 0v-.343a.863.923 0 0 1 .235.104.212.227 0 0 0 .219-.389 1.287 1.377 0 0 0-.454-.178v-1.049l.85.525a1.288 1.378 0 0 0-.083.51.212.227 0 0 0 .212.222h.004a.212.227 0 0 0 .208-.231.865.925 0 0 1 .033-.27l.328.202a.212.227 0 1 0 .212-.392z"/></g><path fill="url(#m)" stroke="url(#m)" stroke-width=".513" d="m13.54 84.362-.597-.369a1.571 1.68 0 0 1 .368-.3.386.413 0 0 0-.374-.723 2.345 2.508 0 0 0-.676.603l-1.546-.957 1.546-.954a2.342 2.505 0 0 0 .676.602.386.413 0 1 0 .374-.723 1.575 1.685 0 0 1-.368-.3l.597-.369a.386.413 0 1 0-.386-.715l-.597.369a1.575 1.685 0 0 1-.06-.491.386.413 0 0 0-.378-.422h-.007a.386.413 0 0 0-.386.405 2.344 2.508 0 0 0 .149.928l-1.546.955v-1.91a2.343 2.506 0 0 0 .826-.325.386.413 0 0 0-.399-.707 1.572 1.681 0 0 1-.427.19v-.625a.386.413 0 0 0-.772 0v.625a1.572 1.681 0 0 1-.428-.19.386.413 0 1 0-.398.707 2.343 2.506 0 0 0 .826.326V81.9l-1.546-.955a2.344 2.508 0 0 0 .15-.928.386.413 0 0 0-.386-.406h-.008a.386.413 0 0 0-.379.421 1.575 1.685 0 0 1-.06.492l-.596-.368a.386.413 0 1 0-.386.715l.596.369a1.575 1.685 0 0 1-.367.3.386.413 0 1 0 .373.723 2.345 2.508 0 0 0 .677-.602l1.546.954-1.546.955a2.345 2.508 0 0 0-.676-.603.386.413 0 1 0-.374.723 1.575 1.685 0 0 1 .368.3l-.597.371a.386.413 0 1 0 .386.715l.596-.368a1.575 1.685 0 0 1 .06.49.386.413 0 0 0 .38.42h.006a.386.413 0 0 0 .386-.405 2.344 2.508 0 0 0-.149-.927l1.546-.955v1.909a2.343 2.506 0 0 0-.826.325.386.413 0 1 0 .398.708 1.572 1.681 0 0 1 .428-.19v.624a.386.413 0 0 0 .772 0v-.624a1.572 1.681 0 0 1 .427.19.386.413 0 0 0 .399-.708 2.343 2.506 0 0 0-.826-.325v-1.91l1.546.956a2.344 2.508 0 0 0-.15.928.386.413 0 0 0 .386.405h.008a.386.413 0 0 0 .379-.42 1.575 1.685 0 0 1 .06-.492l.596.368a.386.413 0 1 0 .386-.714z"/><path fill="url(#n)" stroke="url(#n)" stroke-width=".648" d="m75.565 84.822-.754-.466a1.985 2.124 0 0 1 .464-.38.488.522 0 0 0-.471-.913 2.963 3.17 0 0 0-.855.761l-1.954-1.208 1.953-1.207a2.96 3.166 0 0 0 .855.762.488.522 0 1 0 .472-.914 1.99 2.129 0 0 1-.464-.38l.754-.465a.488.522 0 1 0-.488-.904l-.754.466a1.99 2.129 0 0 1-.076-.62.488.522 0 0 0-.478-.534h-.01a.488.522 0 0 0-.487.512 2.963 3.17 0 0 0 .188 1.172l-1.953 1.208v-2.413a2.96 3.167 0 0 0 1.044-.411.488.522 0 0 0-.504-.894 1.986 2.125 0 0 1-.54.24v-.79a.488.522 0 0 0-.976 0v.79a1.986 2.125 0 0 1-.54-.24.488.522 0 1 0-.503.894 2.96 3.167 0 0 0 1.043.41v2.414l-1.953-1.208a2.963 3.17 0 0 0 .189-1.172.488.522 0 0 0-.488-.512h-.01a.488.522 0 0 0-.478.531 1.99 2.129 0 0 1-.076.622l-.754-.465a.488.522 0 1 0-.488.904l.754.466a1.99 2.129 0 0 1-.464.38.488.522 0 1 0 .472.913 2.963 3.17 0 0 0 .855-.762l1.954 1.207-1.954 1.206a2.963 3.17 0 0 0-.855-.761.488.522 0 1 0-.472.913 1.99 2.129 0 0 1 .465.38l-.755.468a.488.522 0 1 0 .488.904l.754-.466a1.99 2.129 0 0 1 .076.62.488.522 0 0 0 .479.531h.009a.488.522 0 0 0 .487-.512 2.963 3.17 0 0 0-.188-1.172l1.953-1.207v2.413a2.96 3.167 0 0 0-1.043.41.488.522 0 1 0 .503.895 1.986 2.125 0 0 1 .54-.24v.79a.488.522 0 0 0 .976 0v-.79a1.986 2.125 0 0 1 .54.24.488.522 0 0 0 .504-.894 2.96 3.167 0 0 0-1.044-.411V83.52l1.953 1.207a2.963 3.17 0 0 0-.189 1.173.488.522 0 0 0 .488.512h.01a.488.522 0 0 0 .479-.532 1.99 2.129 0 0 1 .075-.621l.754.466a.488.522 0 1 0 .488-.903z"/></svg>