<svg xmlns="http://www.w3.org/2000/svg" xmlns:xlink="http://www.w3.org/1999/xlink" width="100" height="100"><defs><radialGradient xlink:href="#a" id="d" cx="18.43" cy="63.752" r="1.645" gradientTransform="translate(-13.117 -36.864)scale(1.625)" gradientUnits="userSpaceOnUse"/><radialGradient xlink:href="#a" id="e" cx="18.43" cy="63.752" r="1.645" gradientTransform="translate(19.041 -36.864)scale(1.625)" gradientUnits="userSpaceOnUse"/><radialGradient xlink:href="#a" id="f" cx="18.43" cy="63.752" r="1.645" gradientTransform="translate(51.201 -36.864)scale(1.625)" gradientUnits="userSpaceOnUse"/><radialGradient xlink:href="#a" id="g" cx="18.43" cy="63.752" r="1.645" gradientTransform="translate(30.553 -21.133)scale(1.625)" gradientUnits="userSpaceOnUse"/><radialGradient xlink:href="#a" id="h" cx="18.43" cy="63.752" r="1.645" gradientTransform="translate(3.825 -21.133)scale(1.625)" gradientUnits="userSpaceOnUse"/><linearGradient id="a"><stop offset="0" stop-color="#f8fafd"/><stop offset="1" stop-color="#94b7e9" stop-opacity=".996"/></linearGradient><linearGradient id="c" x1="47.158" x2="47.224" y1="14.736" y2="58.223" gradientUnits="userSpaceOnUse"><stop offset="0" stop-color="#eeefef"/><stop offset="1" stop-color="#717a8d"/></linearGradient><linearGradient id="b" x1="51.401" x2="50.552" y1=".076" y2="44.271" gradientUnits="userSpaceOnUse"><stop offset="0" stop-color="#f2f2f3"/><stop offset="1" stop-color="#6f7478"/></linearGradient></defs><path fill="url(#b)" d="M6.402 44.626h89.667s10.206-13.457-3.62-26.023C78.876 6.267 64.89 15.871 64.89 15.871S56.281-3.506 39.978 1.15c-16.303 4.659-17.61 18.137-17.61 18.137S5.86 19.623 3.142 29.91s3.26 14.717 3.26 14.717z"/><path fill="url(#c)" d="M3.927 58.796h89.667s11.232-13.192.27-28.321c-11.63-16.049-30.742-2.732-30.742-2.732s-9.316-17.08-25.619-12.421-17.079 19.02-17.079 19.02S3.384 33.793.667 44.08s3.26 14.717 3.26 14.717z"/><circle cx="16.831" cy="66.734" r="2.445" fill="url(#d)" style="paint-order:stroke fill markers"/><circle cx="48.99" cy="66.734" r="2.445" fill="url(#e)" style="paint-order:stroke fill markers"/><circle cx="81.149" cy="66.734" r="2.445" fill="url(#f)" style="paint-order:stroke fill markers"/><circle cx="60.502" cy="82.465" r="2.445" fill="url(#g)" style="paint-order:stroke fill markers"/><circle cx="33.773" cy="82.465" r="2.445" fill="url(#h)" style="paint-order:stroke fill markers"/></svg>