<svg fill="white" viewBox="0 0 512 512" xmlns="http://www.w3.org/2000/svg"><path d="M270.397 234.64c59.287 0 107.35-48.049 107.35-107.32 0-59.271-48.063-107.32-107.35-107.32-59.288 0-107.35 48.049-107.35 107.32 0 59.271 48.062 107.32 107.35 107.32ZM404.867 290.98a108.434 108.434 0 0 0-70.91-33.45 1251.408 1251.408 0 0 0-157.57 0 106.851 106.851 0 0 0-69.79 33.05 100.61 100.61 0 0 0-27.59 70.4c0 81.77 94.5 127.06 178.71 129.74h6.08c82.16 4.63 169.16-40.03 169.16-119.87v-8.37a102.125 102.125 0 0 0-28.09-71.5Z" class="fill-000000"></path></svg>