<?xml version="1.0" encoding="UTF-8"?>
<svg width="19" height="19" fill="none" version="1.1" viewBox="0 0 19 19" xmlns="http://www.w3.org/2000/svg">
 <path d="m2.7813 10.282 12.354 8.5528c0.14261 0.09867 0.30934 0.15641 0.48244 0.16709 0.1731 0.01068 0.34571-0.02629 0.49924-0.10671 0.15365-0.08043 0.28221-0.20142 0.372-0.34979 0.08979-0.14825 0.13732-0.31834 0.13732-0.49168v-17.106c1.2e-4 -0.17346-0.047175-0.34363-0.13696-0.49209-0.089669-0.14846-0.21835-0.26953-0.37188-0.3501-0.15365-0.08057-0.32638-0.11757-0.49948-0.10698-0.1731 0.010599-0.34007 0.068362-0.48268 0.16706l-12.354 8.5528c-0.12586 0.087844-0.22865 0.20477-0.29962 0.34086-0.070979 0.13608-0.10805 0.28729-0.10805 0.44077s0.037068 0.30469 0.10805 0.44077c0.070967 0.13609 0.17376 0.25307 0.29962 0.34081z" fill="#fff" stroke-width="1.2004"/>
</svg>
