<?xml version="1.0" encoding="UTF-8" standalone="no"?>
<svg
   width="30"
   height="30"
   viewBox="0 0 30 30"
   fill="none"
   version="1.1"
   id="svg1"
   xmlns="http://www.w3.org/2000/svg"
   xmlnssvg="http://www.w3.org/2000/svg">
  <defs
     id="defs1" />
  <path
     d="M 23.914853,1.6276861 V 0.14186564 H 6.0851092 V 1.6276861 c -1.5762557,0 -3.0879421,0.6261569 -4.2025207,1.7407355 -1.11457869,1.1145787 -1.74074833,2.6262778 -1.74074833,4.2025335 0,1.576243 0.62616964,3.0879289 1.74074833,4.2025459 1.1145786,1.11449 2.626265,1.740698 4.2025207,1.740698 h 1.2035111 c 0.6562638,1.133847 1.5543505,2.109137 2.6303532,2.85646 1.0760285,0.747323 2.3036095,1.24834 3.5952505,1.467265 v 3.105313 H 7.8978007 L 5.6690764,29.858134 H 24.330924 l -2.228725,-8.914897 h -5.616385 v -3.105313 c 1.291641,-0.218925 2.519223,-0.719942 3.595251,-1.467265 1.076028,-0.747323 1.974013,-1.722613 2.630276,-2.85646 h 1.203512 c 1.576281,0 3.087993,-0.626208 4.202609,-1.740698 1.11449,-1.114617 1.740698,-2.6263029 1.740698,-4.2025459 0,-1.5762557 -0.626208,-3.0879548 -1.740698,-4.2025335 C 27.002846,2.253843 25.491134,1.6276861 23.914853,1.6276861 Z M 6.0851092,10.542609 c -0.7881279,0 -1.543971,-0.313168 -2.1012667,-0.8703999 C 3.4265595,9.1149261 3.113481,8.3590702 3.113481,7.5709551 c 0,-0.7881278 0.3130785,-1.543971 0.8703615,-2.1012667 0.5572957,-0.557283 1.3131388,-0.8703742 2.1012667,-0.8703742 v 4.4574486 c -0.00107,0.49833 0.043696,0.9956542 0.1337235,1.4858462 z M 26.009853,9.6659559 c -0.554634,0.5580091 -1.30807,0.8733411 -2.095,0.8766531 h -0.133724 c 0.09004,-0.490192 0.13487,-0.9875162 0.133724,-1.4858462 V 4.5993142 c 0.788204,0 1.54406,0.3130912 2.101368,0.8703742 0.557181,0.5572957 0.870349,1.3131389 0.870349,2.1012667 -0.0033,0.7868543 -0.318644,1.540265 -0.876717,2.0950008 z"
     fill="currentcolor"
     id="path1"
     style="stroke-width:1.27356" />
</svg>
