<?xml version="1.0" encoding="UTF-8" standalone="no"?>
<svg
   width="30"
   height="30"
   viewBox="0 0 30 30"
   fill="none"
   version="1.1"
   id="svg4"
   xmlns="http://www.w3.org/2000/svg"
   xmlnssvg="http://www.w3.org/2000/svg">
  <defs
     id="defs4" />
  <g
     id="g4"
     transform="matrix(1.0056973,0,0,1.0056973,-0.20194875,-0.85129391)">
    <path
       d="M 15.11583,4.6477909 V 2.5365332 M 1.213573,4.6477909 H 29.018086 M 16.185234,21.537853 19.92815,28.39944"
       stroke="currentcolor"
       stroke-width="1.99285"
       stroke-miterlimit="10"
       stroke-linecap="round"
       stroke-linejoin="round"
       id="path1" />
    <path
       d="M 1.213573,4.6477909 V 21.537853 c 0,0.559905 0.225335,1.096903 0.626447,1.49287 0.401101,0.395967 0.945118,0.618388 1.512362,0.618388 h 23.526897 c 0.567211,0 1.111217,-0.222421 1.512351,-0.618388 0.401134,-0.395967 0.626456,-0.932965 0.626456,-1.49287 V 4.6477909 Z m 23.21356,6.0244751 -6.416425,6.333772 c -0.09924,0.09807 -0.217089,0.175973 -0.346808,0.229071 -0.129719,0.0531 -0.268848,0.08044 -0.409261,0.08044 -0.140414,0 -0.279542,-0.02735 -0.40926,-0.08044 -0.12972,-0.0531 -0.247568,-0.131002 -0.34681,-0.229071 l -2.452143,-2.420557 -3.521549,3.476186 c -0.09914,0.09839 -0.216875,0.176396 -0.346594,0.229704 -0.129826,0.05331 -0.268955,0.08066 -0.409475,0.08066 -0.14053,0 -0.27967,-0.02735 -0.409421,-0.08066 C 9.229625,18.238061 9.11182,18.160051 9.012739,18.061667 L 6.873931,15.950409 c -0.09928,-0.09796 -0.178045,-0.214398 -0.231783,-0.342446 -0.05374,-0.128049 -0.08139,-0.265279 -0.08139,-0.403884 0,-0.279952 0.112651,-0.548398 0.313175,-0.746329 0.200524,-0.19793 0.472484,-0.309194 0.756069,-0.309194 0.283584,0 0.555544,0.111264 0.756069,0.309194 l 1.382739,1.364928 3.52155,-3.476185 c 0.09924,-0.09807 0.217089,-0.175974 0.346808,-0.229073 0.129718,-0.0531 0.268848,-0.08043 0.409261,-0.08043 0.140413,0 0.279542,0.02735 0.409261,0.08043 0.129717,0.0531 0.247566,0.131004 0.346807,0.229073 l 2.452145,2.420556 5.660357,-5.587443 c 0.200514,-0.197941 0.472463,-0.309141 0.756069,-0.309141 0.283606,0 0.555555,0.1112 0.756068,0.309141 0.200514,0.197941 0.313123,0.466398 0.313123,0.746329 0,0.279953 -0.112609,0.548399 -0.313123,0.746331 z"
       fill="currentcolor"
       id="path2"
       style="stroke-width:1.06249" />
    <path
       d="m 19.92815,29.982884 c 0.885894,0 1.604106,-0.708961 1.604106,-1.583444 0,-0.874482 -0.718212,-1.583443 -1.604106,-1.583443 -0.885895,0 -1.604108,0.708961 -1.604108,1.583443 0,0.874483 0.718213,1.583444 1.604108,1.583444 z"
       fill="currentcolor"
       id="path3"
       style="stroke-width:1.06249" />
    <path
       d="m 10.30351,29.982884 c 0.885895,0 1.604108,-0.708961 1.604108,-1.583444 0,-0.874482 -0.718213,-1.583443 -1.604108,-1.583443 -0.885926,0 -1.604106,0.708961 -1.604106,1.583443 0,0.874483 0.71818,1.583444 1.604106,1.583444 z"
       fill="currentcolor"
       id="path4"
       style="stroke-width:1.06249" />
  </g>
</svg>
