<?xml version="1.0" encoding="UTF-8" standalone="no"?>
<svg
   width="30"
   height="30"
   viewBox="0 0 30 30"
   fill="none"
   version="1.1"
   id="svg6"
   xmlns="http://www.w3.org/2000/svg"
   xmlnssvg="http://www.w3.org/2000/svg">
  <defs
     id="defs6" />
  <g
     id="g6"
     transform="matrix(1.1804604,0,0,1.1804604,-5.4310301,-5.4310301)">
    <path
       d="M 30,30 H 25.3846 V 15 c 0,-0.306 0.1216,-0.5995 0.3379,-0.8159 0.2164,-0.2164 0.5099,-0.338 0.8159,-0.338 h 2.3077 c 0.306,0 0.5995,0.1216 0.8159,0.338 C 29.8784,14.4005 30,14.694 30,15 Z m -6.9231,0 H 18.4615 V 19.6154 c 0,-0.3061 0.1216,-0.5995 0.338,-0.8159 0.2164,-0.2164 0.5098,-0.338 0.8159,-0.338 h 2.3076 c 0.3061,0 0.5996,0.1216 0.8159,0.338 0.2164,0.2164 0.338,0.5098 0.338,0.8159 z m -6.9231,0 H 11.5384 V 17.3077 c 0,-0.3061 0.1216,-0.5995 0.338,-0.8159 0.2164,-0.2164 0.5099,-0.338 0.8159,-0.338 H 15 c 0.306,0 0.5995,0.1216 0.8159,0.338 0.2164,0.2164 0.3379,0.5098 0.3379,0.8159 z M 9.23074,30 H 4.61536 v -8.0769 c 0,-0.3061 0.12156,-0.5996 0.33795,-0.8159 0.21639,-0.2164 0.50987,-0.338 0.81589,-0.338 h 2.30769 c 0.30602,0 0.59951,0.1216 0.8159,0.338 0.21639,0.2163 0.33795,0.5098 0.33795,0.8159 z"
       fill="currentcolor"
       id="path1" />
    <path
       d="M 27.6923,9.23074 C 28.9668,9.23074 30,8.19755 30,6.92305 30,5.64855 28.9668,4.61536 27.6923,4.61536 c -1.2745,0 -2.3077,1.03319 -2.3077,2.30769 0,1.2745 1.0332,2.30769 2.3077,2.30769 z"
       fill="currentcolor"
       id="path2" />
    <path
       d="m 20.7692,15 c 1.2745,0 2.3077,-1.0332 2.3077,-2.3077 0,-1.2745 -1.0332,-2.3077 -2.3077,-2.3077 -1.2745,0 -2.3077,1.0332 -2.3077,2.3077 0,1.2745 1.0332,2.3077 2.3077,2.3077 z"
       fill="currentcolor"
       id="path3" />
    <path
       d="m 13.8461,11.5385 c 1.2745,0 2.3077,-1.0332 2.3077,-2.30771 0,-1.27451 -1.0332,-2.30769 -2.3077,-2.30769 -1.2745,0 -2.3076,1.03318 -2.3076,2.30769 0,1.27451 1.0331,2.30771 2.3076,2.30771 z"
       fill="currentcolor"
       id="path4" />
    <path
       d="m 6.92305,16.1538 c 1.2745,0 2.30769,-1.0332 2.30769,-2.3077 0,-1.2745 -1.03319,-2.3076 -2.30769,-2.3076 -1.2745,0 -2.30769,1.0331 -2.30769,2.3076 0,1.2745 1.03319,2.3077 2.30769,2.3077 z"
       fill="currentcolor"
       id="path5" />
    <path
       d="m 6.9231,13.8462 6.9231,-4.61541 6.923,3.46151 6.9231,-5.7692"
       stroke="currentcolor"
       stroke-width="2"
       stroke-miterlimit="10"
       stroke-linecap="round"
       stroke-linejoin="round"
       id="path6" />
  </g>
</svg>
