<svg width="12" height="15" viewBox="0 0 12 15" fill="none" xmlns="http://www.w3.org/2000/svg">
<path d="M7.00004 2.46166C6.9982 2.73036 7.06789 2.99441 7.2015 3.22499C7.33376 3.45823 7.52187 3.65244 7.74777 3.78899C7.97298 3.9279 8.23058 4.00084 8.49292 3.99999C8.75693 4.00042 9.01619 3.92754 9.24355 3.78899C9.47166 3.65337 9.66186 3.45906 9.79563 3.22499C9.93123 2.98733 10 2.735 10 2.46166C10 2.28366 9.95093 2.07266 9.85052 1.82633C9.75339 1.58596 9.63186 1.35691 9.48795 1.143C9.34427 0.952017 9.1946 0.765918 9.03918 0.584999C8.86678 0.382999 8.56459 0.0713332 8.49582 0L8.12777 0.383333C7.93881 0.573018 7.76648 0.779602 7.61281 1.00066C7.44662 1.23827 7.30304 1.49189 7.18406 1.758C7.0575 2.028 7.00004 2.26266 7.00004 2.46166Z" fill="currentcolor"/>
<path d="M11 4.70495L10.94 4.07495L10.34 4.27495C9.31174 4.63222 8.21366 4.74186 7.13503 4.59495C6.0016 4.41906 4.84149 4.57536 3.79503 5.04495C3.24027 5.28117 2.75341 5.65241 2.37877 6.12486C2.00413 6.5973 1.75361 7.15596 1.65003 7.74995C1.51572 8.5173 1.58291 9.30636 1.84503 10.04C2.01381 9.659 2.21103 9.29129 2.43503 8.93995C2.94313 8.19237 3.64717 7.59904 4.47003 7.22495C5.26275 6.86301 6.12922 6.69177 7.00003 6.72495C6.17104 6.8517 5.37753 7.14969 4.67003 7.59995C4.32877 7.81438 4.01625 8.07145 3.74003 8.36495C3.47586 8.65831 3.24294 8.97837 3.04503 9.31995C2.67329 10.034 2.40879 10.7988 2.26003 11.59C2.09969 12.3836 2.01265 13.1903 2.00003 14H3.00003C3.04703 13.2739 3.14561 12.552 3.29503 11.84C3.98875 12.2146 4.76671 12.4056 5.55503 12.395C6.29027 12.3944 7.01794 12.2465 7.69503 11.96C11.5 10.335 11 4.92995 11 4.70495Z" fill="currentcolor"/>
</svg>
