<?xml version="1.0" encoding="UTF-8" standalone="no"?>
<svg
   width="30"
   height="30"
   viewBox="0 0 30 30"
   fill="none"
   version="1.1"
   id="svg3"
   xmlns="http://www.w3.org/2000/svg"
   xmlnsSvg="http://www.w3.org/2000/svg">
  <defs
     id="defs3" />
  <g
     id="g3"
     transform="matrix(1.1791593,0,0,1.1791593,-1.4107555,-2.1431305)">
    <path
       d="m 17.3846,15.6923 c 0.0018,-0.6351 -0.1711,-1.2583 -0.4999,-1.8016 -0.3287,-0.5434 -0.8005,-0.9858 -1.3639,-1.2789 -0.5633,-0.2931 -1.1964,-0.4256 -1.83,-0.383 -0.6336,0.0426 -1.2432,0.2587 -1.7622,0.6246 -0.5191,0.3659 -0.9274,0.8675 -1.1804,1.45 -0.253,0.5824 -0.3409,1.2232 -0.2541,1.8523 0.0867,0.6291 0.3449,1.2221 0.7462,1.7143 0.4013,0.4921 0.9302,0.8644 1.5289,1.0761 v 4.8231 h -2.3077 v 2.3077 h 6.9231 v -2.3077 h -2.3077 v -4.8231 c 0.6734,-0.238 1.2566,-0.6785 1.6697,-1.2611 0.4132,-0.5825 0.636,-1.2786 0.638,-1.9927 z"
       fill="currentcolor"
       id="path1" />
    <path
       d="m 19.6231,21.4615 c 0.7632,-0.7528 1.367,-1.6516 1.7753,-2.6428 0.4084,-0.9912 0.613,-2.0545 0.6016,-3.1264 0,-2.1422 -0.851,-4.1966 -2.3657,-5.71127 -1.5147,-1.51471 -3.5691,-2.36567 -5.7112,-2.36567 -2.1422,0 -4.19655,0.85096 -5.71127,2.36567 -1.51472,1.51467 -2.36568,3.56907 -2.36568,5.71127 -0.01138,1.0719 0.19321,2.1352 0.60158,3.1264 0.40837,0.9912 1.01215,1.89 1.77535,2.6428 L 9.85,19.823 C 9.30326,19.2845 8.87114,18.641 8.57965,17.9311 8.28815,17.2212 8.14331,16.4596 8.15385,15.6923 c 0,-1.5301 0.60782,-2.9975 1.68976,-4.0795 1.08199,-1.0819 2.54939,-1.68975 4.07949,-1.68975 1.5301,0 2.9975,0.60785 4.0794,1.68975 1.082,1.082 1.6898,2.5494 1.6898,4.0795 0.0043,0.7568 -0.1425,1.5069 -0.4318,2.2063 -0.2892,0.6994 -0.7152,1.3341 -1.2528,1.8668 z"
       fill="currentcolor"
       id="path2" />
    <path
       d="M 13.9231,2.99997 C 11.4122,2.99914 8.95743,3.74308 6.86942,5.13767 4.7814,6.53226 3.15395,8.51484 2.19295,10.8346 c -0.961,2.3197 -1.212356,4.8724 -0.72227,7.335 0.49008,2.4626 1.69959,4.7245 3.47549,6.4996 L 6.57309,23.0423 C 5.12111,21.5898 4.13241,19.7395 3.73199,17.7251 3.33158,15.7108 3.53742,13.623 4.32351,11.7256 5.1096,9.8283 6.44062,8.20664 8.14829,7.06572 9.85596,5.92479 11.8636,5.31583 13.9173,5.31583 c 2.0538,0 4.0614,0.60896 5.7691,1.74989 1.7076,1.14092 3.0386,2.76258 3.8247,4.65988 0.7861,1.8974 0.992,3.9852 0.5915,5.9995 -0.4004,2.0144 -1.3891,3.8647 -2.841,5.3172 l 1.6269,1.6269 c 1.7752,-1.7744 2.9844,-4.0352 3.4749,-6.4968 0.4905,-2.4615 0.2401,-5.0132 -0.7195,-7.3325 C 24.6843,8.52064 23.0587,6.53794 20.9724,5.14247 18.8862,3.74701 16.433,3.00142 13.9231,2.99997 Z"
       fill="currentcolor"
       id="path3" />
  </g>
</svg>
