<svg width="14" height="14" viewBox="0 0 14 14" fill="none" xmlns="http://www.w3.org/2000/svg">
<g clip-path="url(#clip0_38_123)">
<path d="M7.00004 0.333374C3.32404 0.333374 0.333374 3.32404 0.333374 7.00004C0.333374 10.676 3.32404 13.6667 7.00004 13.6667C10.676 13.6667 13.6667 10.676 13.6667 7.00004C13.6667 3.32404 10.676 0.333374 7.00004 0.333374ZM9.00004 9.00004L3.66671 10.3334L5.00004 5.00004L10.3334 3.66671L9.00004 9.00004Z" fill="currentcolor"/>
<path d="M6.99996 8.33329C7.73634 8.33329 8.33329 7.73634 8.33329 6.99996C8.33329 6.26358 7.73634 5.66663 6.99996 5.66663C6.26358 5.66663 5.66663 6.26358 5.66663 6.99996C5.66663 7.73634 6.26358 8.33329 6.99996 8.33329Z" fill="currentcolor"/>
</g>
<defs>
<clipPath id="clip0_38_123">
<rect width="14" height="14" fill="currentcolor"/>
</clipPath>
</defs>
</svg>
