<svg width="100" height="100" version="1.1" viewBox="0 0 100 100" xmlns="http://www.w3.org/2000/svg" xmlns:xlink="http://www.w3.org/1999/xlink">
 <defs>
  <linearGradient id="b" x1="34.884" x2="57.422" y1="26.565" y2="73.305" gradientUnits="userSpaceOnUse">
   <stop stop-color="#fea" offset="0"/>
   <stop stop-color="#ffd121" offset="1"/>
  </linearGradient>
  <linearGradient id="a" x1="67.942" x2="65.749" y1="87.164" y2="58.391" gradientUnits="userSpaceOnUse">
   <stop stop-color="#dedede" offset="0"/>
   <stop stop-color="#fbfbfb" offset="1"/>
  </linearGradient>
  <filter id="c" x="-.072727" y="-.16212" width="1.1455" height="1.3242" color-interpolation-filters="sRGB">
   <feGaussianBlur result="blur" stdDeviation="2 2"/>
  </filter>
 </defs>
 <circle cx="49.966" cy="49.935" r="28.243" fill="url(#b)"/>
 <path d="m35.777 86.546h59.955s7.5104-8.8209 0.18038-18.937c-7.7754-10.731-20.555-1.8268-20.555-1.8268s-6.2291-11.42-17.13-8.3055c-10.901 3.1146-11.42 12.718-11.42 12.718s-11.393-0.36685-13.21 6.5112c-1.8168 6.878 2.1796 9.8403 2.1796 9.8403z" fill-opacity=".26619" filter="url(#c)"/>
 <g fill="#ffdb4a" stroke="#fea" stroke-linecap="round" stroke-width="4.1566">
  <path d="m97.922 49.984-11.819 0.0122"/>
  <path d="m83.875 16.101-8.349 8.3662"/>
  <path d="m49.984 2.0756 0.0122 11.819"/>
  <path d="m16.101 16.122 8.3662 8.349"/>
  <path d="m2.0752 50.014 11.819-0.0122"/>
  <path d="m16.122 83.896 8.349-8.3662"/>
  <path d="m83.896 83.875-8.3662-8.349"/>
 </g>
 <path d="m35.777 86.546h59.955s7.5104-8.8209 0.18038-18.937c-7.7754-10.731-20.555-1.8268-20.555-1.8268s-6.2291-11.42-17.13-8.3055c-10.901 3.1146-11.42 12.718-11.42 12.718s-11.393-0.36685-13.21 6.5112c-1.8168 6.878 2.1796 9.8403 2.1796 9.8403z" fill="url(#a)"/>
</svg>
