<svg width="100" height="100" version="1.1" viewBox="0 0 100 100" xmlns="http://www.w3.org/2000/svg">
 <defs>
  <linearGradient id="linearGradient2" x1="21.723" x2="78.209" y1="49.935" y2="49.935" gradientUnits="userSpaceOnUse">
   <stop stop-color="#fea" offset="0"/>
   <stop stop-color="#ffd121" offset="1"/>
  </linearGradient>
  <linearGradient id="linearGradient4" x1="67.025" x2="67.258" y1="58.238" y2="86.609" gradientTransform="matrix(1.2702 0 0 1.2702 -29.867 -22.885)" gradientUnits="userSpaceOnUse">
   <stop stop-color="#fefefe" offset="0"/>
   <stop stop-color="#bebebe" offset="1"/>
  </linearGradient>
 </defs>
 <circle cx="49.966" cy="49.935" r="28.243" fill="url(#linearGradient2)"/>
 <g fill="#ffdb4a" stroke="#fea" stroke-linecap="round" stroke-width="4.1566">
  <path d="m97.922 49.984-11.819 0.0122"/>
  <path d="m83.875 16.101-8.349 8.3662"/>
  <path d="m49.984 2.0756 0.0122 11.819"/>
  <path d="m16.101 16.122 8.3662 8.349"/>
  <path d="m2.0752 50.014 11.819-0.0122"/>
 </g>
 <path d="m15.577 87.046h76.155s9.5397-11.204 0.22911-24.054c-9.8764-13.63-26.109-2.3204-26.109-2.3204s-7.9123-14.506-21.759-10.55c-13.846 3.9561-14.506 16.154-14.506 16.154s-14.472-0.46597-16.78 8.2705c-2.3077 8.7365 2.7685 12.499 2.7685 12.499z" fill="url(#linearGradient4)"/>
</svg>
