<svg width="100" height="100" version="1.1" viewBox="0 0 100 100" xmlns="http://www.w3.org/2000/svg">
 <defs>
  <linearGradient id="linearGradient4" x1="35.408" x2="95.839" y1="71.743" y2="71.743" gradientTransform="matrix(1.4956 0 0 1.4956 -49.58 -47.389)" gradientUnits="userSpaceOnUse">
   <stop stop-color="#f1f1f1" offset="0"/>
   <stop stop-color="#9d9d9d" offset="1"/>
  </linearGradient>
  <linearGradient id="linearGradient1" x1="65.522" x2="64.498" y1="57.265" y2="86.874" gradientTransform="matrix(1.4956 0 0 1.4956 -47.105 -61.559)" gradientUnits="userSpaceOnUse">
   <stop stop-color="#d2d2d2" offset="0"/>
   <stop stop-color="#565656" offset="1"/>
  </linearGradient>
 </defs>
 <path d="m6.4015 67.876h89.667s10.207-13.457-3.6193-26.023c-13.573-12.336-27.559-2.7321-27.559-2.7321s-8.6089-19.377-24.912-14.719c-16.303 4.658-17.61 18.136-17.61 18.136s-16.509 0.33524-19.226 10.622c-2.7172 10.286 3.2597 14.717 3.2597 14.717z" fill="url(#linearGradient1)"/>
 <path d="m3.9266 82.046h89.667s11.232-13.192 0.26976-28.321c-11.629-16.049-30.741-2.7321-30.741-2.7321s-9.316-17.079-25.619-12.421-17.079 19.02-17.079 19.02-17.04-0.54864-19.757 9.7378c-2.7172 10.286 3.2597 14.717 3.2597 14.717z" fill="url(#linearGradient4)"/>
</svg>
