<svg width="512px" height="512px" enable-background="new 0 0 512 512" version="1.1" viewBox="0 0 512 512" xml:space="preserve" xmlns="http://www.w3.org/2000/svg" xmlns:xlink="http://www.w3.org/1999/xlink"><defs><linearGradient id="a"><stop stop-color="#5fbcd3" offset="0"/><stop stop-color="#95d2e3" offset="1"/></linearGradient><linearGradient id="d" x1=".4504" x2="511.55" y1="122.78" y2="122.78" gradientUnits="userSpaceOnUse" xlink:href="#a"/><linearGradient id="c" x1=".4504" x2="250.06" y1="211.93" y2="211.93" gradientUnits="userSpaceOnUse" xlink:href="#a"/><linearGradient id="b" x1=".4504" x2="250.06" y1="301.07" y2="301.07" gradientUnits="userSpaceOnUse" xlink:href="#a"/><linearGradient id="g" x1=".4504" x2="511.55" y1="390.22" y2="390.22" gradientUnits="userSpaceOnUse" xlink:href="#a"/><linearGradient id="f" x1="261.94" x2="511.55" y1="211.93" y2="211.93" gradientUnits="userSpaceOnUse"><stop stop-color="#95d2e3" offset="0"/><stop stop-color="#5fbcd3" offset="1"/></linearGradient><linearGradient id="e" x1="261.94" x2="511.55" y1="301.07" y2="301.07" gradientUnits="userSpaceOnUse"><stop stop-color="#95d2e3" offset="0"/><stop stop-color="#5fbcd3" offset="1"/></linearGradient></defs><g style="paint-order:stroke fill markers"><g fill="#0cf" stroke-linecap="round" stroke-miterlimit="10" stroke-width="35.658"><line x1="18.279" x2="493.72" y1="122.78" y2="122.78" stroke="url(#d)" style="paint-order:stroke fill markers"/><g stroke-linejoin="round"><line x1="18.279" x2="232.23" y1="211.93" y2="211.93" stroke="url(#c)" style="paint-order:stroke fill markers"/><line x1="18.279" x2="232.23" y1="301.07" y2="301.07" stroke="url(#b)" style="paint-order:stroke fill markers"/><line x1="18.279" x2="493.72" y1="390.22" y2="390.22" stroke="url(#g)" style="paint-order:stroke fill markers"/><line x1="279.77" x2="493.72" y1="211.93" y2="211.93" stroke="url(#f)" style="paint-order:stroke fill markers"/><line x1="279.77" x2="493.72" y1="301.07" y2="301.07" stroke="url(#e)" style="paint-order:stroke fill markers"/></g></g><path d="m305.13 451.38h147.66a13.862 13.862 0 0 0 12.203-20.434l-73.826-137.11c-5.2374-9.721-19.178-9.721-24.415 0l-73.826 137.11a13.862 13.862 0 0 0 12.203 20.434z" fill="#fff" stroke="#ff5f5f" stroke-linecap="round" stroke-linejoin="round" stroke-width="50"/><path class="cls-1" d="m415.12 385.7h-21.633l15.607-15.306a6.026 6.026 0 0 0-8.4966-8.4966l-15.607 15.306v-21.633a6.026 6.026 0 0 0-12.052 0v21.633l-15.306-15.306a6.026 6.026 0 0 0-8.4966 8.4966l15.306 15.306h-21.633a6.026 6.026 0 0 0 0 12.052h21.633l-15.306 15.306a6.026 6.026 0 0 0 0 8.4966 6.026 6.026 0 0 0 4.2784 1.7475 6.026 6.026 0 0 0 4.2182-1.7475l15.306-15.306v21.633a6.026 6.026 0 0 0 12.052 0v-21.633l15.306 15.607a6.026 6.026 0 0 0 4.2182 1.7476 6.026 6.026 0 0 0 4.5797-1.7476 6.026 6.026 0 0 0 0-8.4966l-15.607-15.607h21.633a6.026 6.026 0 0 0 0-12.052z" fill="#2893ea" stroke-width="320.58"/></g></svg>
