<svg width="100" height="100" version="1.1" viewBox="0 0 100 100" xmlns="http://www.w3.org/2000/svg" xmlns:xlink="http://www.w3.org/1999/xlink">
 <defs>
  <linearGradient id="linearGradient234">
   <stop stop-color="#4d84ce" offset="0"/>
   <stop stop-color="#94b7e9" stop-opacity=".99608" offset="1"/>
  </linearGradient>
  <linearGradient id="linearGradient166" x1="83.557" x2="88.242" y1="65.179" y2="65.179" gradientTransform="translate(-74.734 1.9919)" gradientUnits="userSpaceOnUse" xlink:href="#linearGradient234"/>
  <linearGradient id="linearGradient230" x1="47.158" x2="47.224" y1="14.736" y2="58.223" gradientUnits="userSpaceOnUse">
   <stop stop-color="#d6d8d9" offset="0"/>
   <stop stop-color="#737b8e" offset="1"/>
  </linearGradient>
  <linearGradient id="linearGradient232" x1="51.401" x2="50.552" y1=".076415" y2="44.271" gradientUnits="userSpaceOnUse">
   <stop stop-color="#ebeced" offset="0"/>
   <stop stop-color="#2f3133" offset="1"/>
  </linearGradient>
  <linearGradient id="linearGradient33" x1="83.557" x2="88.242" y1="65.179" y2="65.179" gradientTransform="translate(-56.942 1.9919)" gradientUnits="userSpaceOnUse" xlink:href="#linearGradient234"/>
  <linearGradient id="linearGradient34" x1="83.557" x2="88.242" y1="65.179" y2="65.179" gradientTransform="translate(-39.149 1.9919)" gradientUnits="userSpaceOnUse" xlink:href="#linearGradient234"/>
  <linearGradient id="linearGradient35" x1="83.557" x2="88.242" y1="65.179" y2="65.179" gradientTransform="translate(-21.357 1.9919)" gradientUnits="userSpaceOnUse" xlink:href="#linearGradient234"/>
  <linearGradient id="linearGradient36" x1="83.557" x2="88.242" y1="65.179" y2="65.179" gradientTransform="translate(-3.5645 1.9919)" gradientUnits="userSpaceOnUse" xlink:href="#linearGradient234"/>
  <linearGradient id="linearGradient37" x1="83.557" x2="88.242" y1="65.179" y2="65.179" gradientTransform="translate(-17.165 10.566)" gradientUnits="userSpaceOnUse" xlink:href="#linearGradient234"/>
  <linearGradient id="linearGradient38" x1="83.557" x2="88.242" y1="65.179" y2="65.179" gradientTransform="translate(-33.282 10.566)" gradientUnits="userSpaceOnUse" xlink:href="#linearGradient234"/>
  <linearGradient id="linearGradient39" x1="83.557" x2="88.242" y1="65.179" y2="65.179" gradientTransform="translate(-49.399 10.566)" gradientUnits="userSpaceOnUse" xlink:href="#linearGradient234"/>
  <linearGradient id="linearGradient40" x1="83.557" x2="88.242" y1="65.179" y2="65.179" gradientTransform="translate(-65.516 10.566)" gradientUnits="userSpaceOnUse" xlink:href="#linearGradient234"/>
  <linearGradient id="linearGradient41" x1="83.557" x2="88.242" y1="65.179" y2="65.179" gradientTransform="translate(-60.316 20.424)" gradientUnits="userSpaceOnUse" xlink:href="#linearGradient234"/>
  <linearGradient id="linearGradient42" x1="83.557" x2="88.242" y1="65.179" y2="65.179" gradientTransform="translate(-44.138 20.424)" gradientUnits="userSpaceOnUse" xlink:href="#linearGradient234"/>
  <linearGradient id="linearGradient43" x1="83.557" x2="88.242" y1="65.179" y2="65.179" gradientTransform="translate(-27.96 20.424)" gradientUnits="userSpaceOnUse" xlink:href="#linearGradient234"/>
  <linearGradient id="linearGradient20" x1="83.557" x2="88.242" y1="65.179" y2="65.179" gradientTransform="translate(-11.782 20.424)" gradientUnits="userSpaceOnUse" xlink:href="#linearGradient234"/>
  <linearGradient id="linearGradient21" x1="83.557" x2="88.242" y1="65.179" y2="65.179" gradientTransform="translate(-76.495 20.424)" gradientUnits="userSpaceOnUse" xlink:href="#linearGradient234"/>
 </defs>
 <path d="m6.4015 44.626h89.667s10.207-13.457-3.6193-26.023c-13.573-12.336-27.559-2.7321-27.559-2.7321s-8.6089-19.377-24.912-14.719c-16.303 4.658-17.61 18.136-17.61 18.136s-16.509 0.33524-19.226 10.622c-2.7172 10.286 3.2597 14.717 3.2597 14.717z" fill="url(#linearGradient232)"/>
 <path d="m3.9266 58.796h89.667s11.232-13.192 0.26976-28.321c-11.629-16.049-30.741-2.7321-30.741-2.7321s-9.316-17.079-25.619-12.421-17.079 19.02-17.079 19.02-17.04-0.54864-19.757 9.7378c-2.7172 10.286 3.2597 14.717 3.2597 14.717z" fill="url(#linearGradient230)"/>
 <g fill="none" stroke-linecap="round" stroke-linejoin="round" stroke-width="2.851">
  <g stroke-width="2.5">
   <path d="m10.819 67.105 2.6896-3.9912" stroke="url(#linearGradient166)" style="paint-order:stroke fill markers"/>
   <path d="m28.611 67.105 2.6896-3.9912" stroke="url(#linearGradient33)" style="paint-order:stroke fill markers"/>
   <path d="m46.403 67.105 2.6896-3.9912" stroke="url(#linearGradient34)" style="paint-order:stroke fill markers"/>
   <path d="m64.196 67.105 2.6896-3.9912" stroke="url(#linearGradient35)" style="paint-order:stroke fill markers"/>
   <path d="m81.988 67.105 2.6896-3.9912" stroke="url(#linearGradient36)" style="paint-order:stroke fill markers"/>
   <path d="m68.387 75.679 2.6896-3.9912" stroke="url(#linearGradient37)" style="paint-order:stroke fill markers"/>
   <path d="m52.27 75.679 2.6896-3.9912" stroke="url(#linearGradient38)" style="paint-order:stroke fill markers"/>
   <path d="m36.153 75.679 2.6896-3.9912" stroke="url(#linearGradient39)" style="paint-order:stroke fill markers"/>
   <path d="m20.036 75.679 2.6896-3.9912" stroke="url(#linearGradient40)" style="paint-order:stroke fill markers"/>
   <path d="m25.236 85.537 2.6896-3.9912" stroke="url(#linearGradient41)" style="paint-order:stroke fill markers"/>
   <path d="m41.415 85.537 2.6896-3.9912" stroke="url(#linearGradient42)" style="paint-order:stroke fill markers"/>
   <path d="m57.593 85.537 2.6896-3.9912" stroke="url(#linearGradient43)" style="paint-order:stroke fill markers"/>
   <path d="m73.771 85.537 2.6896-3.9912" stroke="url(#linearGradient20)" style="paint-order:stroke fill markers"/>
   <path d="m9.0583 85.537 2.6896-3.9912" stroke="url(#linearGradient21)" style="paint-order:stroke fill markers"/>
  </g>
 </g>
</svg>
