<svg width="100" height="100" version="1.1" viewBox="0 0 100 100" xml:space="preserve" xmlns="http://www.w3.org/2000/svg" xmlns:xlink="http://www.w3.org/1999/xlink"><defs><linearGradient id="a"><stop stop-color="#4d84ce" offset="0"/><stop stop-color="#94b7e9" stop-opacity=".99608" offset="1"/></linearGradient><linearGradient id="k" x1="83.557" x2="88.242" y1="65.179" y2="65.179" gradientTransform="translate(-74.734 1.9919)" gradientUnits="userSpaceOnUse" xlink:href="#a"/><linearGradient id="j" x1="47.158" x2="47.224" y1="14.736" y2="58.223" gradientUnits="userSpaceOnUse"><stop stop-color="#d6d8d9" offset="0"/><stop stop-color="#737b8e" offset="1"/></linearGradient><linearGradient id="i" x1="51.401" x2="50.552" y1=".076415" y2="44.271" gradientUnits="userSpaceOnUse"><stop stop-color="#ebeced" offset="0"/><stop stop-color="#2f3133" offset="1"/></linearGradient><linearGradient id="h" x1="83.557" x2="88.242" y1="65.179" y2="65.179" gradientTransform="translate(-39.149 1.9919)" gradientUnits="userSpaceOnUse" xlink:href="#a"/><linearGradient id="g" x1="83.557" x2="88.242" y1="65.179" y2="65.179" gradientTransform="translate(-3.5645 1.9919)" gradientUnits="userSpaceOnUse" xlink:href="#a"/><linearGradient id="f" x1="83.557" x2="88.242" y1="65.179" y2="65.179" gradientTransform="translate(-23.548 11.098)" gradientUnits="userSpaceOnUse" xlink:href="#a"/><linearGradient id="e" x1="83.557" x2="88.242" y1="65.179" y2="65.179" gradientTransform="translate(-58.868 11.098)" gradientUnits="userSpaceOnUse" xlink:href="#a"/><linearGradient id="d" x1="83.557" x2="88.242" y1="65.179" y2="65.179" gradientTransform="translate(-42.458 18.129)" gradientUnits="userSpaceOnUse" xlink:href="#a"/><linearGradient id="c" x1="83.557" x2="88.242" y1="65.179" y2="65.179" gradientTransform="translate(-72.655 18.129)" gradientUnits="userSpaceOnUse" xlink:href="#a"/><linearGradient id="b" x1="83.557" x2="88.242" y1="65.179" y2="65.179" gradientTransform="translate(-7.8131 18.129)" gradientUnits="userSpaceOnUse" xlink:href="#a"/><style>.cls-1{fill:#2893ea;}.cls-2{fill:#d9e1e8;}</style></defs><path d="m6.4015 44.626h89.667s10.207-13.457-3.6193-26.023c-13.573-12.336-27.559-2.7321-27.559-2.7321s-8.6089-19.377-24.912-14.719c-16.303 4.658-17.61 18.136-17.61 18.136s-16.509 0.33524-19.226 10.622c-2.7172 10.286 3.2597 14.717 3.2597 14.717z" fill="url(#i)"/><path d="m3.9266 58.796h89.667s11.232-13.192 0.26976-28.321c-11.629-16.049-30.741-2.7321-30.741-2.7321s-9.316-17.079-25.619-12.421-17.079 19.02-17.079 19.02-17.04-0.54864-19.757 9.7378c-2.7172 10.286 3.2597 14.717 3.2597 14.717z" fill="url(#j)"/><g fill="none" stroke-linecap="round" stroke-linejoin="round" stroke-width="2.851"><g stroke-width="2.5"><path d="m10.819 67.105 2.6896-3.9912" stroke="url(#k)" style="paint-order:stroke fill markers"/><path d="m46.403 67.105 2.6896-3.9912" stroke="url(#h)" style="paint-order:stroke fill markers"/><path d="m43.095 83.242 2.6896-3.9912" stroke="url(#d)" style="paint-order:stroke fill markers"/><path d="m12.898 83.242 2.6896-3.9912" stroke="url(#c)" style="paint-order:stroke fill markers"/><path d="m77.74 83.242 2.6896-3.9912" stroke="url(#b)" style="paint-order:stroke fill markers"/><path d="m81.988 67.105 2.6896-3.9912" stroke="url(#g)" style="paint-order:stroke fill markers"/><path d="m62.004 76.211 2.6896-3.9912" stroke="url(#f)" style="paint-order:stroke fill markers"/><path d="m26.685 76.211 2.6896-3.9912" stroke="url(#e)" style="paint-order:stroke fill markers"/></g></g><g transform="matrix(.056391 0 0 .056391 58.135 50.861)" stroke-width="53.2"><path d="m60.416 294.4h472.07a44.318 44.318 0 0 0 39.014-65.328l-236.02-438.33c-16.744-31.078-61.311-31.078-78.055 0l-236.02 438.33a44.318 44.318 0 0 0 39.014 65.328z" fill="#fff" stroke="#ff5f5f" stroke-linecap="round" stroke-linejoin="round" stroke-width="73.679"/><g id="l" transform="matrix(8.1633 0 0 8.1633 183.03 -19.214)"><path class="cls-1" d="m26.857 12.895h-7.7566l5.596-5.488a2.1606 2.1606 0 0 0-3.0465-3.0465l-5.596 5.488v-7.7566a2.1606 2.1606 0 0 0-4.3212 0v7.7566l-5.488-5.488a2.1606 2.1606 0 0 0-3.0465 3.0465l5.488 5.488h-7.7566a2.1606 2.1606 0 0 0 0 4.3212h7.7566l-5.488 5.488a2.1606 2.1606 0 0 0 0 3.0465 2.1606 2.1606 0 0 0 1.534 0.62658 2.1606 2.1606 0 0 0 1.5124-0.62658l5.488-5.488v7.7566a2.1606 2.1606 0 0 0 4.3212 0v-7.7566l5.488 5.596a2.1606 2.1606 0 0 0 1.5124 0.62658 2.1606 2.1606 0 0 0 1.6421-0.62658 2.1606 2.1606 0 0 0 0-3.0465l-5.596-5.596h7.7566a2.1606 2.1606 0 0 0 0-4.3212z" stroke-width="114.94"/></g></g></svg>
