<svg width="100" height="100" version="1.1" viewBox="0 0 100 100" xmlns="http://www.w3.org/2000/svg" xmlns:xlink="http://www.w3.org/1999/xlink">
 <defs>
  <linearGradient id="linearGradient25">
   <stop stop-color="#85b2ee" offset="0"/>
   <stop stop-color="#dceef9" offset="1"/>
  </linearGradient>
  <linearGradient id="linearGradient230" x1="47.158" x2="47.224" y1="14.736" y2="58.223" gradientUnits="userSpaceOnUse">
   <stop stop-color="#eeefef" offset="0"/>
   <stop stop-color="#9ca2af" offset="1"/>
  </linearGradient>
  <linearGradient id="linearGradient232" x1="51.401" x2="50.552" y1=".076415" y2="44.271" gradientUnits="userSpaceOnUse">
   <stop stop-color="#f2f2f3" offset="0"/>
   <stop stop-color="#6f7478" offset="1"/>
  </linearGradient>
  <radialGradient id="radialGradient20" cx="30.952" cy="66.944" r="15.845" gradientTransform="matrix(.25239 0 0 .29583 8.6581 48.321)" gradientUnits="userSpaceOnUse" xlink:href="#linearGradient25"/>
  <radialGradient id="radialGradient20-2-4" cx="30.952" cy="66.944" r="15.845" gradientTransform="matrix(.25239 0 0 .29583 78.432 48.321)" gradientUnits="userSpaceOnUse" xlink:href="#linearGradient25"/>
  <radialGradient id="radialGradient20-2-4-0-7" cx="30.952" cy="66.944" r="15.845" gradientTransform="matrix(.25239 0 0 .29583 42.714 62.812)" gradientUnits="userSpaceOnUse" xlink:href="#linearGradient25"/>
  <radialGradient id="radialGradient20-2-4-0-7-2" cx="30.952" cy="66.944" r="15.845" gradientTransform="matrix(.25239 0 0 .29583 63.214 62.811)" gradientUnits="userSpaceOnUse" xlink:href="#linearGradient25"/>
  <radialGradient id="radialGradient20-2-4-0-4" cx="30.952" cy="66.944" r="15.845" gradientTransform="matrix(.25239 0 0 .29583 55.174 48.321)" gradientUnits="userSpaceOnUse" xlink:href="#linearGradient25"/>
  <radialGradient id="radialGradient20-2-4-0-4-9" cx="30.952" cy="66.944" r="15.845" gradientTransform="matrix(.25239 0 0 .29583 31.916 48.321)" gradientUnits="userSpaceOnUse" xlink:href="#linearGradient25"/>
  <radialGradient id="radialGradient20-2-4-0-7-5" cx="30.952" cy="66.944" r="15.845" gradientTransform="matrix(.25239 0 0 .29583 2.1398 62.812)" gradientUnits="userSpaceOnUse" xlink:href="#linearGradient25"/>
  <radialGradient id="radialGradient20-2-4-0-4-9-3" cx="30.952" cy="66.944" r="15.845" gradientTransform="matrix(.25239 0 0 .29583 22.427 62.812)" gradientUnits="userSpaceOnUse" xlink:href="#linearGradient25"/>
 </defs>
 <path d="m6.4015 44.626h89.667s10.207-13.457-3.6193-26.023c-13.573-12.336-27.559-2.7321-27.559-2.7321s-8.6089-19.377-24.912-14.719c-16.303 4.658-17.61 18.136-17.61 18.136s-16.509 0.33524-19.226 10.622c-2.7172 10.286 3.2597 14.717 3.2597 14.717z" fill="url(#linearGradient232)"/>
 <path d="m3.9266 58.796h89.667s11.232-13.192 0.26976-28.321c-11.629-16.049-30.741-2.7321-30.741-2.7321s-9.316-17.079-25.619-12.421-17.079 19.02-17.079 19.02-17.04-0.54864-19.757 9.7378c-2.7172 10.286 3.2597 14.717 3.2597 14.717z" fill="url(#linearGradient230)"/>
 <g stroke-width=".50479">
  <path d="m20.006 69.844-0.58733-0.36295a1.5466 1.6545 0 0 1 0.36172-0.29568 0.38004 0.40656 0 0 0-0.3676-0.71167 2.3082 2.4693 0 0 0-0.66593 0.59321l-1.522-0.94156 1.5217-0.9399a2.3054 2.4664 0 0 0 0.66593 0.59321 0.38004 0.40656 0 1 0 0.3676-0.71167 1.5502 1.6584 0 0 1-0.36172-0.29568l0.58733-0.36295a0.38004 0.40656 0 1 0-0.37969-0.70391l-0.58733 0.36276a1.5502 1.6584 0 0 1-0.05908-0.48326 0.38004 0.40656 0 0 0-0.37278-0.41543h-0.0071a0.38004 0.40656 0 0 0-0.38004 0.39898 2.308 2.4691 0 0 0 0.14683 0.9131l-1.5217 0.94045v-1.8796a2.3061 2.4671 0 0 0 0.8131-0.32026 0.38006 0.40659 0 0 0-0.3923-0.69652 1.5471 1.6551 0 0 1-0.4208 0.18684v-0.61483a0.38004 0.40656 0 0 0-0.76007 0v0.61483a1.5471 1.6551 0 0 1-0.4208-0.18684 0.38006 0.40659 0 1 0-0.3923 0.69652 2.3061 2.4671 0 0 0 0.8131 0.32026v1.8796l-1.5217-0.94045a2.308 2.4691 0 0 0 0.14718-0.91347 0.38004 0.40656 0 0 0-0.38004-0.39898h-0.0074a0.38004 0.40656 0 0 0-0.37295 0.41414 1.5502 1.6584 0 0 1-0.0589 0.48399l-0.58733-0.36184a0.38004 0.40656 0 1 0-0.38004 0.70409l0.58733 0.36295a1.5502 1.6584 0 0 1-0.36172 0.29568 0.38004 0.40656 0 1 0 0.3676 0.71167 2.3082 2.4693 0 0 0 0.66593-0.59321l1.522 0.93971-1.5217 0.9399a2.3082 2.4693 0 0 0-0.66593-0.59321 0.38004 0.40656 0 1 0-0.3676 0.71167 1.5502 1.6584 0 0 1 0.36172 0.29568l-0.58767 0.36461a0.38004 0.40656 0 1 0 0.38004 0.70409l0.58733-0.36276a1.5502 1.6584 0 0 1 0.05908 0.48326 0.38004 0.40656 0 0 0 0.37278 0.41358h0.0071a0.38004 0.40656 0 0 0 0.38004-0.39899 2.308 2.4691 0 0 0-0.14683-0.9131l1.5217-0.94045v1.8796a2.3061 2.4671 0 0 0-0.8131 0.32026 0.38006 0.40659 0 1 0 0.3923 0.69651 1.5471 1.6551 0 0 1 0.4208-0.18683v0.61483a0.38004 0.40656 0 0 0 0.76007 0v-0.61483a1.5471 1.6551 0 0 1 0.4208 0.18683 0.38006 0.40659 0 0 0 0.3923-0.69651 2.3061 2.4671 0 0 0-0.8131-0.32026v-1.8796l1.5217 0.94045a2.308 2.4691 0 0 0-0.14718 0.91347 0.38004 0.40656 0 0 0 0.38004 0.39899h0.0074a0.38004 0.40656 0 0 0 0.37295-0.41414 1.5502 1.6584 0 0 1 0.0589-0.48399l0.58733 0.36276a0.38004 0.40656 0 1 0 0.38004-0.70316z" fill="url(#radialGradient20)" stroke="url(#radialGradient20)"/>
  <path d="m89.78 69.843-0.58733-0.36295a1.5466 1.6545 0 0 1 0.36172-0.29568 0.38004 0.40656 0 0 0-0.3676-0.71167 2.3082 2.4693 0 0 0-0.66593 0.59321l-1.522-0.94156 1.5217-0.9399a2.3054 2.4664 0 0 0 0.66593 0.59321 0.38004 0.40656 0 1 0 0.3676-0.71167 1.5502 1.6584 0 0 1-0.36172-0.29568l0.58733-0.36295a0.38004 0.40656 0 1 0-0.37969-0.70391l-0.58733 0.36276a1.5502 1.6584 0 0 1-0.05908-0.48326 0.38004 0.40656 0 0 0-0.37278-0.41543h-0.0071a0.38004 0.40656 0 0 0-0.38004 0.39898 2.308 2.4691 0 0 0 0.14683 0.9131l-1.5217 0.94045v-1.8796a2.3061 2.4671 0 0 0 0.8131-0.32026 0.38006 0.40659 0 0 0-0.3923-0.69652 1.5471 1.6551 0 0 1-0.4208 0.18684v-0.61483a0.38004 0.40656 0 0 0-0.76007 0v0.61483a1.5471 1.6551 0 0 1-0.4208-0.18684 0.38006 0.40659 0 1 0-0.3923 0.69652 2.3061 2.4671 0 0 0 0.8131 0.32026v1.8796l-1.5217-0.94045a2.308 2.4691 0 0 0 0.14718-0.91347 0.38004 0.40656 0 0 0-0.38004-0.39898h-0.0074a0.38004 0.40656 0 0 0-0.37295 0.41414 1.5502 1.6584 0 0 1-0.0589 0.48399l-0.58733-0.36184a0.38004 0.40656 0 1 0-0.38004 0.70409l0.58733 0.36295a1.5502 1.6584 0 0 1-0.36173 0.29568 0.38004 0.40656 0 1 0 0.3676 0.71167 2.3082 2.4693 0 0 0 0.66593-0.59321l1.522 0.93971-1.5217 0.9399a2.3082 2.4693 0 0 0-0.66593-0.59321 0.38004 0.40656 0 1 0-0.3676 0.71167 1.5502 1.6584 0 0 1 0.36172 0.29568l-0.58768 0.36461a0.38004 0.40656 0 1 0 0.38004 0.70409l0.58733-0.36276a1.5502 1.6584 0 0 1 0.05908 0.48325 0.38004 0.40656 0 0 0 0.37278 0.41358h0.0071a0.38004 0.40656 0 0 0 0.38004-0.39899 2.308 2.4691 0 0 0-0.14683-0.9131l1.5217-0.94045v1.8796a2.3061 2.4671 0 0 0-0.8131 0.32026 0.38006 0.40659 0 1 0 0.3923 0.69651 1.5471 1.6551 0 0 1 0.4208-0.18683v0.61483a0.38004 0.40656 0 0 0 0.76007 0v-0.61483a1.5471 1.6551 0 0 1 0.4208 0.18683 0.38006 0.40659 0 0 0 0.3923-0.69651 2.3061 2.4671 0 0 0-0.8131-0.32026v-1.8796l1.5217 0.94045a2.308 2.4691 0 0 0-0.14718 0.91347 0.38004 0.40656 0 0 0 0.38004 0.39899h0.0074a0.38004 0.40656 0 0 0 0.37295-0.41414 1.5502 1.6584 0 0 1 0.0589-0.48399l0.58733 0.36276a0.38004 0.40656 0 1 0 0.38004-0.70316z" fill="url(#radialGradient20-2-4)" stroke="url(#radialGradient20-2-4)"/>
  <path d="m66.522 69.843-0.58733-0.36295a1.5466 1.6545 0 0 1 0.36172-0.29568 0.38004 0.40656 0 0 0-0.3676-0.71167 2.3082 2.4693 0 0 0-0.66593 0.59321l-1.522-0.94156 1.5217-0.9399a2.3054 2.4664 0 0 0 0.66593 0.59321 0.38004 0.40656 0 1 0 0.3676-0.71167 1.5502 1.6584 0 0 1-0.36172-0.29568l0.58733-0.36295a0.38004 0.40656 0 1 0-0.37969-0.70391l-0.58733 0.36276a1.5502 1.6584 0 0 1-0.05908-0.48326 0.38004 0.40656 0 0 0-0.37278-0.41543h-0.0071a0.38004 0.40656 0 0 0-0.38004 0.39898 2.308 2.4691 0 0 0 0.14683 0.9131l-1.5217 0.94045v-1.8796a2.3061 2.4671 0 0 0 0.8131-0.32026 0.38006 0.40659 0 0 0-0.3923-0.69652 1.5471 1.6551 0 0 1-0.4208 0.18684v-0.61483a0.38004 0.40656 0 0 0-0.76007 0v0.61483a1.5471 1.6551 0 0 1-0.4208-0.18684 0.38006 0.40659 0 1 0-0.3923 0.69652 2.3061 2.4671 0 0 0 0.8131 0.32026v1.8796l-1.5217-0.94045a2.308 2.4691 0 0 0 0.14718-0.91347 0.38004 0.40656 0 0 0-0.38004-0.39898h-0.0074a0.38004 0.40656 0 0 0-0.37295 0.41414 1.5502 1.6584 0 0 1-0.0589 0.48399l-0.58733-0.36184a0.38004 0.40656 0 1 0-0.38004 0.70409l0.58733 0.36295a1.5502 1.6584 0 0 1-0.36172 0.29568 0.38004 0.40656 0 1 0 0.3676 0.71167 2.3082 2.4693 0 0 0 0.66593-0.59321l1.522 0.93971-1.5217 0.9399a2.3082 2.4693 0 0 0-0.66593-0.59321 0.38004 0.40656 0 1 0-0.3676 0.71167 1.5502 1.6584 0 0 1 0.36172 0.29568l-0.58767 0.36461a0.38004 0.40656 0 1 0 0.38004 0.70409l0.58733-0.36276a1.5502 1.6584 0 0 1 0.05908 0.48325 0.38004 0.40656 0 0 0 0.37278 0.41358h0.0071a0.38004 0.40656 0 0 0 0.38004-0.39899 2.308 2.4691 0 0 0-0.14683-0.9131l1.5217-0.94045v1.8796a2.3061 2.4671 0 0 0-0.8131 0.32026 0.38006 0.40659 0 1 0 0.3923 0.69651 1.5471 1.6551 0 0 1 0.4208-0.18683v0.61483a0.38004 0.40656 0 0 0 0.76007 0v-0.61483a1.5471 1.6551 0 0 1 0.4208 0.18683 0.38006 0.40659 0 0 0 0.3923-0.69651 2.3061 2.4671 0 0 0-0.8131-0.32026v-1.8796l1.5217 0.94045a2.308 2.4691 0 0 0-0.14718 0.91347 0.38004 0.40656 0 0 0 0.38004 0.39899h0.0074a0.38004 0.40656 0 0 0 0.37295-0.41414 1.5502 1.6584 0 0 1 0.0589-0.48399l0.58733 0.36276a0.38004 0.40656 0 1 0 0.38004-0.70316z" fill="url(#radialGradient20-2-4-0-4)" stroke="url(#radialGradient20-2-4-0-4)"/>
  <path d="m43.264 69.843-0.58733-0.36295a1.5466 1.6545 0 0 1 0.36172-0.29568 0.38004 0.40656 0 0 0-0.3676-0.71167 2.3082 2.4693 0 0 0-0.66593 0.59321l-1.522-0.94156 1.5217-0.9399a2.3054 2.4664 0 0 0 0.66593 0.59321 0.38004 0.40656 0 1 0 0.3676-0.71167 1.5502 1.6584 0 0 1-0.36172-0.29568l0.58733-0.36295a0.38004 0.40656 0 1 0-0.37969-0.70391l-0.58733 0.36276a1.5502 1.6584 0 0 1-0.05908-0.48326 0.38004 0.40656 0 0 0-0.37278-0.41543h-0.0071a0.38004 0.40656 0 0 0-0.38004 0.39898 2.308 2.4691 0 0 0 0.14683 0.9131l-1.5217 0.94045v-1.8796a2.3061 2.4671 0 0 0 0.8131-0.32026 0.38006 0.40659 0 0 0-0.3923-0.69652 1.5471 1.6551 0 0 1-0.4208 0.18684v-0.61483a0.38004 0.40656 0 0 0-0.76007 0v0.61483a1.5471 1.6551 0 0 1-0.4208-0.18684 0.38006 0.40659 0 1 0-0.3923 0.69652 2.3061 2.4671 0 0 0 0.8131 0.32026v1.8796l-1.5217-0.94045a2.308 2.4691 0 0 0 0.14718-0.91347 0.38004 0.40656 0 0 0-0.38004-0.39898h-0.0074a0.38004 0.40656 0 0 0-0.37295 0.41414 1.5502 1.6584 0 0 1-0.0589 0.48399l-0.58733-0.36184a0.38004 0.40656 0 1 0-0.38004 0.70409l0.58733 0.36295a1.5502 1.6584 0 0 1-0.36172 0.29568 0.38004 0.40656 0 1 0 0.3676 0.71167 2.3082 2.4693 0 0 0 0.66593-0.59321l1.522 0.93971-1.5217 0.9399a2.3082 2.4693 0 0 0-0.66593-0.59321 0.38004 0.40656 0 1 0-0.3676 0.71167 1.5502 1.6584 0 0 1 0.36172 0.29568l-0.58767 0.36461a0.38004 0.40656 0 1 0 0.38004 0.70409l0.58733-0.36276a1.5502 1.6584 0 0 1 0.05908 0.48325 0.38004 0.40656 0 0 0 0.37278 0.41358h0.0071a0.38004 0.40656 0 0 0 0.38004-0.39899 2.308 2.4691 0 0 0-0.14683-0.9131l1.5217-0.94045v1.8796a2.3061 2.4671 0 0 0-0.8131 0.32026 0.38006 0.40659 0 1 0 0.3923 0.69651 1.5471 1.6551 0 0 1 0.4208-0.18683v0.61483a0.38004 0.40656 0 0 0 0.76007 0v-0.61483a1.5471 1.6551 0 0 1 0.4208 0.18683 0.38006 0.40659 0 0 0 0.3923-0.69651 2.3061 2.4671 0 0 0-0.8131-0.32026v-1.8796l1.5217 0.94045a2.308 2.4691 0 0 0-0.14718 0.91347 0.38004 0.40656 0 0 0 0.38004 0.39899h0.0074a0.38004 0.40656 0 0 0 0.37295-0.41414 1.5502 1.6584 0 0 1 0.0589-0.48399l0.58733 0.36276a0.38004 0.40656 0 1 0 0.38004-0.70316z" fill="url(#radialGradient20-2-4-0-4-9)" stroke="url(#radialGradient20-2-4-0-4-9)"/>
  <path d="m33.775 84.334-0.58733-0.36295a1.5466 1.6545 0 0 1 0.36172-0.29568 0.38004 0.40656 0 0 0-0.3676-0.71167 2.3082 2.4693 0 0 0-0.66593 0.59321l-1.522-0.94156 1.5217-0.9399a2.3054 2.4664 0 0 0 0.66593 0.59321 0.38004 0.40656 0 1 0 0.3676-0.71167 1.5502 1.6584 0 0 1-0.36172-0.29568l0.58733-0.36295a0.38004 0.40656 0 1 0-0.37969-0.70391l-0.58733 0.36276a1.5502 1.6584 0 0 1-0.05908-0.48326 0.38004 0.40656 0 0 0-0.37278-0.41543h-0.0071a0.38004 0.40656 0 0 0-0.38004 0.39898 2.308 2.4691 0 0 0 0.14683 0.9131l-1.5217 0.94045v-1.8796a2.3061 2.4671 0 0 0 0.8131-0.32026 0.38006 0.40659 0 0 0-0.3923-0.69652 1.5471 1.6551 0 0 1-0.4208 0.18684v-0.61483a0.38004 0.40656 0 0 0-0.76007 0v0.61483a1.5471 1.6551 0 0 1-0.4208-0.18684 0.38006 0.40659 0 1 0-0.3923 0.69652 2.3061 2.4671 0 0 0 0.8131 0.32026v1.8796l-1.5217-0.94045a2.308 2.4691 0 0 0 0.14718-0.91347 0.38004 0.40656 0 0 0-0.38004-0.39898h-0.0074a0.38004 0.40656 0 0 0-0.37295 0.41414 1.5502 1.6584 0 0 1-0.0589 0.48399l-0.58733-0.36184a0.38004 0.40656 0 1 0-0.38004 0.70409l0.58733 0.36295a1.5502 1.6584 0 0 1-0.36172 0.29568 0.38004 0.40656 0 1 0 0.3676 0.71167 2.3082 2.4693 0 0 0 0.66593-0.59321l1.522 0.93971-1.5217 0.9399a2.3082 2.4693 0 0 0-0.66593-0.59321 0.38004 0.40656 0 1 0-0.3676 0.71167 1.5502 1.6584 0 0 1 0.36172 0.29568l-0.58767 0.36461a0.38004 0.40656 0 1 0 0.38004 0.70409l0.58733-0.36276a1.5502 1.6584 0 0 1 0.05908 0.48325 0.38004 0.40656 0 0 0 0.37278 0.41358h0.0071a0.38004 0.40656 0 0 0 0.38004-0.39899 2.308 2.4691 0 0 0-0.14683-0.9131l1.5217-0.94045v1.8796a2.3061 2.4671 0 0 0-0.8131 0.32026 0.38006 0.40659 0 1 0 0.3923 0.69651 1.5471 1.6551 0 0 1 0.4208-0.18683v0.61483a0.38004 0.40656 0 0 0 0.76007 0v-0.61483a1.5471 1.6551 0 0 1 0.4208 0.18683 0.38006 0.40659 0 0 0 0.3923-0.69651 2.3061 2.4671 0 0 0-0.8131-0.32026v-1.8796l1.5217 0.94045a2.308 2.4691 0 0 0-0.14718 0.91347 0.38004 0.40656 0 0 0 0.38004 0.39899h0.0074a0.38004 0.40656 0 0 0 0.37295-0.41414 1.5502 1.6584 0 0 1 0.0589-0.48399l0.58733 0.36276a0.38004 0.40656 0 1 0 0.38004-0.70316z" fill="url(#radialGradient20-2-4-0-4-9-3)" stroke="url(#radialGradient20-2-4-0-4-9-3)"/>
  <path d="m54.062 84.334-0.58733-0.36295a1.5466 1.6545 0 0 1 0.36172-0.29568 0.38004 0.40656 0 0 0-0.3676-0.71167 2.3082 2.4693 0 0 0-0.66593 0.59321l-1.522-0.94156 1.5217-0.9399a2.3054 2.4664 0 0 0 0.66593 0.59321 0.38004 0.40656 0 1 0 0.3676-0.71167 1.5502 1.6584 0 0 1-0.36172-0.29568l0.58733-0.36295a0.38004 0.40656 0 1 0-0.37969-0.7039l-0.58733 0.36276a1.5502 1.6584 0 0 1-0.05908-0.48326 0.38004 0.40656 0 0 0-0.37278-0.41543h-0.0071a0.38004 0.40656 0 0 0-0.38004 0.39898 2.308 2.4691 0 0 0 0.14683 0.9131l-1.5217 0.94045v-1.8796a2.3061 2.4671 0 0 0 0.8131-0.32026 0.38006 0.40659 0 0 0-0.3923-0.69652 1.5471 1.6551 0 0 1-0.4208 0.18684v-0.61483a0.38004 0.40656 0 0 0-0.76007 0v0.61483a1.5471 1.6551 0 0 1-0.4208-0.18684 0.38006 0.40659 0 1 0-0.3923 0.69652 2.3061 2.4671 0 0 0 0.8131 0.32026v1.8796l-1.5217-0.94045a2.308 2.4691 0 0 0 0.14718-0.91347 0.38004 0.40656 0 0 0-0.38004-0.39898h-0.0074a0.38004 0.40656 0 0 0-0.37295 0.41414 1.5502 1.6584 0 0 1-0.0589 0.48399l-0.58733-0.36184a0.38004 0.40656 0 1 0-0.38004 0.70409l0.58733 0.36295a1.5502 1.6584 0 0 1-0.36172 0.29568 0.38004 0.40656 0 1 0 0.3676 0.71167 2.3082 2.4693 0 0 0 0.66593-0.59321l1.522 0.93971-1.5217 0.9399a2.3082 2.4693 0 0 0-0.66593-0.59321 0.38004 0.40656 0 1 0-0.3676 0.71167 1.5502 1.6584 0 0 1 0.36172 0.29568l-0.58768 0.36461a0.38004 0.40656 0 1 0 0.38004 0.70409l0.58734-0.36276a1.5502 1.6584 0 0 1 0.05908 0.48326 0.38004 0.40656 0 0 0 0.37278 0.41358h0.0071a0.38004 0.40656 0 0 0 0.38004-0.39899 2.308 2.4691 0 0 0-0.14683-0.9131l1.5217-0.94045v1.8796a2.3061 2.4671 0 0 0-0.8131 0.32026 0.38006 0.40659 0 1 0 0.3923 0.69651 1.5471 1.6551 0 0 1 0.4208-0.18683v0.61483a0.38004 0.40656 0 0 0 0.76007 0v-0.61483a1.5471 1.6551 0 0 1 0.4208 0.18683 0.38006 0.40659 0 0 0 0.3923-0.69651 2.3061 2.4671 0 0 0-0.8131-0.32026v-1.8796l1.5217 0.94045a2.308 2.4691 0 0 0-0.14718 0.91347 0.38004 0.40656 0 0 0 0.38004 0.39899h0.0074a0.38004 0.40656 0 0 0 0.37295-0.41414 1.5502 1.6584 0 0 1 0.0589-0.48399l0.58733 0.36276a0.38004 0.40656 0 1 0 0.38004-0.70317z" fill="url(#radialGradient20-2-4-0-7)" stroke="url(#radialGradient20-2-4-0-7)"/>
  <path d="m13.488 84.334-0.58733-0.36295a1.5466 1.6545 0 0 1 0.36172-0.29568 0.38004 0.40656 0 0 0-0.3676-0.71167 2.3082 2.4693 0 0 0-0.66593 0.59321l-1.522-0.94156 1.5217-0.9399a2.3054 2.4664 0 0 0 0.66593 0.59321 0.38004 0.40656 0 1 0 0.3676-0.71167 1.5502 1.6584 0 0 1-0.36172-0.29568l0.58733-0.36295a0.38004 0.40656 0 1 0-0.37969-0.7039l-0.58733 0.36276a1.5502 1.6584 0 0 1-0.05908-0.48326 0.38004 0.40656 0 0 0-0.37278-0.41543h-0.0071a0.38004 0.40656 0 0 0-0.38004 0.39898 2.308 2.4691 0 0 0 0.14683 0.9131l-1.5217 0.94045v-1.8796a2.3061 2.4671 0 0 0 0.8131-0.32026 0.38006 0.40659 0 0 0-0.3923-0.69652 1.5471 1.6551 0 0 1-0.4208 0.18684v-0.61483a0.38004 0.40656 0 0 0-0.76007 0v0.61483a1.5471 1.6551 0 0 1-0.4208-0.18684 0.38006 0.40659 0 1 0-0.3923 0.69652 2.3061 2.4671 0 0 0 0.8131 0.32026v1.8796l-1.5217-0.94045a2.308 2.4691 0 0 0 0.14718-0.91347 0.38004 0.40656 0 0 0-0.38004-0.39898h-0.0074a0.38004 0.40656 0 0 0-0.37295 0.41414 1.5502 1.6584 0 0 1-0.0589 0.48399l-0.58733-0.36184a0.38004 0.40656 0 1 0-0.38004 0.70409l0.58733 0.36295a1.5502 1.6584 0 0 1-0.36173 0.29568 0.38004 0.40656 0 1 0 0.3676 0.71167 2.3082 2.4693 0 0 0 0.66593-0.59321l1.522 0.93971-1.5217 0.9399a2.3082 2.4693 0 0 0-0.66593-0.59321 0.38004 0.40656 0 1 0-0.3676 0.71167 1.5502 1.6584 0 0 1 0.36173 0.29568l-0.58768 0.36461a0.38004 0.40656 0 1 0 0.38004 0.70409l0.58735-0.36276a1.5502 1.6584 0 0 1 0.05908 0.48326 0.38004 0.40656 0 0 0 0.37278 0.41358h0.0071a0.38004 0.40656 0 0 0 0.38004-0.39899 2.308 2.4691 0 0 0-0.14683-0.9131l1.5217-0.94045v1.8796a2.3061 2.4671 0 0 0-0.8131 0.32026 0.38006 0.40659 0 1 0 0.3923 0.69651 1.5471 1.6551 0 0 1 0.4208-0.18683v0.61483a0.38004 0.40656 0 0 0 0.76007 0v-0.61483a1.5471 1.6551 0 0 1 0.4208 0.18683 0.38006 0.40659 0 0 0 0.3923-0.69651 2.3061 2.4671 0 0 0-0.8131-0.32026v-1.8796l1.5217 0.94045a2.308 2.4691 0 0 0-0.14718 0.91347 0.38004 0.40656 0 0 0 0.38004 0.39899h0.0074a0.38004 0.40656 0 0 0 0.37295-0.41414 1.5502 1.6584 0 0 1 0.0589-0.48399l0.58733 0.36276a0.38004 0.40656 0 1 0 0.38004-0.70317z" fill="url(#radialGradient20-2-4-0-7-5)" stroke="url(#radialGradient20-2-4-0-7-5)"/>
  <path d="m74.562 84.334-0.58733-0.36295a1.5466 1.6545 0 0 1 0.36172-0.29568 0.38004 0.40656 0 0 0-0.3676-0.71167 2.3082 2.4693 0 0 0-0.66593 0.59321l-1.522-0.94156 1.5217-0.9399a2.3054 2.4664 0 0 0 0.66593 0.59321 0.38004 0.40656 0 1 0 0.3676-0.71167 1.5502 1.6584 0 0 1-0.36172-0.29568l0.58733-0.36295a0.38004 0.40656 0 1 0-0.37969-0.70391l-0.58733 0.36276a1.5502 1.6584 0 0 1-0.05908-0.48326 0.38004 0.40656 0 0 0-0.37278-0.41543h-0.0071a0.38004 0.40656 0 0 0-0.38004 0.39898 2.308 2.4691 0 0 0 0.14683 0.9131l-1.5217 0.94045v-1.8796a2.3061 2.4671 0 0 0 0.81315-0.32026 0.38006 0.40659 0 0 0-0.3923-0.69652 1.5471 1.6551 0 0 1-0.4208 0.18684v-0.61483a0.38004 0.40656 0 0 0-0.76007 0v0.61483a1.5471 1.6551 0 0 1-0.4208-0.18684 0.38006 0.40659 0 1 0-0.3923 0.69652 2.3061 2.4671 0 0 0 0.8131 0.32026v1.8796l-1.5217-0.94045a2.308 2.4691 0 0 0 0.14718-0.91347 0.38004 0.40656 0 0 0-0.38004-0.39898h-0.0074a0.38004 0.40656 0 0 0-0.37295 0.41414 1.5502 1.6584 0 0 1-0.0589 0.48399l-0.58733-0.36184a0.38004 0.40656 0 1 0-0.38004 0.70409l0.58733 0.36295a1.5502 1.6584 0 0 1-0.36172 0.29568 0.38004 0.40656 0 1 0 0.3676 0.71167 2.3082 2.4693 0 0 0 0.66593-0.59321l1.522 0.93971-1.5217 0.9399a2.3082 2.4693 0 0 0-0.66593-0.59321 0.38004 0.40656 0 1 0-0.3676 0.71167 1.5502 1.6584 0 0 1 0.36172 0.29568l-0.58767 0.36461a0.38004 0.40656 0 1 0 0.38004 0.70409l0.58733-0.36276a1.5502 1.6584 0 0 1 0.05908 0.48325 0.38004 0.40656 0 0 0 0.37278 0.41358h0.0071a0.38004 0.40656 0 0 0 0.38004-0.39899 2.308 2.4691 0 0 0-0.14683-0.9131l1.5217-0.94045v1.8796a2.3061 2.4671 0 0 0-0.8131 0.32026 0.38006 0.40659 0 1 0 0.3923 0.69651 1.5471 1.6551 0 0 1 0.4208-0.18683v0.61483a0.38004 0.40656 0 0 0 0.76007 0v-0.61483a1.5471 1.6551 0 0 1 0.4208 0.18683 0.38006 0.40659 0 0 0 0.3923-0.69651 2.3061 2.4671 0 0 0-0.8131-0.32026v-1.8796l1.5217 0.94045a2.308 2.4691 0 0 0-0.14718 0.91347 0.38004 0.40656 0 0 0 0.38004 0.39899h0.0074a0.38004 0.40656 0 0 0 0.37295-0.41414 1.5502 1.6584 0 0 1 0.0589-0.48399l0.58733 0.36276a0.38004 0.40656 0 1 0 0.38004-0.70316z" fill="url(#radialGradient20-2-4-0-7-2)" stroke="url(#radialGradient20-2-4-0-7-2)"/>
 </g>
</svg>
