<svg width="100" height="100" version="1.1" viewBox="0 0 100 100" xmlns="http://www.w3.org/2000/svg" xmlns:xlink="http://www.w3.org/1999/xlink">
 <defs>
  <linearGradient id="linearGradient25">
   <stop stop-color="#85b2ee" offset="0"/>
   <stop stop-color="#dceef9" offset="1"/>
  </linearGradient>
  <linearGradient id="linearGradient230" x1="47.158" x2="47.224" y1="14.736" y2="58.223" gradientUnits="userSpaceOnUse">
   <stop stop-color="#eeefef" offset="0"/>
   <stop stop-color="#717a8d" offset="1"/>
  </linearGradient>
  <linearGradient id="linearGradient232" x1="51.401" x2="50.552" y1=".076415" y2="44.271" gradientUnits="userSpaceOnUse">
   <stop stop-color="#f2f2f3" offset="0"/>
   <stop stop-color="#6f7478" offset="1"/>
  </linearGradient>
  <radialGradient id="radialGradient20" cx="30.952" cy="66.944" r="15.845" gradientTransform="matrix(.25239 0 0 .29583 8.6581 48.321)" gradientUnits="userSpaceOnUse" xlink:href="#linearGradient25"/>
  <radialGradient id="radialGradient20-2-4" cx="30.952" cy="66.944" r="15.845" gradientTransform="matrix(.25239 0 0 .29583 78.432 48.321)" gradientUnits="userSpaceOnUse" xlink:href="#linearGradient25"/>
  <radialGradient id="radialGradient20-2-4-0-7" cx="30.952" cy="66.944" r="15.845" gradientTransform="matrix(.25239 0 0 .29583 42.714 62.812)" gradientUnits="userSpaceOnUse" xlink:href="#linearGradient25"/>
  <radialGradient id="radialGradient20-2-4-0-7-2" cx="30.952" cy="66.944" r="15.845" gradientTransform="matrix(.324 0 0 .37976 60.998 57.193)" gradientUnits="userSpaceOnUse" xlink:href="#linearGradient25"/>
  <radialGradient id="radialGradient20-2-4-0-4" cx="30.952" cy="66.944" r="15.845" gradientTransform="matrix(.25239 0 0 .29583 55.174 48.321)" gradientUnits="userSpaceOnUse" xlink:href="#linearGradient25"/>
  <radialGradient id="radialGradient20-2-4-0-4-9" cx="30.952" cy="66.944" r="15.845" gradientTransform="matrix(.324 0 0 .37976 29.64 42.702)" gradientUnits="userSpaceOnUse" xlink:href="#linearGradient25"/>
  <radialGradient id="radialGradient20-2-4-0-7-5" cx="30.952" cy="66.944" r="15.845" gradientTransform="matrix(.25637 0 0 .3005 2.0133 62.499)" gradientUnits="userSpaceOnUse" xlink:href="#linearGradient25"/>
  <radialGradient id="radialGradient20-2-4-0-4-9-3" cx="30.952" cy="66.944" r="15.845" gradientTransform="matrix(.25239 0 0 .29583 22.427 62.812)" gradientUnits="userSpaceOnUse" xlink:href="#linearGradient25"/>
  <radialGradient id="radialGradient20-2-4-0-7-56" cx="30.952" cy="66.944" r="15.845" gradientTransform="matrix(.14083 0 0 .16507 46.543 61.299)" gradientUnits="userSpaceOnUse" xlink:href="#linearGradient25"/>
  <radialGradient id="radialGradient20-2-4-0-7-56-9" cx="30.952" cy="66.944" r="15.845" gradientTransform="matrix(.14083 0 0 .16507 70.548 61.299)" gradientUnits="userSpaceOnUse" xlink:href="#linearGradient25"/>
  <radialGradient id="radialGradient20-2-4-0-7-56-6" cx="30.952" cy="66.944" r="15.845" gradientTransform="matrix(.14083 0 0 .16507 22.537 61.299)" gradientUnits="userSpaceOnUse" xlink:href="#linearGradient25"/>
 </defs>
 <path d="m6.4015 44.626h89.667s10.207-13.457-3.6193-26.023c-13.573-12.336-27.559-2.7321-27.559-2.7321s-8.6089-19.377-24.912-14.719c-16.303 4.658-17.61 18.136-17.61 18.136s-16.509 0.33524-19.226 10.622c-2.7172 10.286 3.2597 14.717 3.2597 14.717z" fill="url(#linearGradient232)"/>
 <path d="m3.9266 58.796h89.667s11.232-13.192 0.26976-28.321c-11.629-16.049-30.741-2.7321-30.741-2.7321s-9.316-17.079-25.619-12.421-17.079 19.02-17.079 19.02-17.04-0.54864-19.757 9.7378c-2.7172 10.286 3.2597 14.717 3.2597 14.717z" fill="url(#linearGradient230)"/>
 <g>
  <g stroke-width=".50479">
   <path d="m20.006 69.844-0.58733-0.36295a1.5466 1.6545 0 0 1 0.36172-0.29568 0.38004 0.40656 0 0 0-0.3676-0.71167 2.3082 2.4693 0 0 0-0.66593 0.59321l-1.522-0.94156 1.5217-0.9399a2.3054 2.4664 0 0 0 0.66593 0.59321 0.38004 0.40656 0 1 0 0.3676-0.71167 1.5502 1.6584 0 0 1-0.36172-0.29568l0.58733-0.36295a0.38004 0.40656 0 1 0-0.37969-0.70391l-0.58733 0.36276a1.5502 1.6584 0 0 1-0.05908-0.48326 0.38004 0.40656 0 0 0-0.37278-0.41543h-0.0071a0.38004 0.40656 0 0 0-0.38004 0.39898 2.308 2.4691 0 0 0 0.14683 0.9131l-1.5217 0.94045v-1.8796a2.3061 2.4671 0 0 0 0.8131-0.32026 0.38006 0.40659 0 0 0-0.3923-0.69652 1.5471 1.6551 0 0 1-0.4208 0.18684v-0.61483a0.38004 0.40656 0 0 0-0.76007 0v0.61483a1.5471 1.6551 0 0 1-0.4208-0.18684 0.38006 0.40659 0 1 0-0.3923 0.69652 2.3061 2.4671 0 0 0 0.8131 0.32026v1.8796l-1.5217-0.94045a2.308 2.4691 0 0 0 0.14718-0.91347 0.38004 0.40656 0 0 0-0.38004-0.39898h-0.0074a0.38004 0.40656 0 0 0-0.37295 0.41414 1.5502 1.6584 0 0 1-0.0589 0.48399l-0.58733-0.36184a0.38004 0.40656 0 1 0-0.38004 0.70409l0.58733 0.36295a1.5502 1.6584 0 0 1-0.36172 0.29568 0.38004 0.40656 0 1 0 0.3676 0.71167 2.3082 2.4693 0 0 0 0.66593-0.59321l1.522 0.93971-1.5217 0.9399a2.3082 2.4693 0 0 0-0.66593-0.59321 0.38004 0.40656 0 1 0-0.3676 0.71167 1.5502 1.6584 0 0 1 0.36172 0.29568l-0.58767 0.36461a0.38004 0.40656 0 1 0 0.38004 0.70409l0.58733-0.36276a1.5502 1.6584 0 0 1 0.05908 0.48326 0.38004 0.40656 0 0 0 0.37278 0.41358h0.0071a0.38004 0.40656 0 0 0 0.38004-0.39899 2.308 2.4691 0 0 0-0.14683-0.9131l1.5217-0.94045v1.8796a2.3061 2.4671 0 0 0-0.8131 0.32026 0.38006 0.40659 0 1 0 0.3923 0.69651 1.5471 1.6551 0 0 1 0.4208-0.18683v0.61483a0.38004 0.40656 0 0 0 0.76007 0v-0.61483a1.5471 1.6551 0 0 1 0.4208 0.18683 0.38006 0.40659 0 0 0 0.3923-0.69651 2.3061 2.4671 0 0 0-0.8131-0.32026v-1.8796l1.5217 0.94045a2.308 2.4691 0 0 0-0.14718 0.91347 0.38004 0.40656 0 0 0 0.38004 0.39899h0.0074a0.38004 0.40656 0 0 0 0.37295-0.41414 1.5502 1.6584 0 0 1 0.0589-0.48399l0.58733 0.36276a0.38004 0.40656 0 1 0 0.38004-0.70316z" fill="url(#radialGradient20)" stroke="url(#radialGradient20)"/>
   <path d="m89.78 69.843-0.58733-0.36295a1.5466 1.6545 0 0 1 0.36172-0.29568 0.38004 0.40656 0 0 0-0.3676-0.71167 2.3082 2.4693 0 0 0-0.66593 0.59321l-1.522-0.94156 1.5217-0.9399a2.3054 2.4664 0 0 0 0.66593 0.59321 0.38004 0.40656 0 1 0 0.3676-0.71167 1.5502 1.6584 0 0 1-0.36172-0.29568l0.58733-0.36295a0.38004 0.40656 0 1 0-0.37969-0.70391l-0.58733 0.36276a1.5502 1.6584 0 0 1-0.05908-0.48326 0.38004 0.40656 0 0 0-0.37278-0.41543h-0.0071a0.38004 0.40656 0 0 0-0.38004 0.39898 2.308 2.4691 0 0 0 0.14683 0.9131l-1.5217 0.94045v-1.8796a2.3061 2.4671 0 0 0 0.8131-0.32026 0.38006 0.40659 0 0 0-0.3923-0.69652 1.5471 1.6551 0 0 1-0.4208 0.18684v-0.61483a0.38004 0.40656 0 0 0-0.76007 0v0.61483a1.5471 1.6551 0 0 1-0.4208-0.18684 0.38006 0.40659 0 1 0-0.3923 0.69652 2.3061 2.4671 0 0 0 0.8131 0.32026v1.8796l-1.5217-0.94045a2.308 2.4691 0 0 0 0.14718-0.91347 0.38004 0.40656 0 0 0-0.38004-0.39898h-0.0074a0.38004 0.40656 0 0 0-0.37295 0.41414 1.5502 1.6584 0 0 1-0.0589 0.48399l-0.58733-0.36184a0.38004 0.40656 0 1 0-0.38004 0.70409l0.58733 0.36295a1.5502 1.6584 0 0 1-0.36173 0.29568 0.38004 0.40656 0 1 0 0.3676 0.71167 2.3082 2.4693 0 0 0 0.66593-0.59321l1.522 0.93971-1.5217 0.9399a2.3082 2.4693 0 0 0-0.66593-0.59321 0.38004 0.40656 0 1 0-0.3676 0.71167 1.5502 1.6584 0 0 1 0.36172 0.29568l-0.58768 0.36461a0.38004 0.40656 0 1 0 0.38004 0.70409l0.58733-0.36276a1.5502 1.6584 0 0 1 0.05908 0.48325 0.38004 0.40656 0 0 0 0.37278 0.41358h0.0071a0.38004 0.40656 0 0 0 0.38004-0.39899 2.308 2.4691 0 0 0-0.14683-0.9131l1.5217-0.94045v1.8796a2.3061 2.4671 0 0 0-0.8131 0.32026 0.38006 0.40659 0 1 0 0.3923 0.69651 1.5471 1.6551 0 0 1 0.4208-0.18683v0.61483a0.38004 0.40656 0 0 0 0.76007 0v-0.61483a1.5471 1.6551 0 0 1 0.4208 0.18683 0.38006 0.40659 0 0 0 0.3923-0.69651 2.3061 2.4671 0 0 0-0.8131-0.32026v-1.8796l1.5217 0.94045a2.308 2.4691 0 0 0-0.14718 0.91347 0.38004 0.40656 0 0 0 0.38004 0.39899h0.0074a0.38004 0.40656 0 0 0 0.37295-0.41414 1.5502 1.6584 0 0 1 0.0589-0.48399l0.58733 0.36276a0.38004 0.40656 0 1 0 0.38004-0.70316z" fill="url(#radialGradient20-2-4)" stroke="url(#radialGradient20-2-4)"/>
   <path d="m66.522 69.843-0.58733-0.36295a1.5466 1.6545 0 0 1 0.36172-0.29568 0.38004 0.40656 0 0 0-0.3676-0.71167 2.3082 2.4693 0 0 0-0.66593 0.59321l-1.522-0.94156 1.5217-0.9399a2.3054 2.4664 0 0 0 0.66593 0.59321 0.38004 0.40656 0 1 0 0.3676-0.71167 1.5502 1.6584 0 0 1-0.36172-0.29568l0.58733-0.36295a0.38004 0.40656 0 1 0-0.37969-0.70391l-0.58733 0.36276a1.5502 1.6584 0 0 1-0.05908-0.48326 0.38004 0.40656 0 0 0-0.37278-0.41543h-0.0071a0.38004 0.40656 0 0 0-0.38004 0.39898 2.308 2.4691 0 0 0 0.14683 0.9131l-1.5217 0.94045v-1.8796a2.3061 2.4671 0 0 0 0.8131-0.32026 0.38006 0.40659 0 0 0-0.3923-0.69652 1.5471 1.6551 0 0 1-0.4208 0.18684v-0.61483a0.38004 0.40656 0 0 0-0.76007 0v0.61483a1.5471 1.6551 0 0 1-0.4208-0.18684 0.38006 0.40659 0 1 0-0.3923 0.69652 2.3061 2.4671 0 0 0 0.8131 0.32026v1.8796l-1.5217-0.94045a2.308 2.4691 0 0 0 0.14718-0.91347 0.38004 0.40656 0 0 0-0.38004-0.39898h-0.0074a0.38004 0.40656 0 0 0-0.37295 0.41414 1.5502 1.6584 0 0 1-0.0589 0.48399l-0.58733-0.36184a0.38004 0.40656 0 1 0-0.38004 0.70409l0.58733 0.36295a1.5502 1.6584 0 0 1-0.36172 0.29568 0.38004 0.40656 0 1 0 0.3676 0.71167 2.3082 2.4693 0 0 0 0.66593-0.59321l1.522 0.93971-1.5217 0.9399a2.3082 2.4693 0 0 0-0.66593-0.59321 0.38004 0.40656 0 1 0-0.3676 0.71167 1.5502 1.6584 0 0 1 0.36172 0.29568l-0.58767 0.36461a0.38004 0.40656 0 1 0 0.38004 0.70409l0.58733-0.36276a1.5502 1.6584 0 0 1 0.05908 0.48325 0.38004 0.40656 0 0 0 0.37278 0.41358h0.0071a0.38004 0.40656 0 0 0 0.38004-0.39899 2.308 2.4691 0 0 0-0.14683-0.9131l1.5217-0.94045v1.8796a2.3061 2.4671 0 0 0-0.8131 0.32026 0.38006 0.40659 0 1 0 0.3923 0.69651 1.5471 1.6551 0 0 1 0.4208-0.18683v0.61483a0.38004 0.40656 0 0 0 0.76007 0v-0.61483a1.5471 1.6551 0 0 1 0.4208 0.18683 0.38006 0.40659 0 0 0 0.3923-0.69651 2.3061 2.4671 0 0 0-0.8131-0.32026v-1.8796l1.5217 0.94045a2.308 2.4691 0 0 0-0.14718 0.91347 0.38004 0.40656 0 0 0 0.38004 0.39899h0.0074a0.38004 0.40656 0 0 0 0.37295-0.41414 1.5502 1.6584 0 0 1 0.0589-0.48399l0.58733 0.36276a0.38004 0.40656 0 1 0 0.38004-0.70316z" fill="url(#radialGradient20-2-4-0-4)" stroke="url(#radialGradient20-2-4-0-4)"/>
  </g>
  <path d="m44.207 70.331-0.75395-0.46592a1.9853 2.1239 0 0 1 0.46435-0.37957 0.48785 0.5219 0 0 0-0.47189-0.91357 2.963 3.1698 0 0 0-0.85485 0.7615l-1.9538-1.2087 1.9534-1.2065a2.9595 3.1661 0 0 0 0.85485 0.7615 0.48785 0.5219 0 1 0 0.47188-0.91357 1.99 2.1289 0 0 1-0.46434-0.37956l0.75395-0.46592a0.48785 0.5219 0 1 0-0.48741-0.9036l-0.75395 0.46568a1.99 2.1289 0 0 1-0.07584-0.62035 0.48785 0.5219 0 0 0-0.47854-0.53329h-0.0091a0.48785 0.5219 0 0 0-0.48785 0.51217 2.9628 3.1696 0 0 0 0.18849 1.1721l-1.9534 1.2073v-2.4129a2.9604 3.167 0 0 0 1.0438-0.41112 0.48789 0.52194 0 0 0-0.5036-0.89412 1.986 2.1246 0 0 1-0.54019 0.23984v-0.78926a0.48785 0.5219 0 0 0-0.9757 0v0.78926a1.986 2.1246 0 0 1-0.54019-0.23984 0.48789 0.52194 0 1 0-0.5036 0.89412 2.9604 3.167 0 0 0 1.0438 0.41112v2.4129l-1.9535-1.2073a2.9628 3.1696 0 0 0 0.18893-1.1726 0.48785 0.5219 0 0 0-0.48785-0.51218h-0.0095a0.48785 0.5219 0 0 0-0.47876 0.53163 1.99 2.1289 0 0 1-0.07561 0.6213l-0.75395-0.46449a0.48785 0.5219 0 1 0-0.48785 0.90384l0.75395 0.46592a1.99 2.1289 0 0 1-0.46435 0.37957 0.48785 0.5219 0 1 0 0.47189 0.91357 2.963 3.1698 0 0 0 0.85485-0.7615l1.9538 1.2063-1.9534 1.2065a2.963 3.1698 0 0 0-0.85485-0.7615 0.48785 0.5219 0 1 0-0.47188 0.91357 1.99 2.1289 0 0 1 0.46435 0.37957l-0.7544 0.46805a0.48785 0.5219 0 1 0 0.48785 0.90384l0.75395-0.46568a1.99 2.1289 0 0 1 0.07584 0.62035 0.48785 0.5219 0 0 0 0.47854 0.53092h0.0091a0.48785 0.5219 0 0 0 0.48785-0.51218 2.9628 3.1696 0 0 0-0.18849-1.1721l1.9534-1.2073v2.4128a2.9604 3.167 0 0 0-1.0438 0.41112 0.48789 0.52194 0 1 0 0.5036 0.89411 1.986 2.1246 0 0 1 0.54018-0.23984v0.78926a0.48785 0.5219 0 0 0 0.9757 0v-0.78926a1.986 2.1246 0 0 1 0.54018 0.23984 0.48789 0.52194 0 0 0 0.5036-0.89411 2.9604 3.167 0 0 0-1.0438-0.41112v-2.4128l1.9534 1.2073a2.9628 3.1696 0 0 0-0.18893 1.1726 0.48785 0.5219 0 0 0 0.48785 0.51218h0.0095a0.48785 0.5219 0 0 0 0.47876-0.53163 1.99 2.1289 0 0 1 0.07561-0.6213l0.75395 0.46568a0.48785 0.5219 0 1 0 0.48785-0.90265z" fill="url(#radialGradient20-2-4-0-4-9)" stroke="url(#radialGradient20-2-4-0-4-9)" stroke-width=".648"/>
  <path d="m33.775 84.334-0.58733-0.36295a1.5466 1.6545 0 0 1 0.36172-0.29568 0.38004 0.40656 0 0 0-0.3676-0.71167 2.3082 2.4693 0 0 0-0.66593 0.59321l-1.522-0.94156 1.5217-0.9399a2.3054 2.4664 0 0 0 0.66593 0.59321 0.38004 0.40656 0 1 0 0.3676-0.71167 1.5502 1.6584 0 0 1-0.36172-0.29568l0.58733-0.36295a0.38004 0.40656 0 1 0-0.37969-0.70391l-0.58733 0.36276a1.5502 1.6584 0 0 1-0.05908-0.48326 0.38004 0.40656 0 0 0-0.37278-0.41543h-0.0071a0.38004 0.40656 0 0 0-0.38004 0.39898 2.308 2.4691 0 0 0 0.14683 0.9131l-1.5217 0.94045v-1.8796a2.3061 2.4671 0 0 0 0.8131-0.32026 0.38006 0.40659 0 0 0-0.3923-0.69652 1.5471 1.6551 0 0 1-0.4208 0.18684v-0.61483a0.38004 0.40656 0 0 0-0.76007 0v0.61483a1.5471 1.6551 0 0 1-0.4208-0.18684 0.38006 0.40659 0 1 0-0.3923 0.69652 2.3061 2.4671 0 0 0 0.8131 0.32026v1.8796l-1.5217-0.94045a2.308 2.4691 0 0 0 0.14718-0.91347 0.38004 0.40656 0 0 0-0.38004-0.39898h-0.0074a0.38004 0.40656 0 0 0-0.37295 0.41414 1.5502 1.6584 0 0 1-0.0589 0.48399l-0.58733-0.36184a0.38004 0.40656 0 1 0-0.38004 0.70409l0.58733 0.36295a1.5502 1.6584 0 0 1-0.36172 0.29568 0.38004 0.40656 0 1 0 0.3676 0.71167 2.3082 2.4693 0 0 0 0.66593-0.59321l1.522 0.93971-1.5217 0.9399a2.3082 2.4693 0 0 0-0.66593-0.59321 0.38004 0.40656 0 1 0-0.3676 0.71167 1.5502 1.6584 0 0 1 0.36172 0.29568l-0.58767 0.36461a0.38004 0.40656 0 1 0 0.38004 0.70409l0.58733-0.36276a1.5502 1.6584 0 0 1 0.05908 0.48325 0.38004 0.40656 0 0 0 0.37278 0.41358h0.0071a0.38004 0.40656 0 0 0 0.38004-0.39899 2.308 2.4691 0 0 0-0.14683-0.9131l1.5217-0.94045v1.8796a2.3061 2.4671 0 0 0-0.8131 0.32026 0.38006 0.40659 0 1 0 0.3923 0.69651 1.5471 1.6551 0 0 1 0.4208-0.18683v0.61483a0.38004 0.40656 0 0 0 0.76007 0v-0.61483a1.5471 1.6551 0 0 1 0.4208 0.18683 0.38006 0.40659 0 0 0 0.3923-0.69651 2.3061 2.4671 0 0 0-0.8131-0.32026v-1.8796l1.5217 0.94045a2.308 2.4691 0 0 0-0.14718 0.91347 0.38004 0.40656 0 0 0 0.38004 0.39899h0.0074a0.38004 0.40656 0 0 0 0.37295-0.41414 1.5502 1.6584 0 0 1 0.0589-0.48399l0.58733 0.36276a0.38004 0.40656 0 1 0 0.38004-0.70316z" fill="url(#radialGradient20-2-4-0-4-9-3)" stroke="url(#radialGradient20-2-4-0-4-9-3)" stroke-width=".50479"/>
  <path d="m54.062 84.334-0.58733-0.36295a1.5466 1.6545 0 0 1 0.36172-0.29568 0.38004 0.40656 0 0 0-0.3676-0.71167 2.3082 2.4693 0 0 0-0.66593 0.59321l-1.522-0.94156 1.5217-0.9399a2.3054 2.4664 0 0 0 0.66593 0.59321 0.38004 0.40656 0 1 0 0.3676-0.71167 1.5502 1.6584 0 0 1-0.36172-0.29568l0.58733-0.36295a0.38004 0.40656 0 1 0-0.37969-0.7039l-0.58733 0.36276a1.5502 1.6584 0 0 1-0.05908-0.48326 0.38004 0.40656 0 0 0-0.37278-0.41543h-0.0071a0.38004 0.40656 0 0 0-0.38004 0.39898 2.308 2.4691 0 0 0 0.14683 0.9131l-1.5217 0.94045v-1.8796a2.3061 2.4671 0 0 0 0.8131-0.32026 0.38006 0.40659 0 0 0-0.3923-0.69652 1.5471 1.6551 0 0 1-0.4208 0.18684v-0.61483a0.38004 0.40656 0 0 0-0.76007 0v0.61483a1.5471 1.6551 0 0 1-0.4208-0.18684 0.38006 0.40659 0 1 0-0.3923 0.69652 2.3061 2.4671 0 0 0 0.8131 0.32026v1.8796l-1.5217-0.94045a2.308 2.4691 0 0 0 0.14718-0.91347 0.38004 0.40656 0 0 0-0.38004-0.39898h-0.0074a0.38004 0.40656 0 0 0-0.37295 0.41414 1.5502 1.6584 0 0 1-0.0589 0.48399l-0.58733-0.36184a0.38004 0.40656 0 1 0-0.38004 0.70409l0.58733 0.36295a1.5502 1.6584 0 0 1-0.36172 0.29568 0.38004 0.40656 0 1 0 0.3676 0.71167 2.3082 2.4693 0 0 0 0.66593-0.59321l1.522 0.93971-1.5217 0.9399a2.3082 2.4693 0 0 0-0.66593-0.59321 0.38004 0.40656 0 1 0-0.3676 0.71167 1.5502 1.6584 0 0 1 0.36172 0.29568l-0.58768 0.36461a0.38004 0.40656 0 1 0 0.38004 0.70409l0.58734-0.36276a1.5502 1.6584 0 0 1 0.05908 0.48326 0.38004 0.40656 0 0 0 0.37278 0.41358h0.0071a0.38004 0.40656 0 0 0 0.38004-0.39899 2.308 2.4691 0 0 0-0.14683-0.9131l1.5217-0.94045v1.8796a2.3061 2.4671 0 0 0-0.8131 0.32026 0.38006 0.40659 0 1 0 0.3923 0.69651 1.5471 1.6551 0 0 1 0.4208-0.18683v0.61483a0.38004 0.40656 0 0 0 0.76007 0v-0.61483a1.5471 1.6551 0 0 1 0.4208 0.18683 0.38006 0.40659 0 0 0 0.3923-0.69651 2.3061 2.4671 0 0 0-0.8131-0.32026v-1.8796l1.5217 0.94045a2.308 2.4691 0 0 0-0.14718 0.91347 0.38004 0.40656 0 0 0 0.38004 0.39899h0.0074a0.38004 0.40656 0 0 0 0.37295-0.41414 1.5502 1.6584 0 0 1 0.0589-0.48399l0.58733 0.36276a0.38004 0.40656 0 1 0 0.38004-0.70317z" fill="url(#radialGradient20-2-4-0-7)" stroke="url(#radialGradient20-2-4-0-7)" stroke-width=".50479"/>
  <g stroke-width=".282">
   <path d="m52.874 73.308-0.32771-0.20251a0.86294 0.92317 0 0 1 0.20183-0.16498 0.21205 0.22685 0 0 0-0.20511-0.39709 1.2879 1.3778 0 0 0-0.37156 0.33099l-0.84925-0.52536 0.84906-0.52443a1.2864 1.3761 0 0 0 0.37156 0.33099 0.21205 0.22685 0 1 0 0.20511-0.39709 0.86496 0.92533 0 0 1-0.20183-0.16498l0.32771-0.20251a0.21205 0.22685 0 1 0-0.21186-0.39276l-0.32771 0.20241a0.86496 0.92533 0 0 1-0.03297-0.26964 0.21205 0.22685 0 0 0-0.208-0.2318h-4e-3a0.21205 0.22685 0 0 0-0.21205 0.22262 1.2878 1.3777 0 0 0 0.08193 0.50948l-0.84902 0.52474v-1.0488a1.2867 1.3766 0 0 0 0.45368-0.17869 0.21206 0.22686 0 0 0-0.21889-0.38863 0.86322 0.92348 0 0 1-0.23479 0.10425v-0.34306a0.21205 0.22685 0 0 0-0.42409 0v0.34306a0.86322 0.92348 0 0 1-0.23479-0.10425 0.21206 0.22686 0 1 0-0.21889 0.38863 1.2867 1.3766 0 0 0 0.45368 0.17869v1.0488l-0.84907-0.52474a1.2878 1.3777 0 0 0 0.08212-0.50968 0.21205 0.22685 0 0 0-0.21205-0.22262h-0.0041a0.21205 0.22685 0 0 0-0.2081 0.23108 0.86496 0.92533 0 0 1-0.03286 0.27005l-0.32771-0.20189a0.21205 0.22685 0 1 0-0.21205 0.39286l0.32771 0.20251a0.86496 0.92533 0 0 1-0.20183 0.16498 0.21205 0.22685 0 1 0 0.20511 0.39709 1.2879 1.3778 0 0 0 0.37156-0.33099l0.84925 0.52433-0.84906 0.52443a1.2879 1.3778 0 0 0-0.37156-0.33099 0.21205 0.22685 0 1 0-0.20511 0.39708 0.86496 0.92533 0 0 1 0.20183 0.16498l-0.3279 0.20344a0.21205 0.22685 0 1 0 0.21205 0.39286l0.32772-0.20241a0.86496 0.92533 0 0 1 0.03297 0.26964 0.21205 0.22685 0 0 0 0.208 0.23076h4e-3a0.21205 0.22685 0 0 0 0.21205-0.22262 1.2878 1.3777 0 0 0-0.08193-0.50948l0.84906-0.52474v1.0488a1.2867 1.3766 0 0 0-0.45368 0.17869 0.21206 0.22686 0 1 0 0.21889 0.38863 0.86322 0.92348 0 0 1 0.23479-0.10425v0.34306a0.21205 0.22685 0 0 0 0.42409 0v-0.34306a0.86322 0.92348 0 0 1 0.23479 0.10425 0.21206 0.22686 0 0 0 0.21889-0.38863 1.2867 1.3766 0 0 0-0.45368-0.17869v-1.0488l0.84906 0.52474a1.2878 1.3777 0 0 0-0.08212 0.50969 0.21205 0.22685 0 0 0 0.21205 0.22262h0.0041a0.21205 0.22685 0 0 0 0.2081-0.23108 0.86496 0.92533 0 0 1 0.03286-0.27005l0.32771 0.20241a0.21205 0.22685 0 1 0 0.21205-0.39234z" fill="url(#radialGradient20-2-4-0-7-56)" stroke="url(#radialGradient20-2-4-0-7-56)"/>
   <path d="m76.88 73.308-0.32771-0.20251a0.86294 0.92317 0 0 1 0.20183-0.16498 0.21205 0.22685 0 0 0-0.20511-0.39709 1.2879 1.3778 0 0 0-0.37156 0.33099l-0.84925-0.52536 0.84906-0.52443a1.2864 1.3761 0 0 0 0.37156 0.33099 0.21205 0.22685 0 1 0 0.20511-0.39709 0.86496 0.92533 0 0 1-0.20183-0.16498l0.32771-0.20251a0.21205 0.22685 0 1 0-0.21186-0.39276l-0.32771 0.20241a0.86496 0.92533 0 0 1-0.03297-0.26964 0.21205 0.22685 0 0 0-0.208-0.2318h-4e-3a0.21205 0.22685 0 0 0-0.21205 0.22262 1.2878 1.3777 0 0 0 0.08193 0.50948l-0.84902 0.52474v-1.0488a1.2867 1.3766 0 0 0 0.45368-0.17869 0.21206 0.22686 0 0 0-0.21889-0.38863 0.86322 0.92348 0 0 1-0.23479 0.10425v-0.34306a0.21205 0.22685 0 0 0-0.42409 0v0.34306a0.86322 0.92348 0 0 1-0.23479-0.10425 0.21206 0.22686 0 1 0-0.21889 0.38863 1.2867 1.3766 0 0 0 0.45368 0.17869v1.0488l-0.84907-0.52474a1.2878 1.3777 0 0 0 0.08212-0.50968 0.21205 0.22685 0 0 0-0.21205-0.22262h-0.0041a0.21205 0.22685 0 0 0-0.2081 0.23108 0.86496 0.92533 0 0 1-0.03286 0.27005l-0.32771-0.20189a0.21205 0.22685 0 1 0-0.21205 0.39286l0.32771 0.20251a0.86496 0.92533 0 0 1-0.20183 0.16498 0.21205 0.22685 0 1 0 0.20511 0.39709 1.2879 1.3778 0 0 0 0.37156-0.33099l0.84925 0.52433-0.84906 0.52443a1.2879 1.3778 0 0 0-0.37156-0.33099 0.21205 0.22685 0 1 0-0.20511 0.39708 0.86496 0.92533 0 0 1 0.20183 0.16498l-0.3279 0.20344a0.21205 0.22685 0 1 0 0.21205 0.39286l0.32772-0.20241a0.86496 0.92533 0 0 1 0.03297 0.26964 0.21205 0.22685 0 0 0 0.208 0.23076h4e-3a0.21205 0.22685 0 0 0 0.21205-0.22262 1.2878 1.3777 0 0 0-0.08193-0.50948l0.84906-0.52474v1.0488a1.2867 1.3766 0 0 0-0.45368 0.17869 0.21206 0.22686 0 1 0 0.21889 0.38863 0.86322 0.92348 0 0 1 0.23479-0.10425v0.34306a0.21205 0.22685 0 0 0 0.42409 0v-0.34306a0.86322 0.92348 0 0 1 0.23479 0.10425 0.21206 0.22686 0 0 0 0.21889-0.38863 1.2867 1.3766 0 0 0-0.45368-0.17869v-1.0488l0.84906 0.52474a1.2878 1.3777 0 0 0-0.08212 0.50969 0.21205 0.22685 0 0 0 0.21205 0.22262h0.0041a0.21205 0.22685 0 0 0 0.2081-0.23108 0.86496 0.92533 0 0 1 0.03286-0.27005l0.32771 0.20241a0.21205 0.22685 0 1 0 0.21205-0.39234z" fill="url(#radialGradient20-2-4-0-7-56-9)" stroke="url(#radialGradient20-2-4-0-7-56-9)"/>
   <path d="m28.869 73.308-0.32771-0.20251a0.86294 0.92317 0 0 1 0.20183-0.16498 0.21205 0.22685 0 0 0-0.20511-0.39709 1.2879 1.3778 0 0 0-0.37156 0.33099l-0.84925-0.52536 0.84906-0.52443a1.2864 1.3761 0 0 0 0.37156 0.33099 0.21205 0.22685 0 1 0 0.20511-0.39709 0.86496 0.92533 0 0 1-0.20183-0.16498l0.32771-0.20251a0.21205 0.22685 0 1 0-0.21186-0.39276l-0.32771 0.20241a0.86496 0.92533 0 0 1-0.03297-0.26964 0.21205 0.22685 0 0 0-0.208-0.2318h-4e-3a0.21205 0.22685 0 0 0-0.21205 0.22262 1.2878 1.3777 0 0 0 0.08193 0.50948l-0.84902 0.52474v-1.0488a1.2867 1.3766 0 0 0 0.45368-0.17869 0.21206 0.22686 0 0 0-0.21889-0.38863 0.86322 0.92348 0 0 1-0.23479 0.10425v-0.34306a0.21205 0.22685 0 0 0-0.42409 0v0.34306a0.86322 0.92348 0 0 1-0.23479-0.10425 0.21206 0.22686 0 1 0-0.21889 0.38863 1.2867 1.3766 0 0 0 0.45368 0.17869v1.0488l-0.84907-0.52474a1.2878 1.3777 0 0 0 0.08212-0.50968 0.21205 0.22685 0 0 0-0.21205-0.22262h-0.0041a0.21205 0.22685 0 0 0-0.2081 0.23108 0.86496 0.92533 0 0 1-0.03286 0.27005l-0.32771-0.20189a0.21205 0.22685 0 1 0-0.21205 0.39286l0.32771 0.20251a0.86496 0.92533 0 0 1-0.20183 0.16498 0.21205 0.22685 0 1 0 0.20511 0.39709 1.2879 1.3778 0 0 0 0.37156-0.33099l0.84925 0.52433-0.84906 0.52443a1.2879 1.3778 0 0 0-0.37156-0.33099 0.21205 0.22685 0 1 0-0.20511 0.39708 0.86496 0.92533 0 0 1 0.20183 0.16498l-0.3279 0.20344a0.21205 0.22685 0 1 0 0.21205 0.39286l0.32772-0.20241a0.86496 0.92533 0 0 1 0.03297 0.26964 0.21205 0.22685 0 0 0 0.208 0.23076h4e-3a0.21205 0.22685 0 0 0 0.21205-0.22262 1.2878 1.3777 0 0 0-0.08193-0.50948l0.84906-0.52474v1.0488a1.2867 1.3766 0 0 0-0.45368 0.17869 0.21206 0.22686 0 1 0 0.21889 0.38863 0.86322 0.92348 0 0 1 0.23479-0.10425v0.34306a0.21205 0.22685 0 0 0 0.42409 0v-0.34306a0.86322 0.92348 0 0 1 0.23479 0.10425 0.21206 0.22686 0 0 0 0.21889-0.38863 1.2867 1.3766 0 0 0-0.45368-0.17869v-1.0488l0.84906 0.52474a1.2878 1.3777 0 0 0-0.08212 0.50969 0.21205 0.22685 0 0 0 0.21205 0.22262h0.0041a0.21205 0.22685 0 0 0 0.2081-0.23108 0.86496 0.92533 0 0 1 0.03286-0.27005l0.32771 0.20241a0.21205 0.22685 0 1 0 0.21205-0.39234z" fill="url(#radialGradient20-2-4-0-7-56-6)" stroke="url(#radialGradient20-2-4-0-7-56-6)"/>
  </g>
  <path d="m13.54 84.362-0.59659-0.36867a1.571 1.6806 0 0 1 0.36743-0.30034 0.38603 0.41297 0 0 0-0.3734-0.72289 2.3446 2.5082 0 0 0-0.67643 0.60256l-1.546-0.95641 1.5457-0.95472a2.3418 2.5052 0 0 0 0.67643 0.60256 0.38603 0.41297 0 1 0 0.37339-0.72289 1.5746 1.6846 0 0 1-0.36743-0.30034l0.59659-0.36867a0.38603 0.41297 0 1 0-0.38568-0.715l-0.59659 0.36848a1.5746 1.6846 0 0 1-0.06001-0.49088 0.38603 0.41297 0 0 0-0.37866-0.42198h-0.0072a0.38603 0.41297 0 0 0-0.38603 0.40527 2.3444 2.5081 0 0 0 0.14915 0.9275l-1.5457 0.95528v-1.9092a2.3425 2.506 0 0 0 0.82593-0.32531 0.38606 0.413 0 0 0-0.39849-0.7075 1.5715 1.6812 0 0 1-0.42744 0.18978v-0.62453a0.38603 0.41297 0 0 0-0.77206 0v0.62453a1.5715 1.6812 0 0 1-0.42744-0.18978 0.38606 0.413 0 1 0-0.39849 0.7075 2.3425 2.506 0 0 0 0.82592 0.32531v1.9092l-1.5457-0.95528a2.3444 2.5081 0 0 0 0.1495-0.92788 0.38603 0.41297 0 0 0-0.38603-0.40528h-0.00752a0.38603 0.41297 0 0 0-0.37883 0.42067 1.5746 1.6846 0 0 1-0.059829 0.49162l-0.59659-0.36754a0.38603 0.41297 0 1 0-0.38603 0.71519l0.59659 0.36867a1.5746 1.6846 0 0 1-0.36743 0.30034 0.38603 0.41297 0 1 0 0.37339 0.72289 2.3446 2.5082 0 0 0 0.67643-0.60256l1.546 0.95453-1.5457 0.95472a2.3446 2.5082 0 0 0-0.67643-0.60256 0.38603 0.41297 0 1 0-0.37339 0.72289 1.5746 1.6846 0 0 1 0.36743 0.30034l-0.59694 0.37036a0.38603 0.41297 0 1 0 0.38603 0.71519l0.59661-0.36848a1.5746 1.6846 0 0 1 0.060012 0.49088 0.38603 0.41297 0 0 0 0.37866 0.4201h0.00721a0.38603 0.41297 0 0 0 0.38603-0.40528 2.3444 2.5081 0 0 0-0.14915-0.9275l1.5457-0.95528v1.9092a2.3425 2.506 0 0 0-0.82592 0.32531 0.38606 0.413 0 1 0 0.39849 0.7075 1.5715 1.6812 0 0 1 0.42744-0.18978v0.62453a0.38603 0.41297 0 0 0 0.77206 0v-0.62453a1.5715 1.6812 0 0 1 0.42744 0.18978 0.38606 0.413 0 0 0 0.39849-0.7075 2.3425 2.506 0 0 0-0.82593-0.32531v-1.9092l1.5457 0.95528a2.3444 2.5081 0 0 0-0.1495 0.92787 0.38603 0.41297 0 0 0 0.38603 0.40528h0.0075a0.38603 0.41297 0 0 0 0.37883-0.42067 1.5746 1.6846 0 0 1 0.05983-0.49162l0.59659 0.36848a0.38603 0.41297 0 1 0 0.38603-0.71425z" fill="url(#radialGradient20-2-4-0-7-5)" stroke="url(#radialGradient20-2-4-0-7-5)" stroke-width=".51275"/>
  <path d="m75.565 84.822-0.75395-0.46591a1.9853 2.1239 0 0 1 0.46434-0.37956 0.48785 0.5219 0 0 0-0.47188-0.91356 2.963 3.1698 0 0 0-0.85484 0.7615l-1.9538-1.2087 1.9534-1.2065a2.9595 3.166 0 0 0 0.85484 0.7615 0.48785 0.5219 0 1 0 0.47188-0.91356 1.99 2.1289 0 0 1-0.46434-0.37956l0.75395-0.46591a0.48785 0.5219 0 1 0-0.48741-0.9036l-0.75395 0.46568a1.99 2.1289 0 0 1-0.07584-0.62035 0.48785 0.5219 0 0 0-0.47853-0.53328h-0.0091a0.48785 0.5219 0 0 0-0.48785 0.51217 2.9628 3.1696 0 0 0 0.18849 1.1721l-1.9534 1.2072v-2.4128a2.9604 3.167 0 0 0 1.0438-0.41111 0.48788 0.52194 0 0 0-0.50359-0.89411 1.986 2.1246 0 0 1-0.54018 0.23984v-0.78926a0.48785 0.5219 0 0 0-0.9757 0v0.78926a1.986 2.1246 0 0 1-0.54018-0.23984 0.48788 0.52194 0 1 0-0.50359 0.89411 2.9604 3.167 0 0 0 1.0438 0.41111v2.4128l-1.9534-1.2072a2.9628 3.1696 0 0 0 0.18893-1.1726 0.48785 0.5219 0 0 0-0.48785-0.51217h-0.0095a0.48785 0.5219 0 0 0-0.47876 0.53163 1.99 2.1289 0 0 1-0.07561 0.62129l-0.75395-0.46449a0.48785 0.5219 0 1 0-0.48785 0.90383l0.75395 0.46591a1.99 2.1289 0 0 1-0.46434 0.37956 0.48785 0.5219 0 1 0 0.47188 0.91356 2.963 3.1698 0 0 0 0.85484-0.7615l1.9538 1.2063-1.9534 1.2065a2.963 3.1698 0 0 0-0.85484-0.7615 0.48785 0.5219 0 1 0-0.47188 0.91356 1.99 2.1289 0 0 1 0.46434 0.37957l-0.75439 0.46805a0.48785 0.5219 0 1 0 0.48785 0.90383l0.75395-0.46568a1.99 2.1289 0 0 1 0.07584 0.62035 0.48785 0.5219 0 0 0 0.47854 0.53091h0.0091a0.48785 0.5219 0 0 0 0.48785-0.51217 2.9628 3.1696 0 0 0-0.18849-1.1721l1.9534-1.2072v2.4128a2.9604 3.167 0 0 0-1.0438 0.41112 0.48788 0.52194 0 1 0 0.50359 0.89411 1.986 2.1246 0 0 1 0.54018-0.23983v0.78926a0.48785 0.5219 0 0 0 0.9757 0v-0.78926a1.986 2.1246 0 0 1 0.54018 0.23983 0.48788 0.52194 0 0 0 0.50359-0.89411 2.9604 3.167 0 0 0-1.0438-0.41112v-2.4128l1.9534 1.2072a2.9628 3.1696 0 0 0-0.18893 1.1726 0.48785 0.5219 0 0 0 0.48785 0.51217h0.0095a0.48785 0.5219 0 0 0 0.47876-0.53163 1.99 2.1289 0 0 1 0.07561-0.6213l0.75395 0.46568a0.48785 0.5219 0 1 0 0.48785-0.90265z" fill="url(#radialGradient20-2-4-0-7-2)" stroke="url(#radialGradient20-2-4-0-7-2)" stroke-width=".64799"/>
 </g>
</svg>
