<svg width="100" height="100" version="1.1" viewBox="0 0 100 100" xmlns="http://www.w3.org/2000/svg" xmlns:xlink="http://www.w3.org/1999/xlink">
 <defs>
  <linearGradient id="linearGradient27">
   <stop stop-color="#f8fafd" offset="0"/>
   <stop stop-color="#94b7e9" stop-opacity=".99608" offset="1"/>
  </linearGradient>
  <linearGradient id="linearGradient230" x1="47.158" x2="47.224" y1="14.736" y2="58.223" gradientUnits="userSpaceOnUse">
   <stop stop-color="#eeefef" offset="0"/>
   <stop stop-color="#717a8d" offset="1"/>
  </linearGradient>
  <linearGradient id="linearGradient232" x1="51.401" x2="50.552" y1=".076415" y2="44.271" gradientUnits="userSpaceOnUse">
   <stop stop-color="#f2f2f3" offset="0"/>
   <stop stop-color="#6f7478" offset="1"/>
  </linearGradient>
  <radialGradient id="radialGradient26" cx="18.43" cy="63.752" r="1.6455" gradientTransform="matrix(1.625 0 0 1.625 -13.117 -36.951)" gradientUnits="userSpaceOnUse" xlink:href="#linearGradient27"/>
  <radialGradient id="radialGradient26-8" cx="18.43" cy="63.752" r="1.6455" gradientTransform="matrix(1.625 0 0 1.625 13.91 -36.951)" gradientUnits="userSpaceOnUse" xlink:href="#linearGradient27"/>
  <radialGradient id="radialGradient26-8-8" cx="18.43" cy="63.752" r="1.6455" gradientTransform="matrix(1.625 0 0 1.625 40.938 -36.951)" gradientUnits="userSpaceOnUse" xlink:href="#linearGradient27"/>
  <radialGradient id="radialGradient26-8-8-5" cx="18.43" cy="63.752" r="1.6455" gradientTransform="matrix(1.625 0 0 1.625 25.161 -20.089)" gradientUnits="userSpaceOnUse" xlink:href="#linearGradient27"/>
  <radialGradient id="radialGradient26-8-8-5-0" cx="18.43" cy="63.752" r="1.6455" gradientTransform="matrix(1.625 0 0 1.625 -1.5677 -20.089)" gradientUnits="userSpaceOnUse" xlink:href="#linearGradient27"/>
  <radialGradient id="radialGradient26-8-8-5-0-4" cx="18.43" cy="63.752" r="1.6455" gradientTransform="matrix(1.625 0 0 1.625 51.89 -20.089)" gradientUnits="userSpaceOnUse" xlink:href="#linearGradient27"/>
 </defs>
 <path d="m6.4015 44.626h89.667s10.207-13.457-3.6193-26.023c-13.573-12.336-27.559-2.7321-27.559-2.7321s-8.6089-19.377-24.912-14.719c-16.303 4.658-17.61 18.136-17.61 18.136s-16.509 0.33524-19.226 10.622c-2.7172 10.286 3.2597 14.717 3.2597 14.717z" fill="url(#linearGradient232)"/>
 <path d="m3.9266 58.796h89.667s11.232-13.192 0.26976-28.321c-11.629-16.049-30.741-2.7321-30.741-2.7321s-9.316-17.079-25.619-12.421-17.079 19.02-17.079 19.02-17.04-0.54864-19.757 9.7378c-2.7172 10.286 3.2597 14.717 3.2597 14.717z" fill="url(#linearGradient230)"/>
 <g>
  <circle cx="16.831" cy="66.647" r="2.4448" fill="url(#radialGradient26)" style="paint-order:stroke fill markers"/>
  <circle cx="43.859" cy="66.647" r="2.4448" fill="url(#radialGradient26-8)" style="paint-order:stroke fill markers"/>
  <circle cx="70.886" cy="66.647" r="2.4448" fill="url(#radialGradient26-8-8)" style="paint-order:stroke fill markers"/>
  <circle cx="55.11" cy="83.509" r="2.4448" fill="url(#radialGradient26-8-8-5)" style="paint-order:stroke fill markers"/>
  <circle cx="28.381" cy="83.509" r="2.4448" fill="url(#radialGradient26-8-8-5-0)" style="paint-order:stroke fill markers"/>
  <circle cx="81.838" cy="83.509" r="2.4448" fill="url(#radialGradient26-8-8-5-0-4)" style="paint-order:stroke fill markers"/>
 </g>
</svg>
