<svg width="100" height="100" version="1.1" viewBox="0 0 100 100" xmlns="http://www.w3.org/2000/svg" xmlns:xlink="http://www.w3.org/1999/xlink">
 <defs>
  <linearGradient id="a">
   <stop stop-color="#f8fafd" offset="0"/>
   <stop stop-color="#94b7e9" stop-opacity=".99608" offset="1"/>
  </linearGradient>
  <linearGradient id="h" x1="47.158" x2="47.224" y1="14.736" y2="58.223" gradientUnits="userSpaceOnUse">
   <stop stop-color="#eeefef" offset="0"/>
   <stop stop-color="#717a8d" offset="1"/>
  </linearGradient>
  <linearGradient id="g" x1="51.401" x2="50.552" y1=".076415" y2="44.271" gradientUnits="userSpaceOnUse">
   <stop stop-color="#f2f2f3" offset="0"/>
   <stop stop-color="#6f7478" offset="1"/>
  </linearGradient>
  <radialGradient id="f" cx="18.43" cy="63.752" r="1.6455" gradientTransform="matrix(1.625 0 0 1.625 -13.117 -36.864)" gradientUnits="userSpaceOnUse" xlink:href="#a"/>
  <radialGradient id="e" cx="18.43" cy="63.752" r="1.6455" gradientTransform="matrix(1.625 0 0 1.625 19.041 -36.864)" gradientUnits="userSpaceOnUse" xlink:href="#a"/>
  <radialGradient id="d" cx="18.43" cy="63.752" r="1.6455" gradientTransform="matrix(1.625 0 0 1.625 51.201 -36.864)" gradientUnits="userSpaceOnUse" xlink:href="#a"/>
  <radialGradient id="c" cx="18.43" cy="63.752" r="1.6455" gradientTransform="matrix(1.625 0 0 1.625 30.553 -21.133)" gradientUnits="userSpaceOnUse" xlink:href="#a"/>
  <radialGradient id="b" cx="18.43" cy="63.752" r="1.6455" gradientTransform="matrix(1.625 0 0 1.625 3.8248 -21.133)" gradientUnits="userSpaceOnUse" xlink:href="#a"/>
 </defs>
 <path d="m6.4015 44.626h89.667s10.207-13.457-3.6193-26.023c-13.573-12.336-27.559-2.7321-27.559-2.7321s-8.6089-19.377-24.912-14.719c-16.303 4.658-17.61 18.136-17.61 18.136s-16.509 0.33524-19.226 10.622c-2.7172 10.286 3.2597 14.717 3.2597 14.717z" fill="url(#g)"/>
 <path d="m3.9266 58.796h89.667s11.232-13.192 0.26976-28.321c-11.629-16.049-30.741-2.7321-30.741-2.7321s-9.316-17.079-25.619-12.421-17.079 19.02-17.079 19.02-17.04-0.54864-19.757 9.7378c-2.7172 10.286 3.2597 14.717 3.2597 14.717z" fill="url(#h)"/>
 <circle cx="16.831" cy="66.734" r="2.4448" fill="url(#f)" style="paint-order:stroke fill markers"/>
 <circle cx="48.99" cy="66.734" r="2.4448" fill="url(#e)" style="paint-order:stroke fill markers"/>
 <circle cx="81.149" cy="66.734" r="2.4448" fill="url(#d)" style="paint-order:stroke fill markers"/>
 <circle cx="60.502" cy="82.465" r="2.4448" fill="url(#c)" style="paint-order:stroke fill markers"/>
 <circle cx="33.773" cy="82.465" r="2.4448" fill="url(#b)" style="paint-order:stroke fill markers"/>
</svg>
