<svg
   width="21"
   height="21"
   viewBox="0 0 21 21"
   fill="none"
   version="1.1"
   id="svg4"
   xmlns="http://www.w3.org/2000/svg"
   xmlnsSvg="http://www.w3.org/2000/svg">
  <defs
     id="defs4" />
  <g
     id="g4"
     transform="matrix(1.19598,0,0,1.19598,-2.0578618,-2.0579037)">
    <path
       d="M 9.67063,12.6342 H 6.70396 c -0.17556,0 -0.31773,0.1422 -0.31773,0.3177 v 4.6062 c 0,0.1755 0.14217,0.3177 0.31773,0.3177 h 2.96667 c 0.17556,0 0.31752,-0.1422 0.31752,-0.3177 v -4.6064 c 0,-0.1755 -0.14217,-0.3175 -0.31752,-0.3175 z"
       fill="currentcolor"
       id="path1" />
    <path
       d="m 14.2964,3.12439 h -2.9667 c -0.1756,0 -0.3177,0.14217 -0.3177,0.31773 V 17.5579 c 0,0.1756 0.1421,0.3177 0.3177,0.3177 h 2.9667 c 0.1755,0 0.3177,-0.1421 0.3177,-0.3177 V 3.44212 c 0,-0.17556 -0.1422,-0.31773 -0.3177,-0.31773 z"
       fill="currentcolor"
       id="path2" />
    <path
       d="m 18.9458,7.41278 h -2.9667 c -0.1756,0 -0.3177,0.14217 -0.3177,0.31773 v 9.82739 c 0,0.1755 0.1421,0.3177 0.3177,0.3177 h 2.9665 c 0.1755,0 0.3177,-0.1422 0.3177,-0.3177 V 7.73051 c 0,-0.17535 -0.1422,-0.31773 -0.3175,-0.31773 z"
       fill="currentcolor"
       id="path3" />
    <path
       d="M 5.02122,7.41278 H 2.05455 c -0.17556,0 -0.31773,0.14217 -0.31773,0.31773 v 9.82739 c 0,0.1755 0.14217,0.3177 0.31773,0.3177 h 2.96667 c 0.17556,0 0.31773,-0.1422 0.31773,-0.3177 V 7.73051 c 0,-0.17535 -0.14217,-0.31773 -0.31773,-0.31773 z"
       fill="currentcolor"
       id="path4" />
  </g>
</svg>
