<svg xmlns="http://www.w3.org/2000/svg" width="21" height="21" fill="none"><path fill="currentcolor" d="M9.508 13.052H5.96a.38.38 0 0 0-.38.38v5.51c0 .21.17.38.38.38h3.548c.21 0 .38-.17.38-.38v-5.51a.38.38 0 0 0-.38-.38M15.04 1.679h-3.548a.38.38 0 0 0-.38.38V18.94c0 .21.17.38.38.38h3.548c.21 0 .38-.17.38-.38V2.059a.38.38 0 0 0-.38-.38m5.56 5.129h-3.547a.38.38 0 0 0-.38.38V18.94c0 .21.17.38.38.38H20.6c.21 0 .38-.17.38-.38V7.188a.38.38 0 0 0-.38-.38m-16.653 0H.4a.38.38 0 0 0-.38.38V18.94c0 .21.17.38.38.38h3.548c.21 0 .38-.17.38-.38V7.188a.38.38 0 0 0-.38-.38"/></svg>