<svg xmlns="http://www.w3.org/2000/svg" width="15" height="15" fill="none"><path fill="#fff" d="M3 8.616c-.006.94.226 1.864.672 2.672a5.3 5.3 0 0 0 1.82 1.973A4.53 4.53 0 0 0 7.976 14a4.6 4.6 0 0 0 2.503-.739 5.3 5.3 0 0 0 1.84-1.973A5.5 5.5 0 0 0 13 8.615q.002-.933-.498-2.224A13.3 13.3 0 0 0 11.293 4a39 39 0 0 0-1.496-1.953C9.223 1.34 8.215.25 7.987 0L6.758 1.342a16.3 16.3 0 0 0-3.146 4.811C3.193 7.098 3 7.919 3 8.616"/><path fill="#303D31" d="M8.265 4.735a.375.375 0 0 0-.53 0L5.348 7.12a.375.375 0 1 0 .53.53L8 5.532l2.121 2.12a.375.375 0 0 0 .53-.53zM8.375 14V5h-.75v9z"/></svg>