<svg xmlns="http://www.w3.org/2000/svg" width="30" height="30" fill="none"><path fill="currentcolor" d="M23.915 1.628V.142H6.085v1.486a5.943 5.943 0 1 0 0 11.886H7.29a8.91 8.91 0 0 0 6.225 4.324v3.105H7.898l-2.229 8.915h18.662l-2.229-8.915h-5.616v-3.105a8.91 8.91 0 0 0 6.225-4.324h1.204a5.944 5.944 0 0 0 0-11.886m-17.83 8.915a2.972 2.972 0 0 1 0-5.944v4.458q-.001.748.134 1.486zm19.925-.877a2.97 2.97 0 0 1-2.095.877h-.134q.135-.737.134-1.486V4.599a2.97 2.97 0 0 1 2.972 2.972 2.97 2.97 0 0 1-.877 2.095" style="stroke-width:1.27356"/></svg>