<svg xmlns="http://www.w3.org/2000/svg" width="30" height="30" fill="none"><path stroke="currentcolor" stroke-linecap="round" stroke-linejoin="round" stroke-miterlimit="10" stroke-width="2.004" d="M15 3.823V1.7M1.019 3.823H28.98M16.075 20.809l3.765 6.9"/><path fill="currentcolor" d="M1.214 4.648v16.89c0 .56.225 1.097.626 1.493s.945.618 1.512.618H26.88c.567 0 1.111-.222 1.513-.618.4-.396.626-.933.626-1.493V4.648Zm23.213 6.024-6.416 6.334a1.07 1.07 0 0 1-.756.31 1.08 1.08 0 0 1-.756-.31l-2.453-2.42-3.521 3.476a1.07 1.07 0 0 1-.756.31 1.08 1.08 0 0 1-.756-.31l-2.14-2.112a1.06 1.06 0 0 1-.312-.746c0-.28.112-.548.313-.746a1.076 1.076 0 0 1 1.512 0l1.383 1.365 3.521-3.477a1.07 1.07 0 0 1 .756-.309 1.08 1.08 0 0 1 .756.31l2.453 2.42 5.66-5.587a1.076 1.076 0 0 1 1.512 0 1.05 1.05 0 0 1 0 1.492m-4.499 19.311c.886 0 1.604-.71 1.604-1.584s-.718-1.583-1.604-1.583-1.604.709-1.604 1.583c0 .875.718 1.584 1.604 1.584m-9.624 0c.885 0 1.604-.71 1.604-1.584s-.719-1.583-1.604-1.583-1.605.709-1.605 1.583c0 .875.719 1.584 1.605 1.584" style="stroke-width:1.06249" transform="translate(-.202 -.851)scale(1.0057)"/></svg>