<svg xmlns="http://www.w3.org/2000/svg" width="30" height="30" fill="none"><path fill="currentcolor" d="M29.983 29.983h-5.449V12.276a1.363 1.363 0 0 1 1.363-1.362h2.724a1.36 1.36 0 0 1 1.362 1.362Zm-8.173 0h-5.448V17.724a1.36 1.36 0 0 1 1.362-1.362h2.724a1.36 1.36 0 0 1 1.362 1.362zm-8.172 0H8.19V15a1.36 1.36 0 0 1 1.362-1.362h2.724A1.36 1.36 0 0 1 13.638 15zm-8.173 0H.017v-9.535a1.36 1.36 0 0 1 1.362-1.362h2.724a1.36 1.36 0 0 1 1.362 1.362zM27.259 5.465a2.724 2.724 0 1 0 0-5.448 2.724 2.724 0 0 0 0 5.448m-8.173 6.811a2.724 2.724 0 1 0 0-5.448 2.724 2.724 0 0 0 0 5.448M10.914 8.19a2.724 2.724 0 1 0 0-5.449 2.724 2.724 0 0 0 0 5.449m-8.173 5.448a2.724 2.724 0 1 0 0-5.448 2.724 2.724 0 0 0 0 5.448"/><path stroke="currentcolor" stroke-linecap="round" stroke-linejoin="round" stroke-miterlimit="10" stroke-width="2.361" d="m2.741 10.914 8.173-5.448 8.172 4.086 8.173-6.81"/></svg>