<svg xmlns="http://www.w3.org/2000/svg" width="11" height="13" fill="none"><g clip-path="url(#a)"><path fill="#fff" d="M.625 7.955q0-.887.486-2.036A11.4 11.4 0 0 1 2.37 3.694C3.425 2.31 4.345 1.262 5.116.554l.507-.482q.256.262.562.484c.277.282.703.746 1.272 1.403a37 37 0 0 1 1.466 1.782c.481.68.894 1.411 1.225 2.185q.498 1.159.5 2.036.002 1.007-.392 1.922a5 5 0 0 1-1.06 1.585q-.67.668-1.604 1.063a5 5 0 0 1-1.97.397 5 5 0 0 1-1.933-.384 4.9 4.9 0 0 1-1.596-1.041 4.9 4.9 0 0 1-1.069-1.58 4.9 4.9 0 0 1-.399-1.969m1.528-1.97q-.002.836.353 1.338.355.497 1.075.498c.487 0 .845-.168 1.089-.498q.355-.492.365-1.337c-.007-.565-.13-1.007-.365-1.344q-.357-.497-1.09-.498-.72.001-1.074.498c-.238.336-.353.78-.353 1.344m1.062 0V5.75c0-.053.008-.127.014-.22a.8.8 0 0 1 .034-.216c.02-.047.034-.107.061-.16s.06-.102.101-.123q.073-.04.156-.04a.3.3 0 0 1 .223.08.5.5 0 0 1 .115.256c.02.121.034.215.04.303.008.087.008.202.008.35 0 .154 0 .267-.008.349a4 4 0 0 1-.04.302.47.47 0 0 1-.115.256.3.3 0 0 1-.223.08.3.3 0 0 1-.156-.04.23.23 0 0 1-.1-.122 1 1 0 0 1-.096-.375c-.006-.095-.014-.169-.014-.216zm.4 5.21h.892l3.375-7.218H6.97zm2.908-2.01c.007.565.135 1.007.372 1.345.237.329.602.497 1.082.497q.73-.002 1.082-.497c.238-.33.352-.78.36-1.345-.008-.565-.122-1.007-.36-1.337-.237-.33-.595-.497-1.082-.497-.48 0-.846.167-1.082.497q-.363.491-.372 1.337m1.062 0q-.002-.229.007-.35a4 4 0 0 1 .04-.301.45.45 0 0 1 .115-.256.3.3 0 0 1 .223-.08q.093-.001.162.04.076.046.109.127l.068.161a.8.8 0 0 1 .033.216l.007.214v.465l-.007.214-.033.215-.068.161-.108.129-.162.04a.3.3 0 0 1-.224-.081.47.47 0 0 1-.114-.255 4 4 0 0 1-.041-.303c-.007-.08-.007-.202-.007-.356"/></g><defs><clipPath id="a"><path fill="#fff" d="M0 0h11v13H0z"/></clipPath></defs></svg>