<svg xmlns="http://www.w3.org/2000/svg" width="16" height="16" fill="none"><path fill="#fff" d="m14.667 2.273-.08-.84-.8.267a9.2 9.2 0 0 1-4.274.427 7.9 7.9 0 0 0-4.453.6A4.82 4.82 0 0 0 2.2 6.333a6 6 0 0 0 .26 3.054q.338-.764.787-1.467A6.57 6.57 0 0 1 5.96 5.633a7.44 7.44 0 0 1 3.373-.666 8.05 8.05 0 0 0-3.106 1.166 6.3 6.3 0 0 0-1.24 1.02 7.6 7.6 0 0 0-.927 1.274 11 11 0 0 0-1.047 3.026 17.6 17.6 0 0 0-.346 3.214H4q.095-1.453.393-2.88c.925.5 1.963.754 3.014.74a7.3 7.3 0 0 0 2.853-.58c5.073-2.167 4.407-9.374 4.407-9.674"/></svg>