<svg xmlns="http://www.w3.org/2000/svg" width="12" height="15" fill="none"><path fill="#fff" d="M7 2.462a1.5 1.5 0 0 0 .202.763c.132.233.32.427.546.564a1.44 1.44 0 0 0 1.496 0A1.55 1.55 0 0 0 10 2.462q0-.267-.15-.636a3.7 3.7 0 0 0-.362-.683 11 11 0 0 0-.449-.558A15 15 0 0 0 8.496 0l-.368.383q-.285.286-.515.618a4.6 4.6 0 0 0-.429.757c-.127.27-.184.505-.184.704m4 2.243-.06-.63-.6.2a6.9 6.9 0 0 1-3.205.32 5.94 5.94 0 0 0-3.34.45A3.62 3.62 0 0 0 1.65 7.75a4.5 4.5 0 0 0 .195 2.29q.254-.572.59-1.1A4.9 4.9 0 0 1 4.47 7.225a5.6 5.6 0 0 1 2.53-.5 6 6 0 0 0-2.33.875 4.7 4.7 0 0 0-.93.765 5.7 5.7 0 0 0-.695.955 8.2 8.2 0 0 0-.785 2.27Q2.02 12.783 2 14h1q.071-1.09.295-2.16a4.6 4.6 0 0 0 2.26.555c.735 0 1.463-.149 2.14-.435C11.5 10.335 11 4.93 11 4.705"/></svg>