<svg xmlns="http://www.w3.org/2000/svg" width="30" height="30" fill="none"><g fill="currentcolor"><path d="M19.088 16.36a4.08 4.08 0 0 0-7.825-1.637 4.08 4.08 0 0 0 2.383 5.474v5.688h-2.721v2.72h8.163v-2.72h-2.72v-5.688a4.08 4.08 0 0 0 2.72-3.836"/><path d="M21.728 23.163a9.4 9.4 0 0 0 2.803-6.802 9.524 9.524 0 1 0-19.048 0 9.4 9.4 0 0 0 2.803 6.802l1.918-1.932a6.7 6.7 0 0 1-2-4.87 6.803 6.803 0 0 1 13.606 0 6.7 6.7 0 0 1-1.987 4.802z"/><path d="M15.007 1.394A14.966 14.966 0 0 0 4.422 26.946l1.918-1.919a12.245 12.245 0 1 1 17.32 0l1.918 1.919A14.967 14.967 0 0 0 15.007 1.394"/></g></svg>