<?xml version="1.0" encoding="UTF-8" standalone="no"?>
<svg
   width="30"
   height="30"
   viewBox="0 0 30 30"
   fill="none"
   version="1.1"
   id="svg3"
   xmlns="http://www.w3.org/2000/svg"
   xmlnsSvg="http://www.w3.org/2000/svg">
  <defs
     id="defs3" />
  <g
     id="g3"
     transform="matrix(1.2078829,0,0,1.2078829,-4.9300682,-4.9300682)">
    <path
       d="M 27.5687,15.125 H 5.43125 c -0.72142,0 -1.30625,0.5848 -1.30625,1.3062 v 0.1376 c 0,0.7214 0.58483,1.3062 1.30625,1.3062 H 27.5687 c 0.7215,0 1.3063,-0.5848 1.3063,-1.3062 v -0.1376 c 0,-0.7214 -0.5848,-1.3062 -1.3063,-1.3062 z"
       fill="currentcolor"
       id="path1" />
    <path
       d="M 27.5687,22 H 5.43125 C 4.70983,22 4.125,22.5848 4.125,23.3063 v 0.1374 c 0,0.7215 0.58483,1.3063 1.30625,1.3063 H 27.5687 c 0.7215,0 1.3063,-0.5848 1.3063,-1.3063 V 23.3063 C 28.875,22.5848 28.2902,22 27.5687,22 Z"
       fill="currentcolor"
       id="path2" />
    <path
       d="M 27.5687,8.25 H 5.43125 C 4.70983,8.25 4.125,8.83483 4.125,9.55625 v 0.1375 C 4.125,10.4152 4.70983,11 5.43125,11 H 27.5687 c 0.7215,0 1.3063,-0.5848 1.3063,-1.30625 V 9.55625 C 28.875,8.83483 28.2902,8.25 27.5687,8.25 Z"
       fill="currentcolor"
       id="path3" />
  </g>
</svg>
