<svg xmlns="http://www.w3.org/2000/svg" width="30" height="30" fill="none"><path fill="currentcolor" d="M28.37 13.34H1.63c-.871 0-1.578.706-1.578 1.577v.166c0 .871.707 1.578 1.578 1.578h26.74c.871 0 1.578-.707 1.578-1.578v-.166c0-.871-.707-1.578-1.578-1.578m0 8.304H1.63c-.871 0-1.578.707-1.578 1.578v.166c0 .872.707 1.578 1.578 1.578h26.74c.871 0 1.578-.706 1.578-1.578v-.166c0-.871-.707-1.578-1.578-1.578m0-16.608H1.63c-.871 0-1.578.706-1.578 1.578v.166c0 .871.707 1.578 1.578 1.578h26.74c.871 0 1.578-.707 1.578-1.578v-.166c0-.872-.707-1.578-1.578-1.578"/></svg>