<svg xmlns="http://www.w3.org/2000/svg" width="20" height="20" fill="none"><path fill="currentcolor" fill-rule="evenodd" d="M17.485 11.055c0-.301.102-.603.102-1.005s0-.703-.102-1.005l2.142-1.708c.204-.201.204-.402.102-.603l-2.04-3.518c-.102-.1-.306-.2-.612-.1l-2.55 1.005c-.51-.402-1.123-.704-1.735-1.005L12.384.503C12.486.2 12.18 0 11.976 0h-4.08c-.205 0-.51.201-.51.402l-.409 2.714c-.612.2-1.122.603-1.734 1.005L2.794 3.116c-.306-.1-.51 0-.714.2L.04 6.835c-.102.1 0 .402.204.603l2.142 1.608c0 .302-.102.603-.102 1.005s0 .704.102 1.005L.244 12.764c-.204.2-.204.402-.102.603l2.04 3.517c.102.1.306.201.612.1l2.55-1.004c.51.402 1.123.703 1.735 1.005l.408 2.613c0 .201.204.402.51.402h4.08c.205 0 .51-.201.51-.402l.409-2.613c.612-.302 1.224-.603 1.734-1.005l2.55 1.005c.205.1.51 0 .613-.201l2.04-3.518c.102-.2.102-.502-.102-.603zm-7.55 2.513c-1.938 0-3.57-1.608-3.57-3.518s1.632-3.517 3.57-3.517c1.939 0 3.571 1.608 3.571 3.517 0 1.91-1.632 3.518-3.57 3.518" clip-rule="evenodd"/></svg>