<svg xmlns="http://www.w3.org/2000/svg" width="13" height="10" fill="none"><path stroke="#fff" stroke-linecap="round" d="M12 1.5H1"/><circle cx="2.5" cy="4.5" r=".5" fill="#fff"/><circle cx="6.5" cy="3.5" r=".5" fill="#fff"/><circle cx="5.5" cy="6.5" r=".5" fill="#fff"/><circle cx="2.5" cy="8.5" r=".5" fill="#fff"/><path fill="#fff" d="M10.222 7.422v-2.23a.222.222 0 0 0-.444 0v2.23a.66.66 0 0 0-.445.619c0 .362.299.657.667.657a.66.66 0 0 0 .667-.657.66.66 0 0 0-.445-.619m1.334-.608v-2.28c0-.847-.697-1.534-1.543-1.534-.847 0-1.569.687-1.569 1.534v2.28C8.17 7.154 8 7.574 8 8.04 8 9.13 8.896 10 10 10s2-.871 2-1.96c0-.466-.17-.889-.444-1.226M10 9.136c-.613 0-1.111-.491-1.111-1.084 0-.349.17-.669.444-.873V4.546c0-.363.299-.658.667-.658s.667.295.667.658v2.633c.274.202.444.524.444.873 0 .592-.498 1.084-1.111 1.084"/></svg>