<svg xmlns="http://www.w3.org/2000/svg" width="13" height="10" fill="none"><path fill="#fff" d="M8 7.462a1.55 1.55 0 0 0 .748 1.327 1.44 1.44 0 0 0 1.496 0c.228-.136.418-.33.552-.564A1.5 1.5 0 0 0 11 7.462q0-.267-.15-.636a3.7 3.7 0 0 0-.362-.683 11 11 0 0 0-.449-.558A15 15 0 0 0 9.496 5l-.368.383q-.285.286-.515.618a4.6 4.6 0 0 0-.429.757c-.127.27-.184.505-.184.704"/><path stroke="#fff" stroke-linecap="round" d="M12 1.5H1"/><circle cx="2.5" cy="4.5" r=".5" fill="#fff"/><circle cx="6.5" cy="3.5" r=".5" fill="#fff"/><circle cx="5.5" cy="6.5" r=".5" fill="#fff"/><circle cx="2.5" cy="8.5" r=".5" fill="#fff"/></svg>