<svg xmlns="http://www.w3.org/2000/svg" width="11" height="13" fill="none"><g clip-path="url(#a)"><path fill="#fff" d="M.522 7.984a4.7 4.7 0 0 0 .669 2.454 5.07 5.07 0 0 0 1.813 1.812 4.8 4.8 0 0 0 2.472.679 4.9 4.9 0 0 0 2.491-.679A5.06 5.06 0 0 0 9.8 10.438a4.74 4.74 0 0 0 .678-2.454q.002-.856-.496-2.042a12 12 0 0 0-1.203-2.197 36 36 0 0 0-1.49-1.793C6.717 1.302 5.714.3 5.486.072L4.265 1.303a15 15 0 0 0-1.71 1.984 14.6 14.6 0 0 0-1.422 2.434c-.42.868-.61 1.622-.61 2.262"/></g><defs><clipPath id="a"><path fill="#fff" d="M0 0h11v13H0z"/></clipPath></defs></svg>