<svg xmlns="http://www.w3.org/2000/svg" width="16" height="16" fill="none"><path fill="#fff" d="M8.5 10.09V5c0-.273-.227-.5-.5-.5s-.5.227-.5.5v5.09A1.498 1.498 0 0 0 8 13a1.496 1.496 0 0 0 .5-2.91m3-1.387V3.5C11.5 1.567 9.934 0 8.028 0S4.5 1.567 4.5 3.5v5.203a4.46 4.46 0 0 0-1 2.797c0 2.484 2.016 4.472 4.5 4.472s4.5-1.988 4.5-4.472a4.44 4.44 0 0 0-1-2.797M8 14c-1.38 0-2.5-1.12-2.5-2.472 0-.797.383-1.527 1-1.992v-6.01a1.5 1.5 0 0 1 3 0v6.01c.617.46 1 1.195 1 1.992C10.5 12.878 9.378 14 8 14"/></svg>