<svg xmlns="http://www.w3.org/2000/svg" width="17" height="17" fill="none"><g clip-path="url(#a)"><path fill="#fff" d="M8.5 13.547a5.047 5.047 0 1 0 0-10.094 5.047 5.047 0 0 0 0 10.094"/><path stroke="#fff" stroke-linecap="round" stroke-miterlimit="10" d="M8.5.484v1.782m0 12.468v1.782M16.516 8.5h-1.782m-12.468 0H.484m13.683-5.667L12.91 4.092m-8.819 8.817-1.258 1.258m11.334 0L12.91 12.91M4.091 4.092l-1.258-1.26"/><path fill="#3D3C30" d="M6.36 7.238v1.767c0 .528.198.795.555.795.356 0 .564-.255.564-.795V7.238h.691v1.72c0 .946-.478 1.394-1.276 1.394-.799 0-1.23-.427-1.23-1.404v-1.71zm3.135 3.067L8.5 7.238h.772l.374 1.298c.104.365.199.715.273 1.095.077-.368.172-.733.276-1.084l.392-1.309h.736l-1.021 3.067z"/></g><defs><clipPath id="a"><path fill="#fff" d="M0 0h17v17H0z"/></clipPath></defs></svg>