<svg width="21" height="18" viewBox="0 0 21 18" fill="none" xmlns="http://www.w3.org/2000/svg">
<g clip-path="url(#clip0_2_93)">
<path d="M17.6367 3.12229C17.4444 2.47023 17.0453 1.89839 16.4995 1.49301C15.9538 1.08764 15.291 0.87073 14.6112 0.875C13.8233 0.875703 13.0642 1.17109 12.4831 1.7031C11.902 2.23511 11.5409 2.96525 11.4707 3.75H9.53013C9.45907 2.96443 9.09676 2.23384 8.51439 1.70184C7.93203 1.16984 7.17174 0.874903 6.38296 0.875C5.70406 0.871667 5.04245 1.08904 4.49781 1.49436C3.95317 1.89969 3.55499 2.47102 3.36325 3.12229L0.956876 11.1416C0.930515 11.2309 0.916963 11.3235 0.916626 11.4167V12.375C0.918148 13.6455 1.4236 14.8636 2.32209 15.7619C3.22058 16.6602 4.43872 17.1654 5.70925 17.1667C6.64045 17.1651 7.55102 16.8924 8.32978 16.3818C9.10854 15.8713 9.72177 15.145 10.0946 14.2917H10.9053C11.2781 15.145 11.8914 15.8713 12.6701 16.3818C13.4489 16.8924 14.3595 17.1651 15.2907 17.1667C16.5614 17.1654 17.7796 16.6601 18.6782 15.7615C19.5767 14.863 20.082 13.6447 20.0833 12.374V11.4167C20.0833 11.3228 20.0689 11.2308 20.043 11.1416L17.6367 3.12229ZM5.70925 15.25C4.94698 15.249 4.2162 14.9458 3.6771 14.4069C3.138 13.868 2.83456 13.1373 2.83329 12.375C2.83329 12.3022 2.84958 12.2341 2.85438 12.1622C2.90681 11.4404 3.22999 10.7651 3.7592 10.2714C4.28841 9.77773 4.98458 9.50221 5.70829 9.5C6.47079 9.5 7.20206 9.8029 7.74122 10.3421C8.28039 10.8812 8.58329 11.6125 8.58329 12.375V12.3836C8.58 13.1441 8.2759 13.8725 7.73741 14.4095C7.19891 14.9466 6.46978 15.2487 5.70925 15.25ZM15.2907 15.25C14.5301 15.2487 13.801 14.9466 13.2625 14.4095C12.724 13.8725 12.4199 13.1441 12.4166 12.3836V12.375C12.4166 11.9974 12.4909 11.6236 12.6353 11.2747C12.7797 10.9259 12.9914 10.6089 13.2584 10.3419C13.7974 9.80267 14.5286 9.49965 15.2911 9.49952C16.0536 9.49939 16.785 9.80217 17.3242 10.3412C17.8635 10.8803 18.1665 11.6115 18.1666 12.374C18.1656 13.1365 17.8623 13.8674 17.3232 14.4065C16.784 14.9457 16.0531 15.249 15.2907 15.25Z" fill="white"/>
</g>
<defs>
<clipPath id="clip0_2_93">
<rect width="21" height="18" fill="white"/>
</clipPath>
</defs>
</svg>
