<svg xmlns="http://www.w3.org/2000/svg" width="21" height="18" fill="none"><g clip-path="url(#a)"><path fill="#fff" d="M17.637 3.122A3.134 3.134 0 0 0 14.61.875a3.156 3.156 0 0 0-3.14 2.875H9.53A3.16 3.16 0 0 0 6.382.875a3.13 3.13 0 0 0-3.02 2.247l-2.406 8.02a1 1 0 0 0-.04.275v.958a4.797 4.797 0 0 0 4.792 4.792 4.79 4.79 0 0 0 4.386-2.875h.81a4.8 4.8 0 0 0 4.386 2.875 4.797 4.797 0 0 0 4.792-4.793v-.957a1 1 0 0 0-.04-.275zM5.709 15.25a2.88 2.88 0 0 1-2.876-2.875c0-.073.017-.14.021-.213A2.87 2.87 0 0 1 5.708 9.5a2.875 2.875 0 0 1 2.875 2.875v.009A2.88 2.88 0 0 1 5.71 15.25m9.582 0a2.88 2.88 0 0 1-2.874-2.866v-.009A2.877 2.877 0 0 1 15.29 9.5a2.875 2.875 0 1 1 0 5.75"/></g><defs><clipPath id="a"><path fill="#fff" d="M0 0h21v18H0z"/></clipPath></defs></svg>