<svg xmlns="http://www.w3.org/2000/svg" width="156" height="156"><circle cx="78" cy="78" r="76.5" fill-opacity=".14" stroke="#937C97" stroke-width="3"/><path fill="#D9D9D9" d="M76 0h5v11h-5zm56.78 22 3.536 3.536-7.779 7.778-3.535-3.536zM27.778 122l3.536 3.536-7.779 7.778L20 129.778zM20 25.536 23.536 22l7.778 7.779-3.536 3.535zM125 125.54l3.536-3.536 7.778 7.779-3.536 3.535zM76 145h5v11h-5zm69-65v-5h11v5zM0 80v-5h11v5z"/><path fill="#fff" d="M82.45 17.546v9.455h-1.727L76.61 21.05h-.07V27h-1.998v-9.454h1.754l4.081 5.946h.083v-5.946zM18.715 82l-2.705-9.454h2.183l1.565 6.569h.079l1.726-6.57h1.87l1.722 6.584h.083l1.565-6.583h2.184L26.28 82h-1.948l-1.8-6.181h-.074L20.663 82zm119.205-4.727q0 1.547-.586 2.631-.582 1.085-1.588 1.658-1.002.567-2.253.568-1.26 0-2.262-.573c-1.002-.573-1.195-.934-1.583-1.657q-.582-1.085-.582-2.627 0-1.546.582-2.631.582-1.086 1.583-1.653 1.002-.573 2.262-.573 1.251 0 2.253.573 1.006.568 1.588 1.653.586 1.084.586 2.631m-2.026 0q0-1.002-.3-1.69-.296-.687-.836-1.043c-.54-.356-.782-.355-1.265-.355s-.905.118-1.265.355-.64.585-.84 1.043q-.295.688-.295 1.69t.295 1.69q.3.687.84 1.043c.54.356.782.356 1.265.356s.905-.119 1.265-.356.639-.585.836-1.043q.3-.688.3-1.69M80.191 133.26q-.055-.56-.475-.868-.42-.31-1.14-.31-.49 0-.827.139a1.16 1.16 0 0 0-.517.374.9.9 0 0 0-.176.545.8.8 0 0 0 .107.443q.12.189.327.327.209.135.48.236.273.097.582.166l.85.203q.618.14 1.135.37t.896.567q.378.338.586.794.213.457.217 1.048-.004.869-.443 1.505-.435.633-1.256.984-.817.345-1.971.346-1.145 0-1.994-.351-.846-.35-1.32-1.039-.472-.692-.495-1.712h1.935q.032.475.272.794.245.313.651.475.41.157.928.157.507 0 .882-.148a1.35 1.35 0 0 0 .586-.41.95.95 0 0 0 .208-.605.8.8 0 0 0-.19-.536 1.4 1.4 0 0 0-.544-.369 5.5 5.5 0 0 0-.873-.277l-1.03-.259q-1.195-.29-1.888-.909-.691-.618-.687-1.667-.005-.858.457-1.5.466-.642 1.278-1.002t1.847-.36q1.053 0 1.837.36.79.36 1.228 1.002c.438.642.444.923.453 1.487z"/></svg>