<svg xmlns="http://www.w3.org/2000/svg" width="19" height="13" fill="none"><g clip-path="url(#a)"><path fill="#fff" d="M16.701 3.25a2.07 2.07 0 0 0-2.075 2.063c0 .242.05.47.127.687H1.48a.69.69 0 0 0-.692.688c0 .379.31.687.692.687H16.7a2.07 2.07 0 0 0 2.076-2.062A2.07 2.07 0 0 0 16.7 3.25M1.48 4.625h8.302a2.07 2.07 0 0 0 2.076-2.062A2.07 2.07 0 0 0 9.782.5a2.07 2.07 0 0 0-2.075 2.063c0 .242.05.47.127.687H1.48a.69.69 0 0 0-.692.688c0 .379.31.687.692.687M12.55 8.75c-.04 0-.08.009-.12.012-.028-.001-.05-.012-.077-.012H1.678c-.492 0-.89.308-.89.688s.398.687.89.687h8.923a2 2 0 0 0-.127.688 2.07 2.07 0 0 0 2.076 2.062 2.07 2.07 0 0 0 2.076-2.062A2.07 2.07 0 0 0 12.55 8.75"/></g><defs><clipPath id="a"><path fill="#fff" d="M0 0h19v13H0z"/></clipPath></defs></svg>