<svg width="156" height="156" version="1.1" viewBox="0 0 156 156" xmlns="http://www.w3.org/2000/svg">
 <circle cx="78" cy="78" r="76.5" fill-opacity=".14" stroke="#937C97" stroke-width="3"/>
 <g fill="#D9D9D9">
  <rect x="76" width="5" height="11"/>
  <rect transform="rotate(45 132.78 22)" x="132.78" y="22" width="5" height="11"/>
  <rect transform="rotate(45 27.778 122)" x="27.778" y="122" width="5" height="11"/>
  <rect transform="rotate(-45 20 25.536)" x="20" y="25.536" width="5" height="11"/>
  <rect transform="rotate(-45 125 125.54)" x="125" y="125.54" width="5" height="11"/>
  <rect x="76" y="145" width="5" height="11"/>
  <rect transform="rotate(-90 145 80)" x="145" y="80" width="5" height="11"/>
  <rect transform="rotate(-90 0 80)" y="80" width="5" height="11"/>
 </g>
 <g fill="#fff">
  <path d="m82.45 17.546v9.4545h-1.7266l-4.1133-5.9506h-0.0692v5.9506h-1.999v-9.4545h1.7543l4.081 5.946h0.0831v-5.946h1.9897z"/>
  <path d="m18.715 82-2.7053-9.4545h2.1836l1.565 6.5692h0.0785l1.7265-6.5692h1.8697l1.722 6.5831h0.083l1.565-6.5831h2.1836l-2.7052 9.4545h-1.9482l-1.8004-6.1815h-0.0739l-1.7958 6.1815h-1.9481z"/>
  <path d="m137.92 77.273c0 1.031-0.195 1.9082-0.586 2.6314-0.388 0.7233-0.917 1.2757-1.588 1.6573-0.668 0.3786-1.419 0.5679-2.253 0.5679-0.84 0-1.594-0.1909-2.262-0.5725s-1.195-0.934-1.583-1.6573c-0.388-0.7232-0.582-1.5988-0.582-2.6268 0-1.031 0.194-1.9081 0.582-2.6314 0.388-0.7232 0.915-1.2741 1.583-1.6527 0.668-0.3816 1.422-0.5724 2.262-0.5724 0.834 0 1.585 0.1908 2.253 0.5724 0.671 0.3786 1.2 0.9295 1.588 1.6527 0.391 0.7233 0.586 1.6004 0.586 2.6314zm-2.026 0c0-0.6678-0.1-1.231-0.3-1.6896-0.197-0.4586-0.476-0.8063-0.836-1.0433s-0.782-0.3555-1.265-0.3555-0.905 0.1185-1.265 0.3555-0.64 0.5847-0.84 1.0433c-0.197 0.4586-0.295 1.0218-0.295 1.6896 0 0.6679 0.098 1.2311 0.295 1.6897 0.2 0.4585 0.48 0.8063 0.84 1.0433s0.782 0.3555 1.265 0.3555 0.905-0.1185 1.265-0.3555 0.639-0.5848 0.836-1.0433c0.2-0.4586 0.3-1.0218 0.3-1.6897z"/>
  <path d="m80.191 133.26c-0.037-0.373-0.1955-0.662-0.4755-0.868-0.2801-0.207-0.6602-0.31-1.1403-0.31-0.3262 0-0.6017 0.047-0.8264 0.139-0.2246 0.089-0.397 0.214-0.517 0.374-0.117 0.16-0.1754 0.341-0.1754 0.545-0.0062 0.169 0.0292 0.317 0.1062 0.443 0.08 0.126 0.1892 0.235 0.3277 0.327 0.1385 0.09 0.2986 0.168 0.4801 0.236 0.1816 0.065 0.3755 0.12 0.5817 0.166l0.8494 0.203c0.4124 0.093 0.791 0.216 1.1357 0.37 0.3447 0.153 0.6432 0.343 0.8956 0.567 0.2524 0.225 0.4478 0.49 0.5863 0.794 0.1416 0.305 0.2139 0.654 0.217 1.048-0.0031 0.579-0.1508 1.081-0.4432 1.505-0.2893 0.422-0.7079 0.75-1.2557 0.984-0.5447 0.23-1.2018 0.346-1.9712 0.346-0.7633 0-1.4281-0.117-1.9944-0.351-0.5632-0.234-1.0033-0.58-1.3203-1.039-0.3139-0.461-0.4785-1.032-0.4939-1.712h1.9343c0.0215 0.317 0.1123 0.581 0.2723 0.794 0.1632 0.209 0.3801 0.367 0.651 0.475 0.2739 0.105 0.5832 0.157 0.9279 0.157 0.3385 0 0.6324-0.049 0.8817-0.148 0.2524-0.098 0.4478-0.235 0.5863-0.41 0.1385-0.176 0.2078-0.378 0.2078-0.605 0-0.213-0.0631-0.391-0.1893-0.536-0.1231-0.144-0.3047-0.268-0.5448-0.369-0.2369-0.102-0.5278-0.194-0.8725-0.277l-1.0294-0.259c-0.7972-0.193-1.4265-0.497-1.8882-0.909-0.4616-0.412-0.6909-0.968-0.6878-1.667-0.0031-0.572 0.1492-1.072 0.457-1.5 0.3108-0.428 0.7371-0.762 1.2788-1.002 0.5416-0.24 1.1572-0.36 1.8465-0.36 0.7017 0 1.3142 0.12 1.8374 0.36 0.5263 0.24 0.9356 0.574 1.228 1.002s0.4432 0.923 0.4524 1.487h-1.9158z"/>
 </g>
</svg>
