<svg version="1.1" viewBox="0 0 256 256" xmlns="http://www.w3.org/2000/svg">
 <rect width="256" height="256" fill="none"/>
 <path fill="currentcolor" d="m92.381 93.413a15.668 15.668 0 0 1-30.356 5.4347 3.9169 3.9169 0 1 1 7.3442-2.6928 7.8338 7.8338 0 1 0 7.3442-10.576h-54.836a3.9169 3.9169 0 0 1 0-7.8338h54.836a15.716 15.716 0 0 1 15.668 15.668zm-31.335-39.169a15.668 15.668 0 1 0-14.688-21.102 3.9169 3.9169 0 1 0 7.3441 2.6929 7.8338 7.8338 0 1 1 7.3441 10.576h-47.003a3.9169 3.9169 0 0 0 0 7.8338zm43.086-15.668a15.716 15.716 0 0 0-14.688 10.233 3.9169 3.9169 0 1 0 7.3442 2.6929 7.8338 7.8338 0 1 1 7.3441 10.576h-86.171a3.9169 3.9169 0 0 0 0 7.8338h86.171a15.668 15.668 0 0 0 0-31.335z" stroke="#000" stroke-width="3.323"/>
 <g transform="matrix(15.988 0 0 15.988 56.148 .31965)">
  <path  fill="currentcolor" d="m8.5 10.091v-5.0906c0-0.27344-0.22656-0.5-0.5-0.5s-0.5 0.22656-0.5 0.5v5.0906c-0.58188 0.2071-1 0.7578-1 1.4103 0 0.8282 0.67188 1.5 1.5 1.5s1.5-0.6718 1.5-1.5c0-0.654-0.41875-1.204-1-1.4103zm3-1.3875v-5.2031c0-1.9334-1.5662-3.5-3.4719-3.5-1.9056 0-3.5281 1.5666-3.5281 3.5v5.2031c-0.61719 0.77344-1 1.7344-1 2.7969 0 2.4844 2.0156 4.4719 4.5 4.4719 2.4844 0 4.5-1.9875 4.5-4.4719 0-1.0625-0.3813-2.0281-1-2.7969zm-3.5 5.2969c-1.3791 0-2.5-1.1209-2.5-2.4719 0-0.7969 0.38281-1.5275 1-1.9922v-6.0094c0-0.82812 0.67188-1.5 1.5-1.5s1.5 0.67188 1.5 1.5v6.0094c0.6172 0.46093 1 1.1953 1 1.9922 0 1.35-1.1219 2.4719-2.5 2.4719z" stroke-width="0"/>
 </g></svg>