<svg xmlns="http://www.w3.org/2000/svg" width="22" height="15" fill="none"><path fill="#fff" d="M16.52 5.25a2.063 2.063 0 0 0-2.063 2.063c0 .242.05.47.126.687H1.395a.688.688 0 0 0 0 1.375H16.52a2.063 2.063 0 0 0 0-4.125M1.395 6.625h8.25a2.063 2.063 0 1 0-2.063-2.062c0 .242.05.47.126.687H1.395a.688.688 0 0 0 0 1.375m11 4.125c-.04 0-.08.009-.12.012-.027-.001-.05-.012-.077-.012H1.592c-.49 0-.885.308-.885.688s.396.687.885.687h8.866a2 2 0 0 0-.126.688 2.063 2.063 0 1 0 2.063-2.063m-.175-9.66h.87l.74 1.802h.034l.738-1.801h.871V4h-.685V2.213h-.024l-.699 1.769h-.437l-.699-1.779h-.024V4h-.685zM16.54 4h-.755l.982-2.91h.936L18.684 4h-.755l-.684-2.176h-.022zm-.1-1.145h1.58v.534h-1.58zm3.27-1.764.53.919h.023l.537-.92h.787l-.878 1.455L21.615 4h-.806l-.546-.929h-.023L19.695 4h-.801l.902-1.455-.88-1.454z"/></svg>