<svg xmlns="http://www.w3.org/2000/svg" viewBox="0 0 256 256"><path fill="none" d="M0 0h256v256H0z"/><path fill="currentcolor" stroke="#000" stroke-width="3.323" d="M92.381 93.413a15.668 15.668 0 0 1-30.356 5.435 3.917 3.917 0 1 1 7.344-2.693 7.834 7.834 0 1 0 7.344-10.576H21.877a3.917 3.917 0 0 1 0-7.834h54.836a15.716 15.716 0 0 1 15.668 15.668zM61.046 54.244a15.668 15.668 0 1 0-14.688-21.102 3.917 3.917 0 1 0 7.344 2.693 7.834 7.834 0 1 1 7.344 10.576H14.043a3.917 3.917 0 0 0 0 7.834zm43.086-15.668a15.72 15.72 0 0 0-14.688 10.233 3.917 3.917 0 1 0 7.344 2.693 7.834 7.834 0 1 1 7.344 10.576h-86.17a3.917 3.917 0 0 0 0 7.834h86.17a15.668 15.668 0 0 0 0-31.335z"/><path fill="currentcolor" d="M192.046 161.655V80.266c0-4.372-3.622-7.994-7.994-7.994s-7.994 3.622-7.994 7.994v81.389c-9.303 3.31-15.988 12.115-15.988 22.547 0 13.242 10.742 23.982 23.982 23.982s23.982-10.74 23.982-23.982c0-10.456-6.695-19.25-15.988-22.547m47.964-22.184V56.284c0-30.911-25.04-55.958-55.509-55.958-30.466 0-56.407 25.047-56.407 55.958v83.187c-9.868 12.366-15.988 27.73-15.988 44.717 0 39.72 32.225 71.497 71.946 71.497s71.946-31.776 71.946-71.497c0-16.987-6.096-32.425-15.988-44.717m-55.958 84.687c-22.05 0-39.97-17.92-39.97-39.52 0-12.742 6.12-24.422 15.988-31.852V56.708c0-13.24 10.742-23.982 23.982-23.982s23.982 10.742 23.982 23.982v96.078c9.868 7.37 15.988 19.11 15.988 31.851 0 21.584-17.937 39.521-39.97 39.521"/></svg>